<svg width="390" height="841" viewBox="0 0 390 841" fill="none" xmlns="http://www.w3.org/2000/svg">
<rect y="7" width="390" height="834" fill="#00C6E8"/>
<path opacity="0.5" d="M370.24 35.2861V39.3406C371.077 38.9972 371.621 38.1984 371.621 37.3134C371.621 36.4283 371.077 35.6295 370.24 35.2861Z" fill="white"/>
<path d="M351.52 34.93C351.52 34.1936 352.117 33.5967 352.853 33.5967H368.907C369.643 33.5967 370.24 34.1936 370.24 34.93V39.6965C370.24 40.4329 369.643 41.0298 368.907 41.0298H352.853C352.117 41.0298 351.52 40.4329 351.52 39.6965V34.93Z" fill="white"/>
<path fill-rule="evenodd" clip-rule="evenodd" d="M336.264 33.8747C338.568 33.8748 340.785 34.7379 342.455 36.2854C342.58 36.4049 342.782 36.4034 342.905 36.2821L344.108 35.0995C344.17 35.038 344.205 34.9546 344.205 34.8679C344.204 34.7811 344.168 34.6981 344.105 34.6373C339.721 30.5428 332.805 30.5428 328.422 34.6373C328.358 34.6981 328.322 34.781 328.322 34.8678C328.321 34.9545 328.356 35.0379 328.419 35.0995L329.621 36.2821C329.745 36.4036 329.946 36.4051 330.072 36.2854C331.742 34.7378 333.959 33.8747 336.264 33.8747ZM336.264 37.7221C337.53 37.722 338.751 38.1807 339.689 39.009C339.816 39.1266 340.016 39.124 340.14 39.0033L341.341 37.8207C341.404 37.7587 341.439 37.6746 341.438 37.5871C341.437 37.4997 341.401 37.4162 341.336 37.3555C338.478 34.7643 334.052 34.7643 331.194 37.3555C331.129 37.4162 331.092 37.4997 331.091 37.5872C331.091 37.6747 331.126 37.7588 331.189 37.8207L332.39 39.0033C332.513 39.124 332.713 39.1266 332.84 39.009C333.778 38.1812 334.998 37.7226 336.264 37.7221ZM338.669 40.3107C338.671 40.3983 338.636 40.4829 338.571 40.5443L336.494 42.5874C336.433 42.6475 336.35 42.6813 336.264 42.6813C336.177 42.6813 336.094 42.6475 336.033 42.5874L333.956 40.5443C333.891 40.4828 333.856 40.3983 333.858 40.3106C333.86 40.2229 333.899 40.1399 333.966 40.0811C335.292 38.9875 337.235 38.9875 338.562 40.0811C338.628 40.1399 338.667 40.223 338.669 40.3107Z" fill="white"/>
<path fill-rule="evenodd" clip-rule="evenodd" d="M322.053 31.9072H321.013C320.439 31.9072 319.973 32.361 319.973 32.9208V41.7055C319.973 42.2653 320.439 42.7191 321.013 42.7191H322.053C322.628 42.7191 323.093 42.2653 323.093 41.7055V32.9208C323.093 32.361 322.628 31.9072 322.053 31.9072ZM316.16 34.2723H317.2C317.774 34.2723 318.24 34.7261 318.24 35.2859V41.7055C318.24 42.2653 317.774 42.7191 317.2 42.7191H316.16C315.586 42.7191 315.12 42.2653 315.12 41.7055V35.2859C315.12 34.7261 315.586 34.2723 316.16 34.2723ZM312.347 36.6374H311.307C310.732 36.6374 310.267 37.0912 310.267 37.651V41.7055C310.267 42.2653 310.732 42.7191 311.307 42.7191H312.347C312.921 42.7191 313.387 42.2653 313.387 41.7055V37.651C313.387 37.0912 312.921 36.6374 312.347 36.6374ZM307.493 38.6647H306.453C305.879 38.6647 305.413 39.1185 305.413 39.6783V41.7055C305.413 42.2653 305.879 42.7191 306.453 42.7191H307.493C308.068 42.7191 308.533 42.2653 308.533 41.7055V39.6783C308.533 39.1185 308.068 38.6647 307.493 38.6647Z" fill="white"/>
<path d="M39.314 35.9804C39.464 36.7704 39.924 37.1654 40.694 37.1654C41.224 37.1654 41.599 36.9304 41.819 36.4604C42.039 35.9904 42.149 35.2254 42.149 34.1654C41.929 34.4754 41.629 34.7154 41.249 34.8854C40.869 35.0554 40.444 35.1404 39.974 35.1404C39.334 35.1404 38.764 35.0104 38.264 34.7504C37.764 34.4804 37.369 34.0854 37.079 33.5654C36.799 33.0354 36.659 32.3954 36.659 31.6454C36.659 30.9054 36.809 30.2604 37.109 29.7104C37.419 29.1604 37.854 28.7354 38.414 28.4354C38.984 28.1354 39.654 27.9854 40.424 27.9854C41.904 27.9854 42.939 28.4454 43.529 29.3654C44.119 30.2854 44.414 31.6404 44.414 33.4304C44.414 34.7304 44.294 35.8054 44.054 36.6554C43.824 37.4954 43.429 38.1354 42.869 38.5754C42.319 39.0154 41.564 39.2354 40.604 39.2354C39.844 39.2354 39.194 39.0854 38.654 38.7854C38.124 38.4854 37.714 38.0904 37.424 37.6004C37.144 37.1104 36.984 36.5704 36.944 35.9804H39.314ZM40.559 33.1154C40.979 33.1154 41.314 32.9904 41.564 32.7404C41.814 32.4804 41.939 32.1304 41.939 31.6904C41.939 31.2104 41.809 30.8404 41.549 30.5804C41.289 30.3204 40.939 30.1904 40.499 30.1904C40.059 30.1904 39.709 30.3254 39.449 30.5954C39.199 30.8554 39.074 31.2154 39.074 31.6754C39.074 32.1054 39.199 32.4554 39.449 32.7254C39.709 32.9854 40.079 33.1154 40.559 33.1154ZM46.9375 39.3104C46.4875 39.3104 46.1175 39.1804 45.8275 38.9204C45.5475 38.6504 45.4075 38.3204 45.4075 37.9304C45.4075 37.5304 45.5475 37.1954 45.8275 36.9254C46.1175 36.6554 46.4875 36.5204 46.9375 36.5204C47.3775 36.5204 47.7375 36.6554 48.0175 36.9254C48.3075 37.1954 48.4525 37.5304 48.4525 37.9304C48.4525 38.3204 48.3075 38.6504 48.0175 38.9204C47.7375 39.1804 47.3775 39.3104 46.9375 39.3104ZM46.9375 33.2054C46.4875 33.2054 46.1175 33.0754 45.8275 32.8154C45.5475 32.5454 45.4075 32.2154 45.4075 31.8254C45.4075 31.4254 45.5475 31.0904 45.8275 30.8204C46.1175 30.5504 46.4875 30.4154 46.9375 30.4154C47.3775 30.4154 47.7375 30.5504 48.0175 30.8204C48.3075 31.0904 48.4525 31.4254 48.4525 31.8254C48.4525 32.2154 48.3075 32.5454 48.0175 32.8154C47.7375 33.0754 47.3775 33.2054 46.9375 33.2054ZM49.5052 37.2404V35.1704L54.2452 28.3904H57.1102V35.0204H58.3402V37.2404H57.1102V39.1904H54.5452V37.2404H49.5052ZM54.7252 31.2104L52.2052 35.0204H54.7252V31.2104ZM59.0266 30.6254V28.2404H63.1816V39.1904H60.5116V30.6254H59.0266Z" fill="white"/>
<g clip-path="url(#clip0_61_1843)">
<path d="M57 85H43" stroke="white" stroke-width="2" stroke-linecap="round" stroke-linejoin="round"/>
<path d="M50 92L43 85L50 78" stroke="white" stroke-width="2" stroke-linecap="round" stroke-linejoin="round"/>
</g>
<line x1="128.5" y1="824.5" x2="261.5" y2="824.5" stroke="black" stroke-width="5" stroke-linecap="round"/>
<path d="M147.324 723.242V729.416C147.324 730.284 147.534 730.928 147.954 731.348C148.383 731.768 148.976 731.978 149.732 731.978C150.479 731.978 151.062 731.768 151.482 731.348C151.911 730.928 152.126 730.284 152.126 729.416V723.242H153.4V729.402C153.4 730.214 153.237 730.9 152.91 731.46C152.583 732.011 152.14 732.421 151.58 732.692C151.029 732.963 150.409 733.098 149.718 733.098C149.027 733.098 148.402 732.963 147.842 732.692C147.291 732.421 146.853 732.011 146.526 731.46C146.209 730.9 146.05 730.214 146.05 729.402V723.242H147.324ZM156.799 726.742C157.051 726.303 157.425 725.939 157.919 725.65C158.423 725.351 159.007 725.202 159.669 725.202C160.351 725.202 160.967 725.365 161.517 725.692C162.077 726.019 162.516 726.481 162.833 727.078C163.151 727.666 163.309 728.352 163.309 729.136C163.309 729.911 163.151 730.601 162.833 731.208C162.516 731.815 162.077 732.286 161.517 732.622C160.967 732.958 160.351 733.126 159.669 733.126C159.016 733.126 158.437 732.981 157.933 732.692C157.439 732.393 157.061 732.025 156.799 731.586V736.64H155.525V725.328H156.799V726.742ZM162.007 729.136C162.007 728.557 161.891 728.053 161.657 727.624C161.424 727.195 161.107 726.868 160.705 726.644C160.313 726.42 159.879 726.308 159.403 726.308C158.937 726.308 158.503 726.425 158.101 726.658C157.709 726.882 157.392 727.213 157.149 727.652C156.916 728.081 156.799 728.581 156.799 729.15C156.799 729.729 156.916 730.237 157.149 730.676C157.392 731.105 157.709 731.437 158.101 731.67C158.503 731.894 158.937 732.006 159.403 732.006C159.879 732.006 160.313 731.894 160.705 731.67C161.107 731.437 161.424 731.105 161.657 730.676C161.891 730.237 162.007 729.724 162.007 729.136ZM166.26 722.64V733H164.986V722.64H166.26ZM171.778 733.126C171.059 733.126 170.406 732.963 169.818 732.636C169.239 732.309 168.782 731.847 168.446 731.25C168.119 730.643 167.956 729.943 167.956 729.15C167.956 728.366 168.124 727.675 168.46 727.078C168.805 726.471 169.272 726.009 169.86 725.692C170.448 725.365 171.106 725.202 171.834 725.202C172.562 725.202 173.22 725.365 173.808 725.692C174.396 726.009 174.858 726.467 175.194 727.064C175.539 727.661 175.712 728.357 175.712 729.15C175.712 729.943 175.534 730.643 175.18 731.25C174.834 731.847 174.363 732.309 173.766 732.636C173.168 732.963 172.506 733.126 171.778 733.126ZM171.778 732.006C172.235 732.006 172.664 731.899 173.066 731.684C173.467 731.469 173.789 731.147 174.032 730.718C174.284 730.289 174.41 729.766 174.41 729.15C174.41 728.534 174.288 728.011 174.046 727.582C173.803 727.153 173.486 726.835 173.094 726.63C172.702 726.415 172.277 726.308 171.82 726.308C171.353 726.308 170.924 726.415 170.532 726.63C170.149 726.835 169.841 727.153 169.608 727.582C169.374 728.011 169.258 728.534 169.258 729.15C169.258 729.775 169.37 730.303 169.594 730.732C169.827 731.161 170.135 731.483 170.518 731.698C170.9 731.903 171.32 732.006 171.778 732.006ZM176.911 729.136C176.911 728.352 177.069 727.666 177.387 727.078C177.704 726.481 178.138 726.019 178.689 725.692C179.249 725.365 179.869 725.202 180.551 725.202C181.223 725.202 181.806 725.347 182.301 725.636C182.795 725.925 183.164 726.289 183.407 726.728V725.328H184.695V733H183.407V731.572C183.155 732.02 182.777 732.393 182.273 732.692C181.778 732.981 181.199 733.126 180.537 733.126C179.855 733.126 179.239 732.958 178.689 732.622C178.138 732.286 177.704 731.815 177.387 731.208C177.069 730.601 176.911 729.911 176.911 729.136ZM183.407 729.15C183.407 728.571 183.29 728.067 183.057 727.638C182.823 727.209 182.506 726.882 182.105 726.658C181.713 726.425 181.279 726.308 180.803 726.308C180.327 726.308 179.893 726.42 179.501 726.644C179.109 726.868 178.796 727.195 178.563 727.624C178.329 728.053 178.213 728.557 178.213 729.136C178.213 729.724 178.329 730.237 178.563 730.676C178.796 731.105 179.109 731.437 179.501 731.67C179.893 731.894 180.327 732.006 180.803 732.006C181.279 732.006 181.713 731.894 182.105 731.67C182.506 731.437 182.823 731.105 183.057 730.676C183.29 730.237 183.407 729.729 183.407 729.15ZM186.372 729.136C186.372 728.352 186.53 727.666 186.848 727.078C187.165 726.481 187.599 726.019 188.15 725.692C188.71 725.365 189.335 725.202 190.026 725.202C190.623 725.202 191.178 725.342 191.692 725.622C192.205 725.893 192.597 726.252 192.868 726.7V722.64H194.156V733H192.868V731.558C192.616 732.015 192.242 732.393 191.748 732.692C191.253 732.981 190.674 733.126 190.012 733.126C189.33 733.126 188.71 732.958 188.15 732.622C187.599 732.286 187.165 731.815 186.848 731.208C186.53 730.601 186.372 729.911 186.372 729.136ZM192.868 729.15C192.868 728.571 192.751 728.067 192.518 727.638C192.284 727.209 191.967 726.882 191.566 726.658C191.174 726.425 190.74 726.308 190.264 726.308C189.788 726.308 189.354 726.42 188.962 726.644C188.57 726.868 188.257 727.195 188.024 727.624C187.79 728.053 187.674 728.557 187.674 729.136C187.674 729.724 187.79 730.237 188.024 730.676C188.257 731.105 188.57 731.437 188.962 731.67C189.354 731.894 189.788 732.006 190.264 732.006C190.74 732.006 191.174 731.894 191.566 731.67C191.967 731.437 192.284 731.105 192.518 730.676C192.751 730.237 192.868 729.729 192.868 729.15ZM201.315 723.242V733H200.041V723.242H201.315ZM212.712 725.188C213.31 725.188 213.842 725.314 214.308 725.566C214.775 725.809 215.144 726.177 215.414 726.672C215.685 727.167 215.82 727.769 215.82 728.478V733H214.56V728.66C214.56 727.895 214.369 727.311 213.986 726.91C213.613 726.499 213.104 726.294 212.46 726.294C211.798 726.294 211.27 726.509 210.878 726.938C210.486 727.358 210.29 727.969 210.29 728.772V733H209.03V728.66C209.03 727.895 208.839 727.311 208.456 726.91C208.083 726.499 207.574 726.294 206.93 726.294C206.268 726.294 205.74 726.509 205.348 726.938C204.956 727.358 204.76 727.969 204.76 728.772V733H203.486V725.328H204.76V726.434C205.012 726.033 205.348 725.725 205.768 725.51C206.198 725.295 206.669 725.188 207.182 725.188C207.826 725.188 208.396 725.333 208.89 725.622C209.385 725.911 209.754 726.336 209.996 726.896C210.211 726.355 210.566 725.935 211.06 725.636C211.555 725.337 212.106 725.188 212.712 725.188ZM217.434 729.136C217.434 728.352 217.593 727.666 217.91 727.078C218.227 726.481 218.661 726.019 219.212 725.692C219.772 725.365 220.393 725.202 221.074 725.202C221.746 725.202 222.329 725.347 222.824 725.636C223.319 725.925 223.687 726.289 223.93 726.728V725.328H225.218V733H223.93V731.572C223.678 732.02 223.3 732.393 222.796 732.692C222.301 732.981 221.723 733.126 221.06 733.126C220.379 733.126 219.763 732.958 219.212 732.622C218.661 732.286 218.227 731.815 217.91 731.208C217.593 730.601 217.434 729.911 217.434 729.136ZM223.93 729.15C223.93 728.571 223.813 728.067 223.58 727.638C223.347 727.209 223.029 726.882 222.628 726.658C222.236 726.425 221.802 726.308 221.326 726.308C220.85 726.308 220.416 726.42 220.024 726.644C219.632 726.868 219.319 727.195 219.086 727.624C218.853 728.053 218.736 728.557 218.736 729.136C218.736 729.724 218.853 730.237 219.086 730.676C219.319 731.105 219.632 731.437 220.024 731.67C220.416 731.894 220.85 732.006 221.326 732.006C221.802 732.006 222.236 731.894 222.628 731.67C223.029 731.437 223.347 731.105 223.58 730.676C223.813 730.237 223.93 729.729 223.93 729.15ZM230.535 725.202C231.198 725.202 231.776 725.347 232.271 725.636C232.775 725.925 233.148 726.289 233.391 726.728V725.328H234.679V733.168C234.679 733.868 234.53 734.489 234.231 735.03C233.932 735.581 233.503 736.01 232.943 736.318C232.392 736.626 231.748 736.78 231.011 736.78C230.003 736.78 229.163 736.542 228.491 736.066C227.819 735.59 227.422 734.941 227.301 734.12H228.561C228.701 734.587 228.99 734.96 229.429 735.24C229.868 735.529 230.395 735.674 231.011 735.674C231.711 735.674 232.28 735.455 232.719 735.016C233.167 734.577 233.391 733.961 233.391 733.168V731.558C233.139 732.006 232.766 732.379 232.271 732.678C231.776 732.977 231.198 733.126 230.535 733.126C229.854 733.126 229.233 732.958 228.673 732.622C228.122 732.286 227.688 731.815 227.371 731.208C227.054 730.601 226.895 729.911 226.895 729.136C226.895 728.352 227.054 727.666 227.371 727.078C227.688 726.481 228.122 726.019 228.673 725.692C229.233 725.365 229.854 725.202 230.535 725.202ZM233.391 729.15C233.391 728.571 233.274 728.067 233.041 727.638C232.808 727.209 232.49 726.882 232.089 726.658C231.697 726.425 231.263 726.308 230.787 726.308C230.311 726.308 229.877 726.42 229.485 726.644C229.093 726.868 228.78 727.195 228.547 727.624C228.314 728.053 228.197 728.557 228.197 729.136C228.197 729.724 228.314 730.237 228.547 730.676C228.78 731.105 229.093 731.437 229.485 731.67C229.877 731.894 230.311 732.006 230.787 732.006C231.263 732.006 231.697 731.894 232.089 731.67C232.49 731.437 232.808 731.105 233.041 730.676C233.274 730.237 233.391 729.729 233.391 729.15ZM243.832 728.87C243.832 729.113 243.818 729.369 243.79 729.64H237.658C237.705 730.396 237.961 730.989 238.428 731.418C238.904 731.838 239.478 732.048 240.15 732.048C240.701 732.048 241.158 731.922 241.522 731.67C241.895 731.409 242.157 731.063 242.306 730.634H243.678C243.473 731.371 243.062 731.973 242.446 732.44C241.83 732.897 241.065 733.126 240.15 733.126C239.422 733.126 238.769 732.963 238.19 732.636C237.621 732.309 237.173 731.847 236.846 731.25C236.519 730.643 236.356 729.943 236.356 729.15C236.356 728.357 236.515 727.661 236.832 727.064C237.149 726.467 237.593 726.009 238.162 725.692C238.741 725.365 239.403 725.202 240.15 725.202C240.878 725.202 241.522 725.361 242.082 725.678C242.642 725.995 243.071 726.434 243.37 726.994C243.678 727.545 243.832 728.17 243.832 728.87ZM242.516 728.604C242.516 728.119 242.409 727.703 242.194 727.358C241.979 727.003 241.685 726.737 241.312 726.56C240.948 726.373 240.542 726.28 240.094 726.28C239.45 726.28 238.899 726.485 238.442 726.896C237.994 727.307 237.737 727.876 237.672 728.604H242.516Z" fill="#00C6E8"/>
<circle cx="195" cy="282" r="125" fill="#05A6C3"/>
<g filter="url(#filter0_f_61_1843)">
<circle cx="195" cy="282" r="125" fill="#05A6C3"/>
<circle cx="195" cy="282" r="122.5" stroke="#FFF02C" stroke-width="5"/>
</g>
<rect x="135" y="468" width="120" height="40" rx="20" fill="#FFF02C"/>
<path d="M175.102 493.098C174.458 493.098 173.879 492.986 173.366 492.762C172.862 492.529 172.465 492.211 172.176 491.81C171.886 491.399 171.737 490.928 171.728 490.396H173.086C173.132 490.853 173.319 491.241 173.646 491.558C173.982 491.866 174.467 492.02 175.102 492.02C175.708 492.02 176.184 491.871 176.53 491.572C176.884 491.264 177.062 490.872 177.062 490.396C177.062 490.023 176.959 489.719 176.754 489.486C176.548 489.253 176.292 489.075 175.984 488.954C175.676 488.833 175.26 488.702 174.738 488.562C174.094 488.394 173.576 488.226 173.184 488.058C172.801 487.89 172.47 487.629 172.19 487.274C171.919 486.91 171.784 486.425 171.784 485.818C171.784 485.286 171.919 484.815 172.19 484.404C172.46 483.993 172.838 483.676 173.324 483.452C173.818 483.228 174.383 483.116 175.018 483.116C175.932 483.116 176.679 483.345 177.258 483.802C177.846 484.259 178.177 484.866 178.252 485.622H176.852C176.805 485.249 176.609 484.922 176.264 484.642C175.918 484.353 175.461 484.208 174.892 484.208C174.36 484.208 173.926 484.348 173.59 484.628C173.254 484.899 173.086 485.281 173.086 485.776C173.086 486.131 173.184 486.42 173.38 486.644C173.585 486.868 173.832 487.041 174.122 487.162C174.42 487.274 174.836 487.405 175.368 487.554C176.012 487.731 176.53 487.909 176.922 488.086C177.314 488.254 177.65 488.52 177.93 488.884C178.21 489.239 178.35 489.724 178.35 490.34C178.35 490.816 178.224 491.264 177.972 491.684C177.72 492.104 177.346 492.445 176.852 492.706C176.357 492.967 175.774 493.098 175.102 493.098ZM187.224 488.87C187.224 489.113 187.21 489.369 187.182 489.64H181.05C181.097 490.396 181.354 490.989 181.82 491.418C182.296 491.838 182.87 492.048 183.542 492.048C184.093 492.048 184.55 491.922 184.914 491.67C185.288 491.409 185.549 491.063 185.698 490.634H187.07C186.865 491.371 186.454 491.973 185.838 492.44C185.222 492.897 184.457 493.126 183.542 493.126C182.814 493.126 182.161 492.963 181.582 492.636C181.013 492.309 180.565 491.847 180.238 491.25C179.912 490.643 179.748 489.943 179.748 489.15C179.748 488.357 179.907 487.661 180.224 487.064C180.542 486.467 180.985 486.009 181.554 485.692C182.133 485.365 182.796 485.202 183.542 485.202C184.27 485.202 184.914 485.361 185.474 485.678C186.034 485.995 186.464 486.434 186.762 486.994C187.07 487.545 187.224 488.17 187.224 488.87ZM185.908 488.604C185.908 488.119 185.801 487.703 185.586 487.358C185.372 487.003 185.078 486.737 184.704 486.56C184.34 486.373 183.934 486.28 183.486 486.28C182.842 486.28 182.292 486.485 181.834 486.896C181.386 487.307 181.13 487.876 181.064 488.604H185.908ZM195.906 488.87C195.906 489.113 195.892 489.369 195.864 489.64H189.732C189.779 490.396 190.035 490.989 190.502 491.418C190.978 491.838 191.552 492.048 192.224 492.048C192.775 492.048 193.232 491.922 193.596 491.67C193.969 491.409 194.231 491.063 194.38 490.634H195.752C195.547 491.371 195.136 491.973 194.52 492.44C193.904 492.897 193.139 493.126 192.224 493.126C191.496 493.126 190.843 492.963 190.264 492.636C189.695 492.309 189.247 491.847 188.92 491.25C188.593 490.643 188.43 489.943 188.43 489.15C188.43 488.357 188.589 487.661 188.906 487.064C189.223 486.467 189.667 486.009 190.236 485.692C190.815 485.365 191.477 485.202 192.224 485.202C192.952 485.202 193.596 485.361 194.156 485.678C194.716 485.995 195.145 486.434 195.444 486.994C195.752 487.545 195.906 488.17 195.906 488.87ZM194.59 488.604C194.59 488.119 194.483 487.703 194.268 487.358C194.053 487.003 193.759 486.737 193.386 486.56C193.022 486.373 192.616 486.28 192.168 486.28C191.524 486.28 190.973 486.485 190.516 486.896C190.068 487.307 189.811 487.876 189.746 488.604H194.59ZM206.458 493L204.134 489.01H202.594V493H201.32V483.242H204.47C205.208 483.242 205.828 483.368 206.332 483.62C206.846 483.872 207.228 484.213 207.48 484.642C207.732 485.071 207.858 485.561 207.858 486.112C207.858 486.784 207.662 487.377 207.27 487.89C206.888 488.403 206.309 488.744 205.534 488.912L207.984 493H206.458ZM202.594 487.988H204.47C205.161 487.988 205.679 487.82 206.024 487.484C206.37 487.139 206.542 486.681 206.542 486.112C206.542 485.533 206.37 485.085 206.024 484.768C205.688 484.451 205.17 484.292 204.47 484.292H202.594V487.988ZM216.838 488.87C216.838 489.113 216.824 489.369 216.796 489.64H210.664C210.71 490.396 210.967 490.989 211.434 491.418C211.91 491.838 212.484 492.048 213.156 492.048C213.706 492.048 214.164 491.922 214.528 491.67C214.901 491.409 215.162 491.063 215.312 490.634H216.684C216.478 491.371 216.068 491.973 215.452 492.44C214.836 492.897 214.07 493.126 213.156 493.126C212.428 493.126 211.774 492.963 211.196 492.636C210.626 492.309 210.178 491.847 209.852 491.25C209.525 490.643 209.362 489.943 209.362 489.15C209.362 488.357 209.52 487.661 209.838 487.064C210.155 486.467 210.598 486.009 211.168 485.692C211.746 485.365 212.409 485.202 213.156 485.202C213.884 485.202 214.528 485.361 215.088 485.678C215.648 485.995 216.077 486.434 216.376 486.994C216.684 487.545 216.838 488.17 216.838 488.87ZM215.522 488.604C215.522 488.119 215.414 487.703 215.2 487.358C214.985 487.003 214.691 486.737 214.318 486.56C213.954 486.373 213.548 486.28 213.1 486.28C212.456 486.28 211.905 486.485 211.448 486.896C211 487.307 210.743 487.876 210.678 488.604H215.522ZM221.235 493.126C220.647 493.126 220.12 493.028 219.653 492.832C219.187 492.627 218.818 492.347 218.547 491.992C218.277 491.628 218.127 491.213 218.099 490.746H219.415C219.453 491.129 219.63 491.441 219.947 491.684C220.274 491.927 220.699 492.048 221.221 492.048C221.707 492.048 222.089 491.941 222.369 491.726C222.649 491.511 222.789 491.241 222.789 490.914C222.789 490.578 222.64 490.331 222.341 490.172C222.043 490.004 221.581 489.841 220.955 489.682C220.386 489.533 219.919 489.383 219.555 489.234C219.201 489.075 218.893 488.847 218.631 488.548C218.379 488.24 218.253 487.839 218.253 487.344C218.253 486.952 218.37 486.593 218.603 486.266C218.837 485.939 219.168 485.683 219.597 485.496C220.027 485.3 220.517 485.202 221.067 485.202C221.917 485.202 222.603 485.417 223.125 485.846C223.648 486.275 223.928 486.863 223.965 487.61H222.691C222.663 487.209 222.5 486.887 222.201 486.644C221.912 486.401 221.52 486.28 221.025 486.28C220.568 486.28 220.204 486.378 219.933 486.574C219.663 486.77 219.527 487.027 219.527 487.344C219.527 487.596 219.607 487.806 219.765 487.974C219.933 488.133 220.139 488.263 220.381 488.366C220.633 488.459 220.979 488.567 221.417 488.688C221.968 488.837 222.416 488.987 222.761 489.136C223.107 489.276 223.401 489.491 223.643 489.78C223.895 490.069 224.026 490.447 224.035 490.914C224.035 491.334 223.919 491.712 223.685 492.048C223.452 492.384 223.121 492.65 222.691 492.846C222.271 493.033 221.786 493.126 221.235 493.126ZM232.638 485.328V493H231.364V491.866C231.121 492.258 230.781 492.566 230.342 492.79C229.913 493.005 229.437 493.112 228.914 493.112C228.317 493.112 227.78 492.991 227.304 492.748C226.828 492.496 226.45 492.123 226.17 491.628C225.899 491.133 225.764 490.531 225.764 489.822V485.328H227.024V489.654C227.024 490.41 227.215 490.993 227.598 491.404C227.981 491.805 228.503 492.006 229.166 492.006C229.847 492.006 230.384 491.796 230.776 491.376C231.168 490.956 231.364 490.345 231.364 489.542V485.328H232.638ZM236.063 482.64V493H234.789V482.64H236.063ZM239.788 486.378V490.9C239.788 491.273 239.868 491.539 240.026 491.698C240.185 491.847 240.46 491.922 240.852 491.922H241.79V493H240.642C239.933 493 239.401 492.837 239.046 492.51C238.692 492.183 238.514 491.647 238.514 490.9V486.378H237.52V485.328H238.514V483.396H239.788V485.328H241.79V486.378H239.788Z" fill="white"/>
<path d="M136.492 266.1C140.158 266.1 143.375 266.817 146.142 268.25C148.942 269.683 151.092 271.733 152.592 274.4C154.125 277.033 154.892 280.1 154.892 283.6C154.892 287.1 154.125 290.167 152.592 292.8C151.092 295.4 148.942 297.417 146.142 298.85C143.375 300.283 140.158 301 136.492 301H124.292V266.1H136.492ZM136.242 295.05C139.908 295.05 142.742 294.05 144.742 292.05C146.742 290.05 147.742 287.233 147.742 283.6C147.742 279.967 146.742 277.133 144.742 275.1C142.742 273.033 139.908 272 136.242 272H131.292V295.05H136.242ZM172.432 301.45C169.765 301.45 167.365 300.867 165.232 299.7C163.098 298.5 161.415 296.817 160.182 294.65C158.982 292.483 158.382 289.983 158.382 287.15C158.382 284.317 158.998 281.817 160.232 279.65C161.498 277.483 163.215 275.817 165.382 274.65C167.548 273.45 169.965 272.85 172.632 272.85C175.298 272.85 177.715 273.45 179.882 274.65C182.048 275.817 183.748 277.483 184.982 279.65C186.248 281.817 186.882 284.317 186.882 287.15C186.882 289.983 186.232 292.483 184.932 294.65C183.665 296.817 181.932 298.5 179.732 299.7C177.565 300.867 175.132 301.45 172.432 301.45ZM172.432 295.35C173.698 295.35 174.882 295.05 175.982 294.45C177.115 293.817 178.015 292.883 178.682 291.65C179.348 290.417 179.682 288.917 179.682 287.15C179.682 284.517 178.982 282.5 177.582 281.1C176.215 279.667 174.532 278.95 172.532 278.95C170.532 278.95 168.848 279.667 167.482 281.1C166.148 282.5 165.482 284.517 165.482 287.15C165.482 289.783 166.132 291.817 167.432 293.25C168.765 294.65 170.432 295.35 172.432 295.35ZM207.366 272.9C210.666 272.9 213.333 273.95 215.366 276.05C217.4 278.117 218.416 281.017 218.416 284.75V301H211.416V285.7C211.416 283.5 210.866 281.817 209.766 280.65C208.666 279.45 207.166 278.85 205.266 278.85C203.333 278.85 201.8 279.45 200.666 280.65C199.566 281.817 199.016 283.5 199.016 285.7V301H192.016V273.3H199.016V276.75C199.95 275.55 201.133 274.617 202.566 273.95C204.033 273.25 205.633 272.9 207.366 272.9ZM250.823 286.55C250.823 287.55 250.756 288.45 250.623 289.25H230.373C230.54 291.25 231.24 292.817 232.473 293.95C233.706 295.083 235.223 295.65 237.023 295.65C239.623 295.65 241.473 294.533 242.573 292.3H250.123C249.323 294.967 247.79 297.167 245.523 298.9C243.256 300.6 240.473 301.45 237.173 301.45C234.506 301.45 232.106 300.867 229.973 299.7C227.873 298.5 226.223 296.817 225.023 294.65C223.856 292.483 223.273 289.983 223.273 287.15C223.273 284.283 223.856 281.767 225.023 279.6C226.19 277.433 227.823 275.767 229.923 274.6C232.023 273.433 234.44 272.85 237.173 272.85C239.806 272.85 242.156 273.417 244.223 274.55C246.323 275.683 247.94 277.3 249.073 279.4C250.24 281.467 250.823 283.85 250.823 286.55ZM243.573 284.55C243.54 282.75 242.89 281.317 241.623 280.25C240.356 279.15 238.806 278.6 236.973 278.6C235.24 278.6 233.773 279.133 232.573 280.2C231.406 281.233 230.69 282.683 230.423 284.55H243.573ZM264.982 265.5L264.182 289.65H258.282L257.432 265.5H264.982ZM261.382 301.35C260.116 301.35 259.066 300.967 258.232 300.2C257.432 299.4 257.032 298.417 257.032 297.25C257.032 296.083 257.432 295.117 258.232 294.35C259.066 293.55 260.116 293.15 261.382 293.15C262.616 293.15 263.632 293.55 264.432 294.35C265.232 295.117 265.632 296.083 265.632 297.25C265.632 298.417 265.232 299.4 264.432 300.2C263.632 300.967 262.616 301.35 261.382 301.35Z" fill="white"/>
<g clip-path="url(#clip1_61_1843)">
<path d="M147.167 489H158.833" stroke="white" stroke-width="2" stroke-linecap="round" stroke-linejoin="round"/>
<path d="M153 483.166L158.833 489L153 494.833" stroke="white" stroke-width="2" stroke-linecap="round" stroke-linejoin="round"/>
</g>
<path d="M347.608 86.8674C347.363 86.8675 347.12 86.8193 346.893 86.7255C346.666 86.6317 346.46 86.4942 346.287 86.3208C346.113 86.1474 345.976 85.9415 345.882 85.715C345.788 85.4884 345.74 85.2455 345.74 85.0002C345.739 84.755 345.788 84.5121 345.881 84.2854C345.975 84.0588 346.113 83.8528 346.286 83.6793C346.46 83.5058 346.665 83.3682 346.892 83.2742C347.119 83.1803 347.361 83.1319 347.607 83.1318C348.102 83.1317 348.577 83.3283 348.928 83.6785C349.278 84.0286 349.475 84.5037 349.475 84.999C349.475 85.4944 349.279 85.9696 348.928 86.3199C348.578 86.6703 348.103 86.8673 347.608 86.8674Z" fill="white"/>
<path d="M341.198 86.8672C342.229 86.8672 343.065 86.0312 343.065 85C343.065 83.9688 342.229 83.1328 341.198 83.1328C340.166 83.1328 339.33 83.9688 339.33 85C339.33 86.0312 340.166 86.8672 341.198 86.8672Z" fill="white"/>
<path d="M334.786 86.8672C335.817 86.8672 336.653 86.0312 336.653 85C336.653 83.9688 335.817 83.1328 334.786 83.1328C333.755 83.1328 332.919 83.9688 332.919 85C332.919 86.0312 333.755 86.8672 334.786 86.8672Z" fill="white"/>
<defs>
<filter id="filter0_f_61_1843" x="66" y="153" width="258" height="258" filterUnits="userSpaceOnUse" color-interpolation-filters="sRGB">
<feFlood flood-opacity="0" result="BackgroundImageFix"/>
<feBlend mode="normal" in="SourceGraphic" in2="BackgroundImageFix" result="shape"/>
<feGaussianBlur stdDeviation="2" result="effect1_foregroundBlur_61_1843"/>
</filter>
<clipPath id="clip0_61_1843">
<rect width="24" height="24" fill="white" transform="translate(38 73)"/>
</clipPath>
<clipPath id="clip1_61_1843">
<rect width="20" height="20" fill="white" transform="matrix(-1 0 0 -1 163 499)"/>
</clipPath>
</defs>
</svg>
