<svg width="390" height="841" viewBox="0 0 390 841" fill="none" xmlns="http://www.w3.org/2000/svg">
<rect y="7" width="390" height="834" fill="#00C6E8"/>
<path opacity="0.5" d="M370.24 35.2861V39.3406C371.077 38.9972 371.621 38.1984 371.621 37.3134C371.621 36.4283 371.077 35.6295 370.24 35.2861Z" fill="white"/>
<path d="M351.52 34.93C351.52 34.1936 352.117 33.5967 352.853 33.5967H368.907C369.643 33.5967 370.24 34.1936 370.24 34.93V39.6965C370.24 40.4329 369.643 41.0298 368.907 41.0298H352.853C352.117 41.0298 351.52 40.4329 351.52 39.6965V34.93Z" fill="white"/>
<path fill-rule="evenodd" clip-rule="evenodd" d="M336.264 33.8747C338.568 33.8748 340.785 34.7379 342.455 36.2854C342.58 36.4049 342.782 36.4034 342.905 36.2821L344.108 35.0995C344.17 35.038 344.205 34.9546 344.205 34.8679C344.204 34.7811 344.168 34.6981 344.105 34.6373C339.721 30.5428 332.805 30.5428 328.422 34.6373C328.358 34.6981 328.322 34.781 328.322 34.8678C328.321 34.9545 328.356 35.0379 328.419 35.0995L329.621 36.2821C329.745 36.4036 329.946 36.4051 330.072 36.2854C331.742 34.7378 333.959 33.8747 336.264 33.8747ZM336.264 37.7221C337.53 37.722 338.751 38.1807 339.689 39.009C339.816 39.1266 340.016 39.124 340.14 39.0033L341.341 37.8207C341.404 37.7587 341.439 37.6746 341.438 37.5871C341.437 37.4997 341.401 37.4162 341.336 37.3555C338.478 34.7643 334.052 34.7643 331.194 37.3555C331.129 37.4162 331.092 37.4997 331.091 37.5872C331.091 37.6747 331.126 37.7588 331.189 37.8207L332.39 39.0033C332.513 39.124 332.713 39.1266 332.84 39.009C333.778 38.1812 334.998 37.7226 336.264 37.7221ZM338.669 40.3107C338.671 40.3983 338.636 40.4829 338.571 40.5443L336.494 42.5874C336.433 42.6475 336.35 42.6813 336.264 42.6813C336.177 42.6813 336.094 42.6475 336.033 42.5874L333.956 40.5443C333.891 40.4828 333.856 40.3983 333.858 40.3106C333.86 40.2229 333.899 40.1399 333.966 40.0811C335.292 38.9875 337.235 38.9875 338.562 40.0811C338.628 40.1399 338.667 40.223 338.669 40.3107Z" fill="white"/>
<path fill-rule="evenodd" clip-rule="evenodd" d="M322.053 31.9072H321.013C320.439 31.9072 319.973 32.361 319.973 32.9208V41.7055C319.973 42.2653 320.439 42.7191 321.013 42.7191H322.053C322.628 42.7191 323.093 42.2653 323.093 41.7055V32.9208C323.093 32.361 322.628 31.9072 322.053 31.9072ZM316.16 34.2723H317.2C317.774 34.2723 318.24 34.7261 318.24 35.2859V41.7055C318.24 42.2653 317.774 42.7191 317.2 42.7191H316.16C315.586 42.7191 315.12 42.2653 315.12 41.7055V35.2859C315.12 34.7261 315.586 34.2723 316.16 34.2723ZM312.347 36.6374H311.307C310.732 36.6374 310.267 37.0912 310.267 37.651V41.7055C310.267 42.2653 310.732 42.7191 311.307 42.7191H312.347C312.921 42.7191 313.387 42.2653 313.387 41.7055V37.651C313.387 37.0912 312.921 36.6374 312.347 36.6374ZM307.493 38.6647H306.453C305.879 38.6647 305.413 39.1185 305.413 39.6783V41.7055C305.413 42.2653 305.879 42.7191 306.453 42.7191H307.493C308.068 42.7191 308.533 42.2653 308.533 41.7055V39.6783C308.533 39.1185 308.068 38.6647 307.493 38.6647Z" fill="white"/>
<path d="M39.314 35.9804C39.464 36.7704 39.924 37.1654 40.694 37.1654C41.224 37.1654 41.599 36.9304 41.819 36.4604C42.039 35.9904 42.149 35.2254 42.149 34.1654C41.929 34.4754 41.629 34.7154 41.249 34.8854C40.869 35.0554 40.444 35.1404 39.974 35.1404C39.334 35.1404 38.764 35.0104 38.264 34.7504C37.764 34.4804 37.369 34.0854 37.079 33.5654C36.799 33.0354 36.659 32.3954 36.659 31.6454C36.659 30.9054 36.809 30.2604 37.109 29.7104C37.419 29.1604 37.854 28.7354 38.414 28.4354C38.984 28.1354 39.654 27.9854 40.424 27.9854C41.904 27.9854 42.939 28.4454 43.529 29.3654C44.119 30.2854 44.414 31.6404 44.414 33.4304C44.414 34.7304 44.294 35.8054 44.054 36.6554C43.824 37.4954 43.429 38.1354 42.869 38.5754C42.319 39.0154 41.564 39.2354 40.604 39.2354C39.844 39.2354 39.194 39.0854 38.654 38.7854C38.124 38.4854 37.714 38.0904 37.424 37.6004C37.144 37.1104 36.984 36.5704 36.944 35.9804H39.314ZM40.559 33.1154C40.979 33.1154 41.314 32.9904 41.564 32.7404C41.814 32.4804 41.939 32.1304 41.939 31.6904C41.939 31.2104 41.809 30.8404 41.549 30.5804C41.289 30.3204 40.939 30.1904 40.499 30.1904C40.059 30.1904 39.709 30.3254 39.449 30.5954C39.199 30.8554 39.074 31.2154 39.074 31.6754C39.074 32.1054 39.199 32.4554 39.449 32.7254C39.709 32.9854 40.079 33.1154 40.559 33.1154ZM46.9375 39.3104C46.4875 39.3104 46.1175 39.1804 45.8275 38.9204C45.5475 38.6504 45.4075 38.3204 45.4075 37.9304C45.4075 37.5304 45.5475 37.1954 45.8275 36.9254C46.1175 36.6554 46.4875 36.5204 46.9375 36.5204C47.3775 36.5204 47.7375 36.6554 48.0175 36.9254C48.3075 37.1954 48.4525 37.5304 48.4525 37.9304C48.4525 38.3204 48.3075 38.6504 48.0175 38.9204C47.7375 39.1804 47.3775 39.3104 46.9375 39.3104ZM46.9375 33.2054C46.4875 33.2054 46.1175 33.0754 45.8275 32.8154C45.5475 32.5454 45.4075 32.2154 45.4075 31.8254C45.4075 31.4254 45.5475 31.0904 45.8275 30.8204C46.1175 30.5504 46.4875 30.4154 46.9375 30.4154C47.3775 30.4154 47.7375 30.5504 48.0175 30.8204C48.3075 31.0904 48.4525 31.4254 48.4525 31.8254C48.4525 32.2154 48.3075 32.5454 48.0175 32.8154C47.7375 33.0754 47.3775 33.2054 46.9375 33.2054ZM49.5052 37.2404V35.1704L54.2452 28.3904H57.1102V35.0204H58.3402V37.2404H57.1102V39.1904H54.5452V37.2404H49.5052ZM54.7252 31.2104L52.2052 35.0204H54.7252V31.2104ZM59.0266 30.6254V28.2404H63.1816V39.1904H60.5116V30.6254H59.0266Z" fill="white"/>
<path d="M85.7037 468.34H80.1437L79.2237 471H76.2837L81.3037 457.02H84.5637L89.5837 471H86.6237L85.7037 468.34ZM84.9437 466.1L82.9237 460.26L80.9037 466.1H84.9437ZM97.6001 459.76C98.9201 459.76 99.9867 460.18 100.8 461.02C101.613 461.847 102.02 463.007 102.02 464.5V471H99.2201V464.88C99.2201 464 99.0001 463.327 98.5601 462.86C98.1201 462.38 97.5201 462.14 96.7601 462.14C95.9867 462.14 95.3734 462.38 94.9201 462.86C94.4801 463.327 94.2601 464 94.2601 464.88V471H91.4601V459.92H94.2601V461.3C94.6334 460.82 95.1067 460.447 95.6801 460.18C96.2667 459.9 96.9067 459.76 97.6001 459.76ZM103.963 465.42C103.963 464.3 104.183 463.307 104.623 462.44C105.076 461.573 105.683 460.907 106.443 460.44C107.216 459.973 108.076 459.74 109.023 459.74C109.849 459.74 110.569 459.907 111.183 460.24C111.809 460.573 112.309 460.993 112.683 461.5V459.92H115.503V471H112.683V469.38C112.323 469.9 111.823 470.333 111.183 470.68C110.556 471.013 109.829 471.18 109.003 471.18C108.069 471.18 107.216 470.94 106.443 470.46C105.683 469.98 105.076 469.307 104.623 468.44C104.183 467.56 103.963 466.553 103.963 465.42ZM112.683 465.46C112.683 464.78 112.549 464.2 112.283 463.72C112.016 463.227 111.656 462.853 111.203 462.6C110.749 462.333 110.263 462.2 109.743 462.2C109.223 462.2 108.743 462.327 108.303 462.58C107.863 462.833 107.503 463.207 107.223 463.7C106.956 464.18 106.823 464.753 106.823 465.42C106.823 466.087 106.956 466.673 107.223 467.18C107.503 467.673 107.863 468.053 108.303 468.32C108.756 468.587 109.236 468.72 109.743 468.72C110.263 468.72 110.749 468.593 111.203 468.34C111.656 468.073 112.016 467.7 112.283 467.22C112.549 466.727 112.683 466.14 112.683 465.46ZM121.037 456.2V471H118.237V456.2H121.037ZM134.404 459.92L127.544 476.24H124.564L126.964 470.72L122.524 459.92H125.664L128.524 467.66L131.424 459.92H134.404ZM138.473 468.7H143.413V471H135.293V468.74L140.133 462.22H135.313V459.92H143.353V462.18L138.473 468.7ZM147.001 458.6C146.508 458.6 146.095 458.447 145.761 458.14C145.441 457.82 145.281 457.427 145.281 456.96C145.281 456.493 145.441 456.107 145.761 455.8C146.095 455.48 146.508 455.32 147.001 455.32C147.495 455.32 147.901 455.48 148.221 455.8C148.555 456.107 148.721 456.493 148.721 456.96C148.721 457.427 148.555 457.82 148.221 458.14C147.901 458.447 147.495 458.6 147.001 458.6ZM148.381 459.92V471H145.581V459.92H148.381ZM157.288 459.76C158.608 459.76 159.674 460.18 160.488 461.02C161.301 461.847 161.708 463.007 161.708 464.5V471H158.908V464.88C158.908 464 158.688 463.327 158.248 462.86C157.808 462.38 157.208 462.14 156.448 462.14C155.674 462.14 155.061 462.38 154.608 462.86C154.168 463.327 153.948 464 153.948 464.88V471H151.148V459.92H153.948V461.3C154.321 460.82 154.794 460.447 155.368 460.18C155.954 459.9 156.594 459.76 157.288 459.76ZM168.71 459.74C169.537 459.74 170.264 459.907 170.89 460.24C171.517 460.56 172.01 460.98 172.37 461.5V459.92H175.19V471.08C175.19 472.107 174.984 473.02 174.57 473.82C174.157 474.633 173.537 475.273 172.71 475.74C171.884 476.22 170.884 476.46 169.71 476.46C168.137 476.46 166.844 476.093 165.83 475.36C164.83 474.627 164.264 473.627 164.13 472.36H166.91C167.057 472.867 167.37 473.267 167.85 473.56C168.344 473.867 168.937 474.02 169.63 474.02C170.444 474.02 171.104 473.773 171.61 473.28C172.117 472.8 172.37 472.067 172.37 471.08V469.36C172.01 469.88 171.51 470.313 170.87 470.66C170.244 471.007 169.524 471.18 168.71 471.18C167.777 471.18 166.924 470.94 166.15 470.46C165.377 469.98 164.764 469.307 164.31 468.44C163.87 467.56 163.65 466.553 163.65 465.42C163.65 464.3 163.87 463.307 164.31 462.44C164.764 461.573 165.37 460.907 166.13 460.44C166.904 459.973 167.764 459.74 168.71 459.74ZM172.37 465.46C172.37 464.78 172.237 464.2 171.97 463.72C171.704 463.227 171.344 462.853 170.89 462.6C170.437 462.333 169.95 462.2 169.43 462.2C168.91 462.2 168.43 462.327 167.99 462.58C167.55 462.833 167.19 463.207 166.91 463.7C166.644 464.18 166.51 464.753 166.51 465.42C166.51 466.087 166.644 466.673 166.91 467.18C167.19 467.673 167.55 468.053 167.99 468.32C168.444 468.587 168.924 468.72 169.43 468.72C169.95 468.72 170.437 468.593 170.89 468.34C171.344 468.073 171.704 467.7 171.97 467.22C172.237 466.727 172.37 466.14 172.37 465.46ZM185.951 462.22V467.58C185.951 467.953 186.037 468.227 186.211 468.4C186.397 468.56 186.704 468.64 187.131 468.64H188.431V471H186.671C184.311 471 183.131 469.853 183.131 467.56V462.22H181.811V459.92H183.131V457.18H185.951V459.92H188.431V462.22H185.951ZM200.744 465.22C200.744 465.62 200.718 465.98 200.664 466.3H192.564C192.631 467.1 192.911 467.727 193.404 468.18C193.898 468.633 194.504 468.86 195.224 468.86C196.264 468.86 197.004 468.413 197.444 467.52H200.464C200.144 468.587 199.531 469.467 198.624 470.16C197.718 470.84 196.604 471.18 195.284 471.18C194.218 471.18 193.258 470.947 192.404 470.48C191.564 470 190.904 469.327 190.424 468.46C189.958 467.593 189.724 466.593 189.724 465.46C189.724 464.313 189.958 463.307 190.424 462.44C190.891 461.573 191.544 460.907 192.384 460.44C193.224 459.973 194.191 459.74 195.284 459.74C196.338 459.74 197.278 459.967 198.104 460.42C198.944 460.873 199.591 461.52 200.044 462.36C200.511 463.187 200.744 464.14 200.744 465.22ZM197.844 464.42C197.831 463.7 197.571 463.127 197.064 462.7C196.558 462.26 195.938 462.04 195.204 462.04C194.511 462.04 193.924 462.253 193.444 462.68C192.978 463.093 192.691 463.673 192.584 464.42H197.844ZM208.908 471L206.628 467.56L204.608 471H201.608L205.228 465.44L201.568 459.92H204.728L206.988 463.34L209.028 459.92H212.028L208.388 465.44L212.068 471H208.908ZM216.849 462.22V467.58C216.849 467.953 216.936 468.227 217.109 468.4C217.296 468.56 217.602 468.64 218.029 468.64H219.329V471H217.569C215.209 471 214.029 469.853 214.029 467.56V462.22H212.709V459.92H214.029V457.18H216.849V459.92H219.329V462.22H216.849ZM228.909 456.2V471H226.109V456.2H228.909ZM230.955 465.42C230.955 464.3 231.175 463.307 231.615 462.44C232.068 461.573 232.675 460.907 233.435 460.44C234.208 459.973 235.068 459.74 236.015 459.74C236.842 459.74 237.562 459.907 238.175 460.24C238.802 460.573 239.302 460.993 239.675 461.5V459.92H242.495V471H239.675V469.38C239.315 469.9 238.815 470.333 238.175 470.68C237.548 471.013 236.822 471.18 235.995 471.18C235.062 471.18 234.208 470.94 233.435 470.46C232.675 469.98 232.068 469.307 231.615 468.44C231.175 467.56 230.955 466.553 230.955 465.42ZM239.675 465.46C239.675 464.78 239.542 464.2 239.275 463.72C239.008 463.227 238.648 462.853 238.195 462.6C237.742 462.333 237.255 462.2 236.735 462.2C236.215 462.2 235.735 462.327 235.295 462.58C234.855 462.833 234.495 463.207 234.215 463.7C233.948 464.18 233.815 464.753 233.815 465.42C233.815 466.087 233.948 466.673 234.215 467.18C234.495 467.673 234.855 468.053 235.295 468.32C235.748 468.587 236.228 468.72 236.735 468.72C237.255 468.72 237.742 468.593 238.195 468.34C238.648 468.073 239.008 467.7 239.275 467.22C239.542 466.727 239.675 466.14 239.675 465.46ZM255.83 459.92L248.97 476.24H245.99L248.39 470.72L243.95 459.92H247.09L249.95 467.66L252.85 459.92H255.83ZM262.259 471.18C261.192 471.18 260.232 470.947 259.379 470.48C258.526 470 257.852 469.327 257.359 468.46C256.879 467.593 256.639 466.593 256.639 465.46C256.639 464.327 256.886 463.327 257.379 462.46C257.886 461.593 258.572 460.927 259.439 460.46C260.306 459.98 261.272 459.74 262.339 459.74C263.406 459.74 264.372 459.98 265.239 460.46C266.106 460.927 266.786 461.593 267.279 462.46C267.786 463.327 268.039 464.327 268.039 465.46C268.039 466.593 267.779 467.593 267.259 468.46C266.752 469.327 266.059 470 265.179 470.48C264.312 470.947 263.339 471.18 262.259 471.18ZM262.259 468.74C262.766 468.74 263.239 468.62 263.679 468.38C264.132 468.127 264.492 467.753 264.759 467.26C265.026 466.767 265.159 466.167 265.159 465.46C265.159 464.407 264.879 463.6 264.319 463.04C263.772 462.467 263.099 462.18 262.299 462.18C261.499 462.18 260.826 462.467 260.279 463.04C259.746 463.6 259.479 464.407 259.479 465.46C259.479 466.513 259.739 467.327 260.259 467.9C260.792 468.46 261.459 468.74 262.259 468.74ZM280.553 459.92V471H277.733V469.6C277.373 470.08 276.9 470.46 276.313 470.74C275.74 471.007 275.113 471.14 274.433 471.14C273.566 471.14 272.8 470.96 272.133 470.6C271.466 470.227 270.94 469.687 270.553 468.98C270.18 468.26 269.993 467.407 269.993 466.42V459.92H272.793V466.02C272.793 466.9 273.013 467.58 273.453 468.06C273.893 468.527 274.493 468.76 275.253 468.76C276.026 468.76 276.633 468.527 277.073 468.06C277.513 467.58 277.733 466.9 277.733 466.02V459.92H280.553ZM286.576 462.22V467.58C286.576 467.953 286.662 468.227 286.836 468.4C287.022 468.56 287.329 468.64 287.756 468.64H289.056V471H287.296C284.936 471 283.756 469.853 283.756 467.56V462.22H282.436V459.92H283.756V457.18H286.576V459.92H289.056V462.22H286.576ZM297.075 471.14C296.568 471.14 296.148 470.987 295.815 470.68C295.495 470.36 295.335 469.967 295.335 469.5C295.335 469.033 295.495 468.647 295.815 468.34C296.148 468.02 296.568 467.86 297.075 467.86C297.568 467.86 297.975 468.02 298.295 468.34C298.615 468.647 298.775 469.033 298.775 469.5C298.775 469.967 298.615 470.36 298.295 470.68C297.975 470.987 297.568 471.14 297.075 471.14ZM302.27 471.14C301.764 471.14 301.344 470.987 301.01 470.68C300.69 470.36 300.53 469.967 300.53 469.5C300.53 469.033 300.69 468.647 301.01 468.34C301.344 468.02 301.764 467.86 302.27 467.86C302.764 467.86 303.17 468.02 303.49 468.34C303.81 468.647 303.97 469.033 303.97 469.5C303.97 469.967 303.81 470.36 303.49 470.68C303.17 470.987 302.764 471.14 302.27 471.14ZM307.466 471.14C306.959 471.14 306.539 470.987 306.206 470.68C305.886 470.36 305.726 469.967 305.726 469.5C305.726 469.033 305.886 468.647 306.206 468.34C306.539 468.02 306.959 467.86 307.466 467.86C307.959 467.86 308.366 468.02 308.686 468.34C309.006 468.647 309.166 469.033 309.166 469.5C309.166 469.967 309.006 470.36 308.686 470.68C308.366 470.987 307.959 471.14 307.466 471.14ZM312.661 471.14C312.154 471.14 311.734 470.987 311.401 470.68C311.081 470.36 310.921 469.967 310.921 469.5C310.921 469.033 311.081 468.647 311.401 468.34C311.734 468.02 312.154 467.86 312.661 467.86C313.154 467.86 313.561 468.02 313.881 468.34C314.201 468.647 314.361 469.033 314.361 469.5C314.361 469.967 314.201 470.36 313.881 470.68C313.561 470.987 313.154 471.14 312.661 471.14Z" fill="white"/>
<g clip-path="url(#clip0_61_1730)">
<path d="M57 85H43" stroke="white" stroke-width="2" stroke-linecap="round" stroke-linejoin="round"/>
<path d="M50 92L43 85L50 78" stroke="white" stroke-width="2" stroke-linecap="round" stroke-linejoin="round"/>
</g>
<line x1="128.5" y1="824.5" x2="261.5" y2="824.5" stroke="black" stroke-width="5" stroke-linecap="round"/>
<path d="M147.324 723.242V729.416C147.324 730.284 147.534 730.928 147.954 731.348C148.383 731.768 148.976 731.978 149.732 731.978C150.479 731.978 151.062 731.768 151.482 731.348C151.911 730.928 152.126 730.284 152.126 729.416V723.242H153.4V729.402C153.4 730.214 153.237 730.9 152.91 731.46C152.583 732.011 152.14 732.421 151.58 732.692C151.029 732.963 150.409 733.098 149.718 733.098C149.027 733.098 148.402 732.963 147.842 732.692C147.291 732.421 146.853 732.011 146.526 731.46C146.209 730.9 146.05 730.214 146.05 729.402V723.242H147.324ZM156.799 726.742C157.051 726.303 157.425 725.939 157.919 725.65C158.423 725.351 159.007 725.202 159.669 725.202C160.351 725.202 160.967 725.365 161.517 725.692C162.077 726.019 162.516 726.481 162.833 727.078C163.151 727.666 163.309 728.352 163.309 729.136C163.309 729.911 163.151 730.601 162.833 731.208C162.516 731.815 162.077 732.286 161.517 732.622C160.967 732.958 160.351 733.126 159.669 733.126C159.016 733.126 158.437 732.981 157.933 732.692C157.439 732.393 157.061 732.025 156.799 731.586V736.64H155.525V725.328H156.799V726.742ZM162.007 729.136C162.007 728.557 161.891 728.053 161.657 727.624C161.424 727.195 161.107 726.868 160.705 726.644C160.313 726.42 159.879 726.308 159.403 726.308C158.937 726.308 158.503 726.425 158.101 726.658C157.709 726.882 157.392 727.213 157.149 727.652C156.916 728.081 156.799 728.581 156.799 729.15C156.799 729.729 156.916 730.237 157.149 730.676C157.392 731.105 157.709 731.437 158.101 731.67C158.503 731.894 158.937 732.006 159.403 732.006C159.879 732.006 160.313 731.894 160.705 731.67C161.107 731.437 161.424 731.105 161.657 730.676C161.891 730.237 162.007 729.724 162.007 729.136ZM166.26 722.64V733H164.986V722.64H166.26ZM171.778 733.126C171.059 733.126 170.406 732.963 169.818 732.636C169.239 732.309 168.782 731.847 168.446 731.25C168.119 730.643 167.956 729.943 167.956 729.15C167.956 728.366 168.124 727.675 168.46 727.078C168.805 726.471 169.272 726.009 169.86 725.692C170.448 725.365 171.106 725.202 171.834 725.202C172.562 725.202 173.22 725.365 173.808 725.692C174.396 726.009 174.858 726.467 175.194 727.064C175.539 727.661 175.712 728.357 175.712 729.15C175.712 729.943 175.534 730.643 175.18 731.25C174.834 731.847 174.363 732.309 173.766 732.636C173.168 732.963 172.506 733.126 171.778 733.126ZM171.778 732.006C172.235 732.006 172.664 731.899 173.066 731.684C173.467 731.469 173.789 731.147 174.032 730.718C174.284 730.289 174.41 729.766 174.41 729.15C174.41 728.534 174.288 728.011 174.046 727.582C173.803 727.153 173.486 726.835 173.094 726.63C172.702 726.415 172.277 726.308 171.82 726.308C171.353 726.308 170.924 726.415 170.532 726.63C170.149 726.835 169.841 727.153 169.608 727.582C169.374 728.011 169.258 728.534 169.258 729.15C169.258 729.775 169.37 730.303 169.594 730.732C169.827 731.161 170.135 731.483 170.518 731.698C170.9 731.903 171.32 732.006 171.778 732.006ZM176.911 729.136C176.911 728.352 177.069 727.666 177.387 727.078C177.704 726.481 178.138 726.019 178.689 725.692C179.249 725.365 179.869 725.202 180.551 725.202C181.223 725.202 181.806 725.347 182.301 725.636C182.795 725.925 183.164 726.289 183.407 726.728V725.328H184.695V733H183.407V731.572C183.155 732.02 182.777 732.393 182.273 732.692C181.778 732.981 181.199 733.126 180.537 733.126C179.855 733.126 179.239 732.958 178.689 732.622C178.138 732.286 177.704 731.815 177.387 731.208C177.069 730.601 176.911 729.911 176.911 729.136ZM183.407 729.15C183.407 728.571 183.29 728.067 183.057 727.638C182.823 727.209 182.506 726.882 182.105 726.658C181.713 726.425 181.279 726.308 180.803 726.308C180.327 726.308 179.893 726.42 179.501 726.644C179.109 726.868 178.796 727.195 178.563 727.624C178.329 728.053 178.213 728.557 178.213 729.136C178.213 729.724 178.329 730.237 178.563 730.676C178.796 731.105 179.109 731.437 179.501 731.67C179.893 731.894 180.327 732.006 180.803 732.006C181.279 732.006 181.713 731.894 182.105 731.67C182.506 731.437 182.823 731.105 183.057 730.676C183.29 730.237 183.407 729.729 183.407 729.15ZM186.372 729.136C186.372 728.352 186.53 727.666 186.848 727.078C187.165 726.481 187.599 726.019 188.15 725.692C188.71 725.365 189.335 725.202 190.026 725.202C190.623 725.202 191.178 725.342 191.692 725.622C192.205 725.893 192.597 726.252 192.868 726.7V722.64H194.156V733H192.868V731.558C192.616 732.015 192.242 732.393 191.748 732.692C191.253 732.981 190.674 733.126 190.012 733.126C189.33 733.126 188.71 732.958 188.15 732.622C187.599 732.286 187.165 731.815 186.848 731.208C186.53 730.601 186.372 729.911 186.372 729.136ZM192.868 729.15C192.868 728.571 192.751 728.067 192.518 727.638C192.284 727.209 191.967 726.882 191.566 726.658C191.174 726.425 190.74 726.308 190.264 726.308C189.788 726.308 189.354 726.42 188.962 726.644C188.57 726.868 188.257 727.195 188.024 727.624C187.79 728.053 187.674 728.557 187.674 729.136C187.674 729.724 187.79 730.237 188.024 730.676C188.257 731.105 188.57 731.437 188.962 731.67C189.354 731.894 189.788 732.006 190.264 732.006C190.74 732.006 191.174 731.894 191.566 731.67C191.967 731.437 192.284 731.105 192.518 730.676C192.751 730.237 192.868 729.729 192.868 729.15ZM201.315 723.242V733H200.041V723.242H201.315ZM212.712 725.188C213.31 725.188 213.842 725.314 214.308 725.566C214.775 725.809 215.144 726.177 215.414 726.672C215.685 727.167 215.82 727.769 215.82 728.478V733H214.56V728.66C214.56 727.895 214.369 727.311 213.986 726.91C213.613 726.499 213.104 726.294 212.46 726.294C211.798 726.294 211.27 726.509 210.878 726.938C210.486 727.358 210.29 727.969 210.29 728.772V733H209.03V728.66C209.03 727.895 208.839 727.311 208.456 726.91C208.083 726.499 207.574 726.294 206.93 726.294C206.268 726.294 205.74 726.509 205.348 726.938C204.956 727.358 204.76 727.969 204.76 728.772V733H203.486V725.328H204.76V726.434C205.012 726.033 205.348 725.725 205.768 725.51C206.198 725.295 206.669 725.188 207.182 725.188C207.826 725.188 208.396 725.333 208.89 725.622C209.385 725.911 209.754 726.336 209.996 726.896C210.211 726.355 210.566 725.935 211.06 725.636C211.555 725.337 212.106 725.188 212.712 725.188ZM217.434 729.136C217.434 728.352 217.593 727.666 217.91 727.078C218.227 726.481 218.661 726.019 219.212 725.692C219.772 725.365 220.393 725.202 221.074 725.202C221.746 725.202 222.329 725.347 222.824 725.636C223.319 725.925 223.687 726.289 223.93 726.728V725.328H225.218V733H223.93V731.572C223.678 732.02 223.3 732.393 222.796 732.692C222.301 732.981 221.723 733.126 221.06 733.126C220.379 733.126 219.763 732.958 219.212 732.622C218.661 732.286 218.227 731.815 217.91 731.208C217.593 730.601 217.434 729.911 217.434 729.136ZM223.93 729.15C223.93 728.571 223.813 728.067 223.58 727.638C223.347 727.209 223.029 726.882 222.628 726.658C222.236 726.425 221.802 726.308 221.326 726.308C220.85 726.308 220.416 726.42 220.024 726.644C219.632 726.868 219.319 727.195 219.086 727.624C218.853 728.053 218.736 728.557 218.736 729.136C218.736 729.724 218.853 730.237 219.086 730.676C219.319 731.105 219.632 731.437 220.024 731.67C220.416 731.894 220.85 732.006 221.326 732.006C221.802 732.006 222.236 731.894 222.628 731.67C223.029 731.437 223.347 731.105 223.58 730.676C223.813 730.237 223.93 729.729 223.93 729.15ZM230.535 725.202C231.198 725.202 231.776 725.347 232.271 725.636C232.775 725.925 233.148 726.289 233.391 726.728V725.328H234.679V733.168C234.679 733.868 234.53 734.489 234.231 735.03C233.932 735.581 233.503 736.01 232.943 736.318C232.392 736.626 231.748 736.78 231.011 736.78C230.003 736.78 229.163 736.542 228.491 736.066C227.819 735.59 227.422 734.941 227.301 734.12H228.561C228.701 734.587 228.99 734.96 229.429 735.24C229.868 735.529 230.395 735.674 231.011 735.674C231.711 735.674 232.28 735.455 232.719 735.016C233.167 734.577 233.391 733.961 233.391 733.168V731.558C233.139 732.006 232.766 732.379 232.271 732.678C231.776 732.977 231.198 733.126 230.535 733.126C229.854 733.126 229.233 732.958 228.673 732.622C228.122 732.286 227.688 731.815 227.371 731.208C227.054 730.601 226.895 729.911 226.895 729.136C226.895 728.352 227.054 727.666 227.371 727.078C227.688 726.481 228.122 726.019 228.673 725.692C229.233 725.365 229.854 725.202 230.535 725.202ZM233.391 729.15C233.391 728.571 233.274 728.067 233.041 727.638C232.808 727.209 232.49 726.882 232.089 726.658C231.697 726.425 231.263 726.308 230.787 726.308C230.311 726.308 229.877 726.42 229.485 726.644C229.093 726.868 228.78 727.195 228.547 727.624C228.314 728.053 228.197 728.557 228.197 729.136C228.197 729.724 228.314 730.237 228.547 730.676C228.78 731.105 229.093 731.437 229.485 731.67C229.877 731.894 230.311 732.006 230.787 732.006C231.263 732.006 231.697 731.894 232.089 731.67C232.49 731.437 232.808 731.105 233.041 730.676C233.274 730.237 233.391 729.729 233.391 729.15ZM243.832 728.87C243.832 729.113 243.818 729.369 243.79 729.64H237.658C237.705 730.396 237.961 730.989 238.428 731.418C238.904 731.838 239.478 732.048 240.15 732.048C240.701 732.048 241.158 731.922 241.522 731.67C241.895 731.409 242.157 731.063 242.306 730.634H243.678C243.473 731.371 243.062 731.973 242.446 732.44C241.83 732.897 241.065 733.126 240.15 733.126C239.422 733.126 238.769 732.963 238.19 732.636C237.621 732.309 237.173 731.847 236.846 731.25C236.519 730.643 236.356 729.943 236.356 729.15C236.356 728.357 236.515 727.661 236.832 727.064C237.149 726.467 237.593 726.009 238.162 725.692C238.741 725.365 239.403 725.202 240.15 725.202C240.878 725.202 241.522 725.361 242.082 725.678C242.642 725.995 243.071 726.434 243.37 726.994C243.678 727.545 243.832 728.17 243.832 728.87ZM242.516 728.604C242.516 728.119 242.409 727.703 242.194 727.358C241.979 727.003 241.685 726.737 241.312 726.56C240.948 726.373 240.542 726.28 240.094 726.28C239.45 726.28 238.899 726.485 238.442 726.896C237.994 727.307 237.737 727.876 237.672 728.604H242.516Z" fill="#00C6E8"/>
<path d="M63.602 495.098C63.602 495.91 63.322 496.587 62.762 497.128C62.2113 497.66 61.3667 497.926 60.228 497.926H58.352V502H57.078V492.242H60.228C61.3293 492.242 62.1647 492.508 62.734 493.04C63.3127 493.572 63.602 494.258 63.602 495.098ZM60.228 496.876C60.9373 496.876 61.46 496.722 61.796 496.414C62.132 496.106 62.3 495.667 62.3 495.098C62.3 493.894 61.6093 493.292 60.228 493.292H58.352V496.876H60.228ZM66.4594 491.64V502H65.1854V491.64H66.4594ZM75.6307 497.87C75.6307 498.113 75.6167 498.369 75.5887 498.64H69.4567C69.5034 499.396 69.7601 499.989 70.2267 500.418C70.7027 500.838 71.2767 501.048 71.9487 501.048C72.4994 501.048 72.9567 500.922 73.3207 500.67C73.6941 500.409 73.9554 500.063 74.1047 499.634H75.4767C75.2714 500.371 74.8607 500.973 74.2447 501.44C73.6287 501.897 72.8634 502.126 71.9487 502.126C71.2207 502.126 70.5674 501.963 69.9887 501.636C69.4194 501.309 68.9714 500.847 68.6447 500.25C68.3181 499.643 68.1547 498.943 68.1547 498.15C68.1547 497.357 68.3134 496.661 68.6307 496.064C68.9481 495.467 69.3914 495.009 69.9607 494.692C70.5394 494.365 71.2021 494.202 71.9487 494.202C72.6767 494.202 73.3207 494.361 73.8807 494.678C74.4407 494.995 74.8701 495.434 75.1687 495.994C75.4767 496.545 75.6307 497.17 75.6307 497.87ZM74.3147 497.604C74.3147 497.119 74.2074 496.703 73.9927 496.358C73.7781 496.003 73.4841 495.737 73.1107 495.56C72.7467 495.373 72.3407 495.28 71.8927 495.28C71.2487 495.28 70.6981 495.485 70.2407 495.896C69.7927 496.307 69.5361 496.876 69.4707 497.604H74.3147ZM76.8364 498.136C76.8364 497.352 76.995 496.666 77.3124 496.078C77.6297 495.481 78.0637 495.019 78.6144 494.692C79.1744 494.365 79.795 494.202 80.4764 494.202C81.1484 494.202 81.7317 494.347 82.2264 494.636C82.721 494.925 83.0897 495.289 83.3324 495.728V494.328H84.6204V502H83.3324V500.572C83.0804 501.02 82.7024 501.393 82.1984 501.692C81.7037 501.981 81.125 502.126 80.4624 502.126C79.781 502.126 79.165 501.958 78.6144 501.622C78.0637 501.286 77.6297 500.815 77.3124 500.208C76.995 499.601 76.8364 498.911 76.8364 498.136ZM83.3324 498.15C83.3324 497.571 83.2157 497.067 82.9824 496.638C82.749 496.209 82.4317 495.882 82.0304 495.658C81.6384 495.425 81.2044 495.308 80.7284 495.308C80.2524 495.308 79.8184 495.42 79.4264 495.644C79.0344 495.868 78.7217 496.195 78.4884 496.624C78.255 497.053 78.1384 497.557 78.1384 498.136C78.1384 498.724 78.255 499.237 78.4884 499.676C78.7217 500.105 79.0344 500.437 79.4264 500.67C79.8184 500.894 80.2524 501.006 80.7284 501.006C81.2044 501.006 81.6384 500.894 82.0304 500.67C82.4317 500.437 82.749 500.105 82.9824 499.676C83.2157 499.237 83.3324 498.729 83.3324 498.15ZM89.4893 502.126C88.9013 502.126 88.374 502.028 87.9073 501.832C87.4406 501.627 87.072 501.347 86.8013 500.992C86.5306 500.628 86.3813 500.213 86.3533 499.746H87.6693C87.7066 500.129 87.884 500.441 88.2013 500.684C88.528 500.927 88.9526 501.048 89.4753 501.048C89.9606 501.048 90.3433 500.941 90.6233 500.726C90.9033 500.511 91.0433 500.241 91.0433 499.914C91.0433 499.578 90.894 499.331 90.5953 499.172C90.2966 499.004 89.8346 498.841 89.2093 498.682C88.64 498.533 88.1733 498.383 87.8093 498.234C87.4546 498.075 87.1466 497.847 86.8853 497.548C86.6333 497.24 86.5073 496.839 86.5073 496.344C86.5073 495.952 86.624 495.593 86.8573 495.266C87.0906 494.939 87.422 494.683 87.8513 494.496C88.2806 494.3 88.7706 494.202 89.3213 494.202C90.1706 494.202 90.8566 494.417 91.3793 494.846C91.902 495.275 92.182 495.863 92.2193 496.61H90.9453C90.9173 496.209 90.754 495.887 90.4553 495.644C90.166 495.401 89.774 495.28 89.2793 495.28C88.822 495.28 88.458 495.378 88.1873 495.574C87.9166 495.77 87.7813 496.027 87.7813 496.344C87.7813 496.596 87.8606 496.806 88.0193 496.974C88.1873 497.133 88.3926 497.263 88.6353 497.366C88.8873 497.459 89.2326 497.567 89.6713 497.688C90.222 497.837 90.67 497.987 91.0153 498.136C91.3606 498.276 91.6546 498.491 91.8973 498.78C92.1493 499.069 92.28 499.447 92.2893 499.914C92.2893 500.334 92.1726 500.712 91.9393 501.048C91.706 501.384 91.3746 501.65 90.9453 501.846C90.5253 502.033 90.04 502.126 89.4893 502.126ZM101.088 497.87C101.088 498.113 101.074 498.369 101.046 498.64H94.9138C94.9604 499.396 95.2171 499.989 95.6838 500.418C96.1598 500.838 96.7338 501.048 97.4058 501.048C97.9564 501.048 98.4138 500.922 98.7778 500.67C99.1511 500.409 99.4124 500.063 99.5618 499.634H100.934C100.728 500.371 100.318 500.973 99.7018 501.44C99.0858 501.897 98.3204 502.126 97.4058 502.126C96.6778 502.126 96.0244 501.963 95.4458 501.636C94.8764 501.309 94.4284 500.847 94.1018 500.25C93.7751 499.643 93.6118 498.943 93.6118 498.15C93.6118 497.357 93.7704 496.661 94.0878 496.064C94.4051 495.467 94.8484 495.009 95.4178 494.692C95.9964 494.365 96.6591 494.202 97.4058 494.202C98.1338 494.202 98.7778 494.361 99.3378 494.678C99.8978 494.995 100.327 495.434 100.626 495.994C100.934 496.545 101.088 497.17 101.088 497.87ZM99.7718 497.604C99.7718 497.119 99.6644 496.703 99.4498 496.358C99.2351 496.003 98.9411 495.737 98.5678 495.56C98.2038 495.373 97.7978 495.28 97.3498 495.28C96.7058 495.28 96.1551 495.485 95.6978 495.896C95.2498 496.307 94.9931 496.876 94.9278 497.604H99.7718ZM107.776 495.756C108.037 495.299 108.42 494.925 108.924 494.636C109.428 494.347 110.002 494.202 110.646 494.202C111.336 494.202 111.957 494.365 112.508 494.692C113.058 495.019 113.492 495.481 113.81 496.078C114.127 496.666 114.286 497.352 114.286 498.136C114.286 498.911 114.127 499.601 113.81 500.208C113.492 500.815 113.054 501.286 112.494 501.622C111.943 501.958 111.327 502.126 110.646 502.126C109.983 502.126 109.4 501.981 108.896 501.692C108.401 501.403 108.028 501.034 107.776 500.586V502H106.502V491.64H107.776V495.756ZM112.984 498.136C112.984 497.557 112.867 497.053 112.634 496.624C112.4 496.195 112.083 495.868 111.682 495.644C111.29 495.42 110.856 495.308 110.38 495.308C109.913 495.308 109.479 495.425 109.078 495.658C108.686 495.882 108.368 496.213 108.126 496.652C107.892 497.081 107.776 497.581 107.776 498.15C107.776 498.729 107.892 499.237 108.126 499.676C108.368 500.105 108.686 500.437 109.078 500.67C109.479 500.894 109.913 501.006 110.38 501.006C110.856 501.006 111.29 500.894 111.682 500.67C112.083 500.437 112.4 500.105 112.634 499.676C112.867 499.237 112.984 498.724 112.984 498.136ZM122.963 497.87C122.963 498.113 122.949 498.369 122.921 498.64H116.789C116.835 499.396 117.092 499.989 117.559 500.418C118.035 500.838 118.609 501.048 119.281 501.048C119.831 501.048 120.289 500.922 120.653 500.67C121.026 500.409 121.287 500.063 121.437 499.634H122.809C122.603 500.371 122.193 500.973 121.577 501.44C120.961 501.897 120.195 502.126 119.281 502.126C118.553 502.126 117.899 501.963 117.321 501.636C116.751 501.309 116.303 500.847 115.977 500.25C115.65 499.643 115.487 498.943 115.487 498.15C115.487 497.357 115.645 496.661 115.963 496.064C116.28 495.467 116.723 495.009 117.293 494.692C117.871 494.365 118.534 494.202 119.281 494.202C120.009 494.202 120.653 494.361 121.213 494.678C121.773 494.995 122.202 495.434 122.501 495.994C122.809 496.545 122.963 497.17 122.963 497.87ZM121.647 497.604C121.647 497.119 121.539 496.703 121.325 496.358C121.11 496.003 120.816 495.737 120.443 495.56C120.079 495.373 119.673 495.28 119.225 495.28C118.581 495.28 118.03 495.485 117.573 495.896C117.125 496.307 116.868 496.876 116.803 497.604H121.647ZM129.651 495.742C129.903 495.303 130.276 494.939 130.771 494.65C131.275 494.351 131.858 494.202 132.521 494.202C133.202 494.202 133.818 494.365 134.369 494.692C134.929 495.019 135.367 495.481 135.685 496.078C136.002 496.666 136.161 497.352 136.161 498.136C136.161 498.911 136.002 499.601 135.685 500.208C135.367 500.815 134.929 501.286 134.369 501.622C133.818 501.958 133.202 502.126 132.521 502.126C131.867 502.126 131.289 501.981 130.785 501.692C130.29 501.393 129.912 501.025 129.651 500.586V505.64H128.377V494.328H129.651V495.742ZM134.859 498.136C134.859 497.557 134.742 497.053 134.509 496.624C134.275 496.195 133.958 495.868 133.557 495.644C133.165 495.42 132.731 495.308 132.255 495.308C131.788 495.308 131.354 495.425 130.953 495.658C130.561 495.882 130.243 496.213 130.001 496.652C129.767 497.081 129.651 497.581 129.651 498.15C129.651 498.729 129.767 499.237 130.001 499.676C130.243 500.105 130.561 500.437 130.953 500.67C131.354 500.894 131.788 501.006 132.255 501.006C132.731 501.006 133.165 500.894 133.557 500.67C133.958 500.437 134.275 500.105 134.509 499.676C134.742 499.237 134.859 498.724 134.859 498.136ZM137.362 498.136C137.362 497.352 137.52 496.666 137.838 496.078C138.155 495.481 138.589 495.019 139.14 494.692C139.7 494.365 140.32 494.202 141.002 494.202C141.674 494.202 142.257 494.347 142.752 494.636C143.246 494.925 143.615 495.289 143.858 495.728V494.328H145.146V502H143.858V500.572C143.606 501.02 143.228 501.393 142.724 501.692C142.229 501.981 141.65 502.126 140.988 502.126C140.306 502.126 139.69 501.958 139.14 501.622C138.589 501.286 138.155 500.815 137.838 500.208C137.52 499.601 137.362 498.911 137.362 498.136ZM143.858 498.15C143.858 497.571 143.741 497.067 143.508 496.638C143.274 496.209 142.957 495.882 142.556 495.658C142.164 495.425 141.73 495.308 141.254 495.308C140.778 495.308 140.344 495.42 139.952 495.644C139.56 495.868 139.247 496.195 139.014 496.624C138.78 497.053 138.664 497.557 138.664 498.136C138.664 498.724 138.78 499.237 139.014 499.676C139.247 500.105 139.56 500.437 139.952 500.67C140.344 500.894 140.778 501.006 141.254 501.006C141.73 501.006 142.164 500.894 142.556 500.67C142.957 500.437 143.274 500.105 143.508 499.676C143.741 499.237 143.858 498.729 143.858 498.15ZM148.853 495.378V499.9C148.853 500.273 148.932 500.539 149.091 500.698C149.249 500.847 149.525 500.922 149.917 500.922H150.855V502H149.707C148.997 502 148.465 501.837 148.111 501.51C147.756 501.183 147.579 500.647 147.579 499.9V495.378H146.585V494.328H147.579V492.396H148.853V494.328H150.855V495.378H148.853ZM153.056 493.082C152.814 493.082 152.608 492.998 152.44 492.83C152.272 492.662 152.188 492.457 152.188 492.214C152.188 491.971 152.272 491.766 152.44 491.598C152.608 491.43 152.814 491.346 153.056 491.346C153.29 491.346 153.486 491.43 153.644 491.598C153.812 491.766 153.896 491.971 153.896 492.214C153.896 492.457 153.812 492.662 153.644 492.83C153.486 492.998 153.29 493.082 153.056 493.082ZM153.672 494.328V502H152.398V494.328H153.672ZM162.844 497.87C162.844 498.113 162.83 498.369 162.802 498.64H156.67C156.716 499.396 156.973 499.989 157.44 500.418C157.916 500.838 158.49 501.048 159.162 501.048C159.712 501.048 160.17 500.922 160.534 500.67C160.907 500.409 161.168 500.063 161.318 499.634H162.69C162.484 500.371 162.074 500.973 161.458 501.44C160.842 501.897 160.076 502.126 159.162 502.126C158.434 502.126 157.78 501.963 157.202 501.636C156.632 501.309 156.184 500.847 155.858 500.25C155.531 499.643 155.368 498.943 155.368 498.15C155.368 497.357 155.526 496.661 155.844 496.064C156.161 495.467 156.604 495.009 157.174 494.692C157.752 494.365 158.415 494.202 159.162 494.202C159.89 494.202 160.534 494.361 161.094 494.678C161.654 494.995 162.083 495.434 162.382 495.994C162.69 496.545 162.844 497.17 162.844 497.87ZM161.528 497.604C161.528 497.119 161.42 496.703 161.206 496.358C160.991 496.003 160.697 495.737 160.324 495.56C159.96 495.373 159.554 495.28 159.106 495.28C158.462 495.28 157.911 495.485 157.454 495.896C157.006 496.307 156.749 496.876 156.684 497.604H161.528ZM168.263 494.188C169.197 494.188 169.953 494.473 170.531 495.042C171.11 495.602 171.399 496.414 171.399 497.478V502H170.139V497.66C170.139 496.895 169.948 496.311 169.565 495.91C169.183 495.499 168.66 495.294 167.997 495.294C167.325 495.294 166.789 495.504 166.387 495.924C165.995 496.344 165.799 496.955 165.799 497.758V502H164.525V494.328H165.799V495.42C166.051 495.028 166.392 494.725 166.821 494.51C167.26 494.295 167.741 494.188 168.263 494.188ZM175.034 495.378V499.9C175.034 500.273 175.114 500.539 175.272 500.698C175.431 500.847 175.706 500.922 176.098 500.922H177.036V502H175.888C175.179 502 174.647 501.837 174.292 501.51C173.938 501.183 173.76 500.647 173.76 499.9V495.378H172.766V494.328H173.76V492.396H175.034V494.328H177.036V495.378H175.034ZM179.896 500.236L178.328 504.002H177.474L178.496 500.236H179.896ZM186.642 495.378V499.9C186.642 500.273 186.721 500.539 186.88 500.698C187.038 500.847 187.314 500.922 187.706 500.922H188.644V502H187.496C186.786 502 186.254 501.837 185.9 501.51C185.545 501.183 185.368 500.647 185.368 499.9V495.378H184.374V494.328H185.368V492.396H186.642V494.328H188.644V495.378H186.642ZM193.995 494.188C194.574 494.188 195.097 494.314 195.563 494.566C196.03 494.809 196.394 495.177 196.655 495.672C196.926 496.167 197.061 496.769 197.061 497.478V502H195.801V497.66C195.801 496.895 195.61 496.311 195.227 495.91C194.845 495.499 194.322 495.294 193.659 495.294C192.987 495.294 192.451 495.504 192.049 495.924C191.657 496.344 191.461 496.955 191.461 497.758V502H190.187V491.64H191.461V495.42C191.713 495.028 192.059 494.725 192.497 494.51C192.945 494.295 193.445 494.188 193.995 494.188ZM199.8 493.082C199.558 493.082 199.352 492.998 199.184 492.83C199.016 492.662 198.932 492.457 198.932 492.214C198.932 491.971 199.016 491.766 199.184 491.598C199.352 491.43 199.558 491.346 199.8 491.346C200.034 491.346 200.23 491.43 200.388 491.598C200.556 491.766 200.64 491.971 200.64 492.214C200.64 492.457 200.556 492.662 200.388 492.83C200.23 492.998 200.034 493.082 199.8 493.082ZM200.416 494.328V502H199.142V494.328H200.416ZM205.304 502.126C204.716 502.126 204.188 502.028 203.722 501.832C203.255 501.627 202.886 501.347 202.616 500.992C202.345 500.628 202.196 500.213 202.168 499.746H203.484C203.521 500.129 203.698 500.441 204.016 500.684C204.342 500.927 204.767 501.048 205.29 501.048C205.775 501.048 206.158 500.941 206.438 500.726C206.718 500.511 206.858 500.241 206.858 499.914C206.858 499.578 206.708 499.331 206.41 499.172C206.111 499.004 205.649 498.841 205.024 498.682C204.454 498.533 203.988 498.383 203.624 498.234C203.269 498.075 202.961 497.847 202.7 497.548C202.448 497.24 202.322 496.839 202.322 496.344C202.322 495.952 202.438 495.593 202.672 495.266C202.905 494.939 203.236 494.683 203.666 494.496C204.095 494.3 204.585 494.202 205.136 494.202C205.985 494.202 206.671 494.417 207.194 494.846C207.716 495.275 207.996 495.863 208.034 496.61H206.76C206.732 496.209 206.568 495.887 206.27 495.644C205.98 495.401 205.588 495.28 205.094 495.28C204.636 495.28 204.272 495.378 204.002 495.574C203.731 495.77 203.596 496.027 203.596 496.344C203.596 496.596 203.675 496.806 203.834 496.974C204.002 497.133 204.207 497.263 204.45 497.366C204.702 497.459 205.047 497.567 205.486 497.688C206.036 497.837 206.484 497.987 206.83 498.136C207.175 498.276 207.469 498.491 207.712 498.78C207.964 499.069 208.094 499.447 208.104 499.914C208.104 500.334 207.987 500.712 207.754 501.048C207.52 501.384 207.189 501.65 206.76 501.846C206.34 502.033 205.854 502.126 205.304 502.126ZM222.861 494.188C223.458 494.188 223.99 494.314 224.457 494.566C224.923 494.809 225.292 495.177 225.563 495.672C225.833 496.167 225.969 496.769 225.969 497.478V502H224.709V497.66C224.709 496.895 224.517 496.311 224.135 495.91C223.761 495.499 223.253 495.294 222.609 495.294C221.946 495.294 221.419 495.509 221.027 495.938C220.635 496.358 220.439 496.969 220.439 497.772V502H219.179V497.66C219.179 496.895 218.987 496.311 218.605 495.91C218.231 495.499 217.723 495.294 217.079 495.294C216.416 495.294 215.889 495.509 215.497 495.938C215.105 496.358 214.909 496.969 214.909 497.772V502H213.635V494.328H214.909V495.434C215.161 495.033 215.497 494.725 215.917 494.51C216.346 494.295 216.817 494.188 217.331 494.188C217.975 494.188 218.544 494.333 219.039 494.622C219.533 494.911 219.902 495.336 220.145 495.896C220.359 495.355 220.714 494.935 221.209 494.636C221.703 494.337 222.254 494.188 222.861 494.188ZM227.582 498.136C227.582 497.352 227.741 496.666 228.058 496.078C228.376 495.481 228.81 495.019 229.36 494.692C229.92 494.365 230.541 494.202 231.222 494.202C231.894 494.202 232.478 494.347 232.972 494.636C233.467 494.925 233.836 495.289 234.078 495.728V494.328H235.366V502H234.078V500.572C233.826 501.02 233.448 501.393 232.944 501.692C232.45 501.981 231.871 502.126 231.208 502.126C230.527 502.126 229.911 501.958 229.36 501.622C228.81 501.286 228.376 500.815 228.058 500.208C227.741 499.601 227.582 498.911 227.582 498.136ZM234.078 498.15C234.078 497.571 233.962 497.067 233.728 496.638C233.495 496.209 233.178 495.882 232.776 495.658C232.384 495.425 231.95 495.308 231.474 495.308C230.998 495.308 230.564 495.42 230.172 495.644C229.78 495.868 229.468 496.195 229.234 496.624C229.001 497.053 228.884 497.557 228.884 498.136C228.884 498.724 229.001 499.237 229.234 499.676C229.468 500.105 229.78 500.437 230.172 500.67C230.564 500.894 230.998 501.006 231.474 501.006C231.95 501.006 232.384 500.894 232.776 500.67C233.178 500.437 233.495 500.105 233.728 499.676C233.962 499.237 234.078 498.729 234.078 498.15ZM244.127 494.328L239.507 505.612H238.191L239.703 501.916L236.609 494.328H238.023L240.431 500.544L242.811 494.328H244.127ZM250.695 495.378V499.9C250.695 500.273 250.774 500.539 250.933 500.698C251.091 500.847 251.367 500.922 251.758 500.922H252.697V502H251.549C250.839 502 250.307 501.837 249.953 501.51C249.598 501.183 249.421 500.647 249.421 499.9V495.378H248.427V494.328H249.421V492.396H250.695V494.328H252.697V495.378H250.695ZM253.764 498.136C253.764 497.352 253.923 496.666 254.24 496.078C254.557 495.481 254.991 495.019 255.542 494.692C256.102 494.365 256.723 494.202 257.404 494.202C258.076 494.202 258.659 494.347 259.154 494.636C259.649 494.925 260.017 495.289 260.26 495.728V494.328H261.548V502H260.26V500.572C260.008 501.02 259.63 501.393 259.126 501.692C258.631 501.981 258.053 502.126 257.39 502.126C256.709 502.126 256.093 501.958 255.542 501.622C254.991 501.286 254.557 500.815 254.24 500.208C253.923 499.601 253.764 498.911 253.764 498.136ZM260.26 498.15C260.26 497.571 260.143 497.067 259.91 496.638C259.677 496.209 259.359 495.882 258.958 495.658C258.566 495.425 258.132 495.308 257.656 495.308C257.18 495.308 256.746 495.42 256.354 495.644C255.962 495.868 255.649 496.195 255.416 496.624C255.183 497.053 255.066 497.557 255.066 498.136C255.066 498.724 255.183 499.237 255.416 499.676C255.649 500.105 255.962 500.437 256.354 500.67C256.746 500.894 257.18 501.006 257.656 501.006C258.132 501.006 258.566 500.894 258.958 500.67C259.359 500.437 259.677 500.105 259.91 499.676C260.143 499.237 260.26 498.729 260.26 498.15ZM267.985 502L264.975 498.612V502H263.701V491.64H264.975V497.73L267.929 494.328H269.707L266.095 498.15L269.721 502H267.985ZM277.906 497.87C277.906 498.113 277.892 498.369 277.864 498.64H271.732C271.779 499.396 272.035 499.989 272.502 500.418C272.978 500.838 273.552 501.048 274.224 501.048C274.775 501.048 275.232 500.922 275.596 500.67C275.969 500.409 276.231 500.063 276.38 499.634H277.752C277.547 500.371 277.136 500.973 276.52 501.44C275.904 501.897 275.139 502.126 274.224 502.126C273.496 502.126 272.843 501.963 272.264 501.636C271.695 501.309 271.247 500.847 270.92 500.25C270.593 499.643 270.43 498.943 270.43 498.15C270.43 497.357 270.589 496.661 270.906 496.064C271.223 495.467 271.667 495.009 272.236 494.692C272.815 494.365 273.477 494.202 274.224 494.202C274.952 494.202 275.596 494.361 276.156 494.678C276.716 494.995 277.145 495.434 277.444 495.994C277.752 496.545 277.906 497.17 277.906 497.87ZM276.59 497.604C276.59 497.119 276.483 496.703 276.268 496.358C276.053 496.003 275.759 495.737 275.386 495.56C275.022 495.373 274.616 495.28 274.168 495.28C273.524 495.28 272.973 495.485 272.516 495.896C272.068 496.307 271.811 496.876 271.746 497.604H276.59ZM282.844 498.136C282.844 497.352 283.003 496.666 283.32 496.078C283.638 495.481 284.072 495.019 284.622 494.692C285.182 494.365 285.803 494.202 286.484 494.202C287.156 494.202 287.74 494.347 288.234 494.636C288.729 494.925 289.098 495.289 289.34 495.728V494.328H290.628V502H289.34V500.572C289.088 501.02 288.71 501.393 288.206 501.692C287.712 501.981 287.133 502.126 286.47 502.126C285.789 502.126 285.173 501.958 284.622 501.622C284.072 501.286 283.638 500.815 283.32 500.208C283.003 499.601 282.844 498.911 282.844 498.136ZM289.34 498.15C289.34 497.571 289.224 497.067 288.99 496.638C288.757 496.209 288.44 495.882 288.038 495.658C287.646 495.425 287.212 495.308 286.736 495.308C286.26 495.308 285.826 495.42 285.434 495.644C285.042 495.868 284.73 496.195 284.496 496.624C284.263 497.053 284.146 497.557 284.146 498.136C284.146 498.724 284.263 499.237 284.496 499.676C284.73 500.105 285.042 500.437 285.434 500.67C285.826 500.894 286.26 501.006 286.736 501.006C287.212 501.006 287.646 500.894 288.038 500.67C288.44 500.437 288.757 500.105 288.99 499.676C289.224 499.237 289.34 498.729 289.34 498.15ZM306.734 494.328L304.34 502H303.024L301.176 495.91L299.328 502H298.012L295.604 494.328H296.906L298.67 500.768L300.574 494.328H301.876L303.738 500.782L305.474 494.328H306.734ZM311.806 494.188C312.385 494.188 312.907 494.314 313.374 494.566C313.841 494.809 314.205 495.177 314.466 495.672C314.737 496.167 314.872 496.769 314.872 497.478V502H313.612V497.66C313.612 496.895 313.421 496.311 313.038 495.91C312.655 495.499 312.133 495.294 311.47 495.294C310.798 495.294 310.261 495.504 309.86 495.924C309.468 496.344 309.272 496.955 309.272 497.758V502H307.998V491.64H309.272V495.42C309.524 495.028 309.869 494.725 310.308 494.51C310.756 494.295 311.255 494.188 311.806 494.188ZM317.611 493.082C317.368 493.082 317.163 492.998 316.995 492.83C316.827 492.662 316.743 492.457 316.743 492.214C316.743 491.971 316.827 491.766 316.995 491.598C317.163 491.43 317.368 491.346 317.611 491.346C317.844 491.346 318.04 491.43 318.199 491.598C318.367 491.766 318.451 491.971 318.451 492.214C318.451 492.457 318.367 492.662 318.199 492.83C318.04 492.998 317.844 493.082 317.611 493.082ZM318.227 494.328V502H316.953V494.328H318.227ZM321.672 491.64V502H320.398V491.64H321.672ZM330.844 497.87C330.844 498.113 330.83 498.369 330.802 498.64H324.67C324.716 499.396 324.973 499.989 325.44 500.418C325.916 500.838 326.49 501.048 327.162 501.048C327.712 501.048 328.17 500.922 328.534 500.67C328.907 500.409 329.168 500.063 329.318 499.634H330.69C330.484 500.371 330.074 500.973 329.458 501.44C328.842 501.897 328.076 502.126 327.162 502.126C326.434 502.126 325.78 501.963 325.202 501.636C324.632 501.309 324.184 500.847 323.858 500.25C323.531 499.643 323.368 498.943 323.368 498.15C323.368 497.357 323.526 496.661 323.844 496.064C324.161 495.467 324.604 495.009 325.174 494.692C325.752 494.365 326.415 494.202 327.162 494.202C327.89 494.202 328.534 494.361 329.094 494.678C329.654 494.995 330.083 495.434 330.382 495.994C330.69 496.545 330.844 497.17 330.844 497.87ZM329.528 497.604C329.528 497.119 329.42 496.703 329.206 496.358C328.991 496.003 328.697 495.737 328.324 495.56C327.96 495.373 327.554 495.28 327.106 495.28C326.462 495.28 325.911 495.485 325.454 495.896C325.006 496.307 324.749 496.876 324.684 497.604H329.528ZM332.931 502.084C332.689 502.084 332.483 502 332.315 501.832C332.147 501.664 332.063 501.459 332.063 501.216C332.063 500.973 332.147 500.768 332.315 500.6C332.483 500.432 332.689 500.348 332.931 500.348C333.165 500.348 333.361 500.432 333.519 500.6C333.687 500.768 333.771 500.973 333.771 501.216C333.771 501.459 333.687 501.664 333.519 501.832C333.361 502 333.165 502.084 332.931 502.084Z" fill="white"/>
<path d="M85.352 673.278V676.54H88.908V677.59H85.352V680.95H89.328V682H84.078V672.228H89.328V673.278H85.352ZM93.9717 682.126C93.3837 682.126 92.8564 682.028 92.3897 681.832C91.9231 681.627 91.5544 681.347 91.2837 680.992C91.0131 680.628 90.8637 680.213 90.8357 679.746H92.1517C92.1891 680.129 92.3664 680.441 92.6837 680.684C93.0104 680.927 93.4351 681.048 93.9577 681.048C94.4431 681.048 94.8257 680.941 95.1057 680.726C95.3857 680.511 95.5257 680.241 95.5257 679.914C95.5257 679.578 95.3764 679.331 95.0777 679.172C94.7791 679.004 94.3171 678.841 93.6917 678.682C93.1224 678.533 92.6557 678.383 92.2917 678.234C91.9371 678.075 91.6291 677.847 91.3677 677.548C91.1157 677.24 90.9897 676.839 90.9897 676.344C90.9897 675.952 91.1064 675.593 91.3397 675.266C91.5731 674.939 91.9044 674.683 92.3337 674.496C92.7631 674.3 93.2531 674.202 93.8037 674.202C94.6531 674.202 95.3391 674.417 95.8617 674.846C96.3844 675.275 96.6644 675.863 96.7017 676.61H95.4277C95.3997 676.209 95.2364 675.887 94.9377 675.644C94.6484 675.401 94.2564 675.28 93.7617 675.28C93.3044 675.28 92.9404 675.378 92.6697 675.574C92.3991 675.77 92.2637 676.027 92.2637 676.344C92.2637 676.596 92.3431 676.806 92.5017 676.974C92.6697 677.133 92.8751 677.263 93.1177 677.366C93.3697 677.459 93.7151 677.567 94.1537 677.688C94.7044 677.837 95.1524 677.987 95.4977 678.136C95.8431 678.276 96.1371 678.491 96.3797 678.78C96.6317 679.069 96.7624 679.447 96.7717 679.914C96.7717 680.334 96.6551 680.712 96.4217 681.048C96.1884 681.384 95.8571 681.65 95.4277 681.846C95.0077 682.033 94.5224 682.126 93.9717 682.126ZM100.124 675.378V679.9C100.124 680.273 100.204 680.539 100.362 680.698C100.521 680.847 100.796 680.922 101.188 680.922H102.126V682H100.978C100.269 682 99.7369 681.837 99.3822 681.51C99.0275 681.183 98.8502 680.647 98.8502 679.9V675.378H97.8562V674.328H98.8502V672.396H100.124V674.328H102.126V675.378H100.124ZM104.328 673.082C104.085 673.082 103.88 672.998 103.712 672.83C103.544 672.662 103.46 672.457 103.46 672.214C103.46 671.971 103.544 671.766 103.712 671.598C103.88 671.43 104.085 671.346 104.328 671.346C104.561 671.346 104.757 671.43 104.916 671.598C105.084 671.766 105.168 671.971 105.168 672.214C105.168 672.457 105.084 672.662 104.916 672.83C104.757 672.998 104.561 673.082 104.328 673.082ZM104.944 674.328V682H103.67V674.328H104.944ZM116.341 674.188C116.938 674.188 117.47 674.314 117.937 674.566C118.404 674.809 118.772 675.177 119.043 675.672C119.314 676.167 119.449 676.769 119.449 677.478V682H118.189V677.66C118.189 676.895 117.998 676.311 117.615 675.91C117.242 675.499 116.733 675.294 116.089 675.294C115.426 675.294 114.899 675.509 114.507 675.938C114.115 676.358 113.919 676.969 113.919 677.772V682H112.659V677.66C112.659 676.895 112.468 676.311 112.085 675.91C111.712 675.499 111.203 675.294 110.559 675.294C109.896 675.294 109.369 675.509 108.977 675.938C108.585 676.358 108.389 676.969 108.389 677.772V682H107.115V674.328H108.389V675.434C108.641 675.033 108.977 674.725 109.397 674.51C109.826 674.295 110.298 674.188 110.811 674.188C111.455 674.188 112.024 674.333 112.519 674.622C113.014 674.911 113.382 675.336 113.625 675.896C113.84 675.355 114.194 674.935 114.689 674.636C115.184 674.337 115.734 674.188 116.341 674.188ZM121.063 678.136C121.063 677.352 121.222 676.666 121.539 676.078C121.856 675.481 122.29 675.019 122.841 674.692C123.401 674.365 124.022 674.202 124.703 674.202C125.375 674.202 125.958 674.347 126.453 674.636C126.948 674.925 127.316 675.289 127.559 675.728V674.328H128.847V682H127.559V680.572C127.307 681.02 126.929 681.393 126.425 681.692C125.93 681.981 125.352 682.126 124.689 682.126C124.008 682.126 123.392 681.958 122.841 681.622C122.29 681.286 121.856 680.815 121.539 680.208C121.222 679.601 121.063 678.911 121.063 678.136ZM127.559 678.15C127.559 677.571 127.442 677.067 127.209 676.638C126.976 676.209 126.658 675.882 126.257 675.658C125.865 675.425 125.431 675.308 124.955 675.308C124.479 675.308 124.045 675.42 123.653 675.644C123.261 675.868 122.948 676.195 122.715 676.624C122.482 677.053 122.365 677.557 122.365 678.136C122.365 678.724 122.482 679.237 122.715 679.676C122.948 680.105 123.261 680.437 123.653 680.67C124.045 680.894 124.479 681.006 124.955 681.006C125.431 681.006 125.865 680.894 126.257 680.67C126.658 680.437 126.976 680.105 127.209 679.676C127.442 679.237 127.559 678.729 127.559 678.15ZM132.554 675.378V679.9C132.554 680.273 132.633 680.539 132.792 680.698C132.951 680.847 133.226 680.922 133.618 680.922H134.556V682H133.408C132.699 682 132.167 681.837 131.812 681.51C131.457 681.183 131.28 680.647 131.28 679.9V675.378H130.286V674.328H131.28V672.396H132.554V674.328H134.556V675.378H132.554ZM143.099 677.87C143.099 678.113 143.085 678.369 143.057 678.64H136.925C136.972 679.396 137.229 679.989 137.695 680.418C138.171 680.838 138.745 681.048 139.417 681.048C139.968 681.048 140.425 680.922 140.789 680.67C141.163 680.409 141.424 680.063 141.573 679.634H142.945C142.74 680.371 142.329 680.973 141.713 681.44C141.097 681.897 140.332 682.126 139.417 682.126C138.689 682.126 138.036 681.963 137.457 681.636C136.888 681.309 136.44 680.847 136.113 680.25C135.787 679.643 135.623 678.943 135.623 678.15C135.623 677.357 135.782 676.661 136.099 676.064C136.417 675.467 136.86 675.009 137.429 674.692C138.008 674.365 138.671 674.202 139.417 674.202C140.145 674.202 140.789 674.361 141.349 674.678C141.909 674.995 142.339 675.434 142.637 675.994C142.945 676.545 143.099 677.17 143.099 677.87ZM141.783 677.604C141.783 677.119 141.676 676.703 141.461 676.358C141.247 676.003 140.953 675.737 140.579 675.56C140.215 675.373 139.809 675.28 139.361 675.28C138.717 675.28 138.167 675.485 137.709 675.896C137.261 676.307 137.005 676.876 136.939 677.604H141.783ZM144.305 678.136C144.305 677.352 144.464 676.666 144.781 676.078C145.098 675.481 145.532 675.019 146.083 674.692C146.643 674.365 147.268 674.202 147.959 674.202C148.556 674.202 149.112 674.342 149.625 674.622C150.138 674.893 150.53 675.252 150.801 675.7V671.64H152.089V682H150.801V680.558C150.549 681.015 150.176 681.393 149.681 681.692C149.186 681.981 148.608 682.126 147.945 682.126C147.264 682.126 146.643 681.958 146.083 681.622C145.532 681.286 145.098 680.815 144.781 680.208C144.464 679.601 144.305 678.911 144.305 678.136ZM150.801 678.15C150.801 677.571 150.684 677.067 150.451 676.638C150.218 676.209 149.9 675.882 149.499 675.658C149.107 675.425 148.673 675.308 148.197 675.308C147.721 675.308 147.287 675.42 146.895 675.644C146.503 675.868 146.19 676.195 145.957 676.624C145.724 677.053 145.607 677.557 145.607 678.136C145.607 678.724 145.724 679.237 145.957 679.676C146.19 680.105 146.503 680.437 146.895 680.67C147.287 680.894 147.721 681.006 148.197 681.006C148.673 681.006 149.107 680.894 149.499 680.67C149.9 680.437 150.218 680.105 150.451 679.676C150.684 679.237 150.801 678.729 150.801 678.15ZM168.194 674.328L165.8 682H164.484L162.636 675.91L160.788 682H159.472L157.064 674.328H158.366L160.13 680.768L162.034 674.328H163.336L165.198 680.782L166.934 674.328H168.194ZM168.983 678.136C168.983 677.352 169.142 676.666 169.459 676.078C169.776 675.481 170.21 675.019 170.761 674.692C171.321 674.365 171.942 674.202 172.623 674.202C173.295 674.202 173.878 674.347 174.373 674.636C174.868 674.925 175.236 675.289 175.479 675.728V674.328H176.767V682H175.479V680.572C175.227 681.02 174.849 681.393 174.345 681.692C173.85 681.981 173.272 682.126 172.609 682.126C171.928 682.126 171.312 681.958 170.761 681.622C170.21 681.286 169.776 680.815 169.459 680.208C169.142 679.601 168.983 678.911 168.983 678.136ZM175.479 678.15C175.479 677.571 175.362 677.067 175.129 676.638C174.896 676.209 174.578 675.882 174.177 675.658C173.785 675.425 173.351 675.308 172.875 675.308C172.399 675.308 171.965 675.42 171.573 675.644C171.181 675.868 170.868 676.195 170.635 676.624C170.402 677.053 170.285 677.557 170.285 678.136C170.285 678.724 170.402 679.237 170.635 679.676C170.868 680.105 171.181 680.437 171.573 680.67C171.965 680.894 172.399 681.006 172.875 681.006C173.351 681.006 173.785 680.894 174.177 680.67C174.578 680.437 174.896 680.105 175.129 679.676C175.362 679.237 175.479 678.729 175.479 678.15ZM179.578 673.082C179.335 673.082 179.13 672.998 178.962 672.83C178.794 672.662 178.71 672.457 178.71 672.214C178.71 671.971 178.794 671.766 178.962 671.598C179.13 671.43 179.335 671.346 179.578 671.346C179.811 671.346 180.007 671.43 180.166 671.598C180.334 671.766 180.418 671.971 180.418 672.214C180.418 672.457 180.334 672.662 180.166 672.83C180.007 672.998 179.811 673.082 179.578 673.082ZM180.194 674.328V682H178.92V674.328H180.194ZM183.919 675.378V679.9C183.919 680.273 183.998 680.539 184.157 680.698C184.316 680.847 184.591 680.922 184.983 680.922H185.921V682H184.773C184.064 682 183.532 681.837 183.177 681.51C182.822 681.183 182.645 680.647 182.645 679.9V675.378H181.651V674.328H182.645V672.396H183.919V674.328H185.921V675.378H183.919ZM188.123 673.082C187.88 673.082 187.675 672.998 187.507 672.83C187.339 672.662 187.255 672.457 187.255 672.214C187.255 671.971 187.339 671.766 187.507 671.598C187.675 671.43 187.88 671.346 188.123 671.346C188.356 671.346 188.552 671.43 188.711 671.598C188.879 671.766 188.963 671.971 188.963 672.214C188.963 672.457 188.879 672.662 188.711 672.83C188.552 672.998 188.356 673.082 188.123 673.082ZM188.739 674.328V682H187.465V674.328H188.739ZM194.648 674.188C195.581 674.188 196.337 674.473 196.916 675.042C197.495 675.602 197.784 676.414 197.784 677.478V682H196.524V677.66C196.524 676.895 196.333 676.311 195.95 675.91C195.567 675.499 195.045 675.294 194.382 675.294C193.71 675.294 193.173 675.504 192.772 675.924C192.38 676.344 192.184 676.955 192.184 677.758V682H190.91V674.328H192.184V675.42C192.436 675.028 192.777 674.725 193.206 674.51C193.645 674.295 194.125 674.188 194.648 674.188ZM203.029 674.202C203.692 674.202 204.27 674.347 204.765 674.636C205.269 674.925 205.642 675.289 205.885 675.728V674.328H207.173V682.168C207.173 682.868 207.024 683.489 206.725 684.03C206.426 684.581 205.997 685.01 205.437 685.318C204.886 685.626 204.242 685.78 203.505 685.78C202.497 685.78 201.657 685.542 200.985 685.066C200.313 684.59 199.916 683.941 199.795 683.12H201.055C201.195 683.587 201.484 683.96 201.923 684.24C202.362 684.529 202.889 684.674 203.505 684.674C204.205 684.674 204.774 684.455 205.213 684.016C205.661 683.577 205.885 682.961 205.885 682.168V680.558C205.633 681.006 205.26 681.379 204.765 681.678C204.27 681.977 203.692 682.126 203.029 682.126C202.348 682.126 201.727 681.958 201.167 681.622C200.616 681.286 200.182 680.815 199.865 680.208C199.548 679.601 199.389 678.911 199.389 678.136C199.389 677.352 199.548 676.666 199.865 676.078C200.182 675.481 200.616 675.019 201.167 674.692C201.727 674.365 202.348 674.202 203.029 674.202ZM205.885 678.15C205.885 677.571 205.768 677.067 205.535 676.638C205.302 676.209 204.984 675.882 204.583 675.658C204.191 675.425 203.757 675.308 203.281 675.308C202.805 675.308 202.371 675.42 201.979 675.644C201.587 675.868 201.274 676.195 201.041 676.624C200.808 677.053 200.691 677.557 200.691 678.136C200.691 678.724 200.808 679.237 201.041 679.676C201.274 680.105 201.587 680.437 201.979 680.67C202.371 680.894 202.805 681.006 203.281 681.006C203.757 681.006 204.191 680.894 204.583 680.67C204.984 680.437 205.302 680.105 205.535 679.676C205.768 679.237 205.885 678.729 205.885 678.15ZM214.612 675.378V679.9C214.612 680.273 214.692 680.539 214.85 680.698C215.009 680.847 215.284 680.922 215.676 680.922H216.614V682H215.466C214.757 682 214.225 681.837 213.87 681.51C213.516 681.183 213.338 680.647 213.338 679.9V675.378H212.344V674.328H213.338V672.396H214.612V674.328H216.614V675.378H214.612ZM218.816 673.082C218.573 673.082 218.368 672.998 218.2 672.83C218.032 672.662 217.948 672.457 217.948 672.214C217.948 671.971 218.032 671.766 218.2 671.598C218.368 671.43 218.573 671.346 218.816 671.346C219.049 671.346 219.245 671.43 219.404 671.598C219.572 671.766 219.656 671.971 219.656 672.214C219.656 672.457 219.572 672.662 219.404 672.83C219.245 672.998 219.049 673.082 218.816 673.082ZM219.432 674.328V682H218.158V674.328H219.432ZM230.829 674.188C231.427 674.188 231.959 674.314 232.425 674.566C232.892 674.809 233.261 675.177 233.531 675.672C233.802 676.167 233.937 676.769 233.937 677.478V682H232.677V677.66C232.677 676.895 232.486 676.311 232.103 675.91C231.73 675.499 231.221 675.294 230.577 675.294C229.915 675.294 229.387 675.509 228.995 675.938C228.603 676.358 228.407 676.969 228.407 677.772V682H227.147V677.66C227.147 676.895 226.956 676.311 226.573 675.91C226.2 675.499 225.691 675.294 225.047 675.294C224.385 675.294 223.857 675.509 223.465 675.938C223.073 676.358 222.877 676.969 222.877 677.772V682H221.603V674.328H222.877V675.434C223.129 675.033 223.465 674.725 223.885 674.51C224.315 674.295 224.786 674.188 225.299 674.188C225.943 674.188 226.513 674.333 227.007 674.622C227.502 674.911 227.871 675.336 228.113 675.896C228.328 675.355 228.683 674.935 229.177 674.636C229.672 674.337 230.223 674.188 230.829 674.188ZM243.027 677.87C243.027 678.113 243.013 678.369 242.985 678.64H236.853C236.9 679.396 237.157 679.989 237.623 680.418C238.099 680.838 238.673 681.048 239.345 681.048C239.896 681.048 240.353 680.922 240.717 680.67C241.091 680.409 241.352 680.063 241.501 679.634H242.873C242.668 680.371 242.257 680.973 241.641 681.44C241.025 681.897 240.26 682.126 239.345 682.126C238.617 682.126 237.964 681.963 237.385 681.636C236.816 681.309 236.368 680.847 236.041 680.25C235.715 679.643 235.551 678.943 235.551 678.15C235.551 677.357 235.71 676.661 236.027 676.064C236.345 675.467 236.788 675.009 237.357 674.692C237.936 674.365 238.599 674.202 239.345 674.202C240.073 674.202 240.717 674.361 241.277 674.678C241.837 674.995 242.267 675.434 242.565 675.994C242.873 676.545 243.027 677.17 243.027 677.87ZM241.711 677.604C241.711 677.119 241.604 676.703 241.389 676.358C241.175 676.003 240.881 675.737 240.507 675.56C240.143 675.373 239.737 675.28 239.289 675.28C238.645 675.28 238.095 675.485 237.637 675.896C237.189 676.307 236.933 676.876 236.867 677.604H241.711ZM245.115 682.084C244.872 682.084 244.667 682 244.499 681.832C244.331 681.664 244.247 681.459 244.247 681.216C244.247 680.973 244.331 680.768 244.499 680.6C244.667 680.432 244.872 680.348 245.115 680.348C245.348 680.348 245.544 680.432 245.703 680.6C245.871 680.768 245.955 680.973 245.955 681.216C245.955 681.459 245.871 681.664 245.703 681.832C245.544 682 245.348 682.084 245.115 682.084ZM245.115 676.092C244.872 676.092 244.667 676.008 244.499 675.84C244.331 675.672 244.247 675.467 244.247 675.224C244.247 674.981 244.331 674.776 244.499 674.608C244.667 674.44 244.872 674.356 245.115 674.356C245.348 674.356 245.544 674.44 245.703 674.608C245.871 674.776 245.955 674.981 245.955 675.224C245.955 675.467 245.871 675.672 245.703 675.84C245.544 676.008 245.348 676.092 245.115 676.092ZM269.538 673.04V671.878H272.17V682H270.882V673.04H269.538ZM280.812 672.984H275.898V676.176C276.113 675.877 276.43 675.635 276.85 675.448C277.27 675.252 277.723 675.154 278.208 675.154C278.983 675.154 279.613 675.317 280.098 675.644C280.584 675.961 280.929 676.377 281.134 676.89C281.349 677.394 281.456 677.931 281.456 678.5C281.456 679.172 281.33 679.774 281.078 680.306C280.826 680.838 280.439 681.258 279.916 681.566C279.403 681.874 278.764 682.028 277.998 682.028C277.018 682.028 276.225 681.776 275.618 681.272C275.012 680.768 274.643 680.096 274.512 679.256H275.758C275.88 679.788 276.136 680.203 276.528 680.502C276.92 680.801 277.415 680.95 278.012 680.95C278.75 680.95 279.305 680.731 279.678 680.292C280.052 679.844 280.238 679.256 280.238 678.528C280.238 677.8 280.052 677.24 279.678 676.848C279.305 676.447 278.754 676.246 278.026 676.246C277.532 676.246 277.098 676.367 276.724 676.61C276.36 676.843 276.094 677.165 275.926 677.576H274.722V671.864H280.812V672.984ZM286.075 682.126C285.487 682.126 284.96 682.028 284.493 681.832C284.027 681.627 283.658 681.347 283.387 680.992C283.117 680.628 282.967 680.213 282.939 679.746H284.255C284.293 680.129 284.47 680.441 284.787 680.684C285.114 680.927 285.539 681.048 286.061 681.048C286.547 681.048 286.929 680.941 287.209 680.726C287.489 680.511 287.629 680.241 287.629 679.914C287.629 679.578 287.48 679.331 287.181 679.172C286.883 679.004 286.421 678.841 285.795 678.682C285.226 678.533 284.759 678.383 284.395 678.234C284.041 678.075 283.733 677.847 283.471 677.548C283.219 677.24 283.093 676.839 283.093 676.344C283.093 675.952 283.21 675.593 283.443 675.266C283.677 674.939 284.008 674.683 284.437 674.496C284.867 674.3 285.357 674.202 285.907 674.202C286.757 674.202 287.443 674.417 287.965 674.846C288.488 675.275 288.768 675.863 288.805 676.61H287.531C287.503 676.209 287.34 675.887 287.041 675.644C286.752 675.401 286.36 675.28 285.865 675.28C285.408 675.28 285.044 675.378 284.773 675.574C284.503 675.77 284.367 676.027 284.367 676.344C284.367 676.596 284.447 676.806 284.605 676.974C284.773 677.133 284.979 677.263 285.221 677.366C285.473 677.459 285.819 677.567 286.257 677.688C286.808 677.837 287.256 677.987 287.601 678.136C287.947 678.276 288.241 678.491 288.483 678.78C288.735 679.069 288.866 679.447 288.875 679.914C288.875 680.334 288.759 680.712 288.525 681.048C288.292 681.384 287.961 681.65 287.531 681.846C287.111 682.033 286.626 682.126 286.075 682.126ZM297.674 677.87C297.674 678.113 297.66 678.369 297.632 678.64H291.5C291.546 679.396 291.803 679.989 292.27 680.418C292.746 680.838 293.32 681.048 293.992 681.048C294.542 681.048 295 680.922 295.364 680.67C295.737 680.409 295.998 680.063 296.148 679.634H297.52C297.314 680.371 296.904 680.973 296.288 681.44C295.672 681.897 294.906 682.126 293.992 682.126C293.264 682.126 292.61 681.963 292.032 681.636C291.462 681.309 291.014 680.847 290.688 680.25C290.361 679.643 290.198 678.943 290.198 678.15C290.198 677.357 290.356 676.661 290.674 676.064C290.991 675.467 291.434 675.009 292.004 674.692C292.582 674.365 293.245 674.202 293.992 674.202C294.72 674.202 295.364 674.361 295.924 674.678C296.484 674.995 296.913 675.434 297.212 675.994C297.52 676.545 297.674 677.17 297.674 677.87ZM296.358 677.604C296.358 677.119 296.25 676.703 296.036 676.358C295.821 676.003 295.527 675.737 295.154 675.56C294.79 675.373 294.384 675.28 293.936 675.28C293.292 675.28 292.741 675.485 292.284 675.896C291.836 676.307 291.579 676.876 291.514 677.604H296.358ZM298.879 678.15C298.879 677.357 299.038 676.666 299.355 676.078C299.673 675.481 300.111 675.019 300.671 674.692C301.241 674.365 301.889 674.202 302.617 674.202C303.56 674.202 304.335 674.431 304.941 674.888C305.557 675.345 305.963 675.98 306.159 676.792H304.787C304.657 676.325 304.4 675.957 304.017 675.686C303.644 675.415 303.177 675.28 302.617 675.28C301.889 675.28 301.301 675.532 300.853 676.036C300.405 676.531 300.181 677.235 300.181 678.15C300.181 679.074 300.405 679.788 300.853 680.292C301.301 680.796 301.889 681.048 302.617 681.048C303.177 681.048 303.644 680.917 304.017 680.656C304.391 680.395 304.647 680.021 304.787 679.536H306.159C305.954 680.32 305.543 680.95 304.927 681.426C304.311 681.893 303.541 682.126 302.617 682.126C301.889 682.126 301.241 681.963 300.671 681.636C300.111 681.309 299.673 680.847 299.355 680.25C299.038 679.653 298.879 678.953 298.879 678.15Z" fill="white"/>
<circle cx="195" cy="282" r="125" fill="#05A6C3"/>
<g filter="url(#filter0_f_61_1730)">
<circle cx="195" cy="282" r="125" fill="#05A6C3"/>
<circle cx="195" cy="282" r="124.5" stroke="#FFF02C"/>
</g>
<rect x="135" y="708" width="120" height="40" rx="20" fill="#FF3778"/>
<path d="M163.068 728.128L166.064 733H164.622L162.284 729.192L160.058 733H158.644L161.626 728.128L158.63 723.242H160.058L162.41 727.064L164.65 723.242H166.078L163.068 728.128ZM182.227 728.114C182.227 727.162 182.442 726.308 182.871 725.552C183.3 724.787 183.884 724.189 184.621 723.76C185.368 723.331 186.194 723.116 187.099 723.116C188.163 723.116 189.092 723.373 189.885 723.886C190.678 724.399 191.257 725.127 191.621 726.07H190.095C189.824 725.482 189.432 725.029 188.919 724.712C188.415 724.395 187.808 724.236 187.099 724.236C186.418 724.236 185.806 724.395 185.265 724.712C184.724 725.029 184.299 725.482 183.991 726.07C183.683 726.649 183.529 727.33 183.529 728.114C183.529 728.889 183.683 729.57 183.991 730.158C184.299 730.737 184.724 731.185 185.265 731.502C185.806 731.819 186.418 731.978 187.099 731.978C187.808 731.978 188.415 731.824 188.919 731.516C189.432 731.199 189.824 730.746 190.095 730.158H191.621C191.257 731.091 190.678 731.815 189.885 732.328C189.092 732.832 188.163 733.084 187.099 733.084C186.194 733.084 185.368 732.874 184.621 732.454C183.884 732.025 183.3 731.432 182.871 730.676C182.442 729.92 182.227 729.066 182.227 728.114ZM193.041 729.136C193.041 728.352 193.2 727.666 193.517 727.078C193.835 726.481 194.269 726.019 194.819 725.692C195.379 725.365 196 725.202 196.681 725.202C197.353 725.202 197.937 725.347 198.431 725.636C198.926 725.925 199.295 726.289 199.537 726.728V725.328H200.825V733H199.537V731.572C199.285 732.02 198.907 732.393 198.403 732.692C197.909 732.981 197.33 733.126 196.667 733.126C195.986 733.126 195.37 732.958 194.819 732.622C194.269 732.286 193.835 731.815 193.517 731.208C193.2 730.601 193.041 729.911 193.041 729.136ZM199.537 729.15C199.537 728.571 199.421 728.067 199.187 727.638C198.954 727.209 198.637 726.882 198.235 726.658C197.843 726.425 197.409 726.308 196.933 726.308C196.457 726.308 196.023 726.42 195.631 726.644C195.239 726.868 194.927 727.195 194.693 727.624C194.46 728.053 194.343 728.557 194.343 729.136C194.343 729.724 194.46 730.237 194.693 730.676C194.927 731.105 195.239 731.437 195.631 731.67C196.023 731.894 196.457 732.006 196.933 732.006C197.409 732.006 197.843 731.894 198.235 731.67C198.637 731.437 198.954 731.105 199.187 730.676C199.421 730.237 199.537 729.729 199.537 729.15ZM206.716 725.188C207.65 725.188 208.406 725.473 208.984 726.042C209.563 726.602 209.852 727.414 209.852 728.478V733H208.592V728.66C208.592 727.895 208.401 727.311 208.018 726.91C207.636 726.499 207.113 726.294 206.45 726.294C205.778 726.294 205.242 726.504 204.84 726.924C204.448 727.344 204.252 727.955 204.252 728.758V733H202.978V725.328H204.252V726.42C204.504 726.028 204.845 725.725 205.274 725.51C205.713 725.295 206.194 725.188 206.716 725.188ZM211.457 729.15C211.457 728.357 211.616 727.666 211.933 727.078C212.251 726.481 212.689 726.019 213.249 725.692C213.819 725.365 214.467 725.202 215.195 725.202C216.138 725.202 216.913 725.431 217.519 725.888C218.135 726.345 218.541 726.98 218.737 727.792H217.365C217.235 727.325 216.978 726.957 216.595 726.686C216.222 726.415 215.755 726.28 215.195 726.28C214.467 726.28 213.879 726.532 213.431 727.036C212.983 727.531 212.759 728.235 212.759 729.15C212.759 730.074 212.983 730.788 213.431 731.292C213.879 731.796 214.467 732.048 215.195 732.048C215.755 732.048 216.222 731.917 216.595 731.656C216.969 731.395 217.225 731.021 217.365 730.536H218.737C218.532 731.32 218.121 731.95 217.505 732.426C216.889 732.893 216.119 733.126 215.195 733.126C214.467 733.126 213.819 732.963 213.249 732.636C212.689 732.309 212.251 731.847 211.933 731.25C211.616 730.653 211.457 729.953 211.457 729.15ZM227.437 728.87C227.437 729.113 227.423 729.369 227.395 729.64H221.263C221.31 730.396 221.567 730.989 222.033 731.418C222.509 731.838 223.083 732.048 223.755 732.048C224.306 732.048 224.763 731.922 225.127 731.67C225.501 731.409 225.762 731.063 225.911 730.634H227.283C227.078 731.371 226.667 731.973 226.051 732.44C225.435 732.897 224.67 733.126 223.755 733.126C223.027 733.126 222.374 732.963 221.795 732.636C221.226 732.309 220.778 731.847 220.451 731.25C220.125 730.643 219.961 729.943 219.961 729.15C219.961 728.357 220.12 727.661 220.437 727.064C220.755 726.467 221.198 726.009 221.767 725.692C222.346 725.365 223.009 725.202 223.755 725.202C224.483 725.202 225.127 725.361 225.687 725.678C226.247 725.995 226.677 726.434 226.975 726.994C227.283 727.545 227.437 728.17 227.437 728.87ZM226.121 728.604C226.121 728.119 226.014 727.703 225.799 727.358C225.585 727.003 225.291 726.737 224.917 726.56C224.553 726.373 224.147 726.28 223.699 726.28C223.055 726.28 222.505 726.485 222.047 726.896C221.599 727.307 221.343 727.876 221.277 728.604H226.121ZM230.393 722.64V733H229.119V722.64H230.393Z" fill="white"/>
<path d="M164.242 273.65C163.909 272.25 163.326 271.2 162.492 270.5C161.692 269.8 160.526 269.45 158.992 269.45C156.692 269.45 154.992 270.383 153.892 272.25C152.826 274.083 152.276 277.083 152.242 281.25C153.042 279.917 154.209 278.883 155.742 278.15C157.276 277.383 158.942 277 160.742 277C162.909 277 164.826 277.467 166.492 278.4C168.159 279.333 169.459 280.7 170.392 282.5C171.326 284.267 171.792 286.4 171.792 288.9C171.792 291.267 171.309 293.383 170.342 295.25C169.409 297.083 168.026 298.517 166.192 299.55C164.359 300.583 162.176 301.1 159.642 301.1C156.176 301.1 153.442 300.333 151.442 298.8C149.476 297.267 148.092 295.133 147.292 292.4C146.526 289.633 146.142 286.233 146.142 282.2C146.142 276.1 147.192 271.5 149.292 268.4C151.392 265.267 154.709 263.7 159.242 263.7C162.742 263.7 165.459 264.65 167.392 266.55C169.326 268.45 170.442 270.817 170.742 273.65H164.242ZM159.142 282.75C157.376 282.75 155.892 283.267 154.692 284.3C153.492 285.333 152.892 286.833 152.892 288.8C152.892 290.767 153.442 292.317 154.542 293.45C155.676 294.583 157.259 295.15 159.292 295.15C161.092 295.15 162.509 294.6 163.542 293.5C164.609 292.4 165.142 290.917 165.142 289.05C165.142 287.117 164.626 285.583 163.592 284.45C162.592 283.317 161.109 282.75 159.142 282.75ZM201.825 270.6H185.625V279.15C186.325 278.283 187.325 277.583 188.625 277.05C189.925 276.483 191.308 276.2 192.775 276.2C195.441 276.2 197.625 276.783 199.325 277.95C201.025 279.117 202.258 280.617 203.025 282.45C203.791 284.25 204.175 286.183 204.175 288.25C204.175 292.083 203.075 295.167 200.875 297.5C198.708 299.833 195.608 301 191.575 301C187.775 301 184.741 300.05 182.475 298.15C180.208 296.25 178.925 293.767 178.625 290.7H185.425C185.725 292.033 186.391 293.1 187.425 293.9C188.491 294.7 189.841 295.1 191.475 295.1C193.441 295.1 194.925 294.483 195.925 293.25C196.925 292.017 197.425 290.383 197.425 288.35C197.425 286.283 196.908 284.717 195.875 283.65C194.875 282.55 193.391 282 191.425 282C190.025 282 188.858 282.35 187.925 283.05C186.991 283.75 186.325 284.683 185.925 285.85H179.225V264.45H201.825V270.6ZM208.703 273.5C208.703 270.967 209.436 268.983 210.903 267.55C212.403 266.117 214.319 265.4 216.653 265.4C218.986 265.4 220.886 266.117 222.353 267.55C223.853 268.983 224.603 270.967 224.603 273.5C224.603 276.067 223.853 278.067 222.353 279.5C220.886 280.933 218.986 281.65 216.653 281.65C214.319 281.65 212.403 280.933 210.903 279.5C209.436 278.067 208.703 276.067 208.703 273.5ZM240.803 266L221.153 301H214.353L233.953 266H240.803ZM216.603 269.6C214.769 269.6 213.853 270.9 213.853 273.5C213.853 276.133 214.769 277.45 216.603 277.45C217.503 277.45 218.203 277.133 218.703 276.5C219.203 275.833 219.453 274.833 219.453 273.5C219.453 270.9 218.503 269.6 216.603 269.6ZM230.653 293.45C230.653 290.883 231.386 288.9 232.853 287.5C234.353 286.067 236.269 285.35 238.603 285.35C240.936 285.35 242.819 286.067 244.253 287.5C245.719 288.9 246.453 290.883 246.453 293.45C246.453 296.017 245.719 298.017 244.253 299.45C242.819 300.883 240.936 301.6 238.603 301.6C236.236 301.6 234.319 300.883 232.853 299.45C231.386 298.017 230.653 296.017 230.653 293.45ZM238.553 289.55C236.653 289.55 235.703 290.85 235.703 293.45C235.703 296.083 236.653 297.4 238.553 297.4C240.419 297.4 241.353 296.083 241.353 293.45C241.353 290.85 240.419 289.55 238.553 289.55Z" fill="white"/>
<g filter="url(#filter1_f_61_1730)">
<circle cx="83" cy="335" r="10" fill="#FFF02C"/>
</g>
<path d="M347.608 86.8674C347.363 86.8675 347.12 86.8193 346.893 86.7255C346.666 86.6317 346.46 86.4942 346.287 86.3208C346.113 86.1474 345.976 85.9415 345.882 85.715C345.788 85.4884 345.74 85.2455 345.74 85.0002C345.739 84.755 345.788 84.5121 345.881 84.2854C345.975 84.0588 346.113 83.8528 346.286 83.6793C346.46 83.5058 346.665 83.3682 346.892 83.2742C347.119 83.1803 347.361 83.1319 347.607 83.1318C348.102 83.1317 348.577 83.3283 348.928 83.6785C349.278 84.0286 349.475 84.5037 349.475 84.999C349.475 85.4944 349.279 85.9696 348.928 86.3199C348.578 86.6703 348.103 86.8673 347.608 86.8674Z" fill="white"/>
<path d="M341.198 86.8672C342.229 86.8672 343.065 86.0312 343.065 85C343.065 83.9688 342.229 83.1328 341.198 83.1328C340.166 83.1328 339.33 83.9688 339.33 85C339.33 86.0312 340.166 86.8672 341.198 86.8672Z" fill="white"/>
<path d="M334.786 86.8672C335.817 86.8672 336.653 86.0312 336.653 85C336.653 83.9688 335.817 83.1328 334.786 83.1328C333.755 83.1328 332.919 83.9688 332.919 85C332.919 86.0312 333.755 86.8672 334.786 86.8672Z" fill="white"/>
<defs>
<filter id="filter0_f_61_1730" x="66" y="153" width="258" height="258" filterUnits="userSpaceOnUse" color-interpolation-filters="sRGB">
<feFlood flood-opacity="0" result="BackgroundImageFix"/>
<feBlend mode="normal" in="SourceGraphic" in2="BackgroundImageFix" result="shape"/>
<feGaussianBlur stdDeviation="2" result="effect1_foregroundBlur_61_1730"/>
</filter>
<filter id="filter1_f_61_1730" x="58" y="310" width="50" height="50" filterUnits="userSpaceOnUse" color-interpolation-filters="sRGB">
<feFlood flood-opacity="0" result="BackgroundImageFix"/>
<feBlend mode="normal" in="SourceGraphic" in2="BackgroundImageFix" result="shape"/>
<feGaussianBlur stdDeviation="7.5" result="effect1_foregroundBlur_61_1730"/>
</filter>
<clipPath id="clip0_61_1730">
<rect width="24" height="24" fill="white" transform="translate(38 73)"/>
</clipPath>
</defs>
</svg>
