<svg width="390" height="841" viewBox="0 0 390 841" fill="none" xmlns="http://www.w3.org/2000/svg">
<rect y="7" width="390" height="834" fill="#00C6E8"/>
<path d="M132.034 738.14H128.386L127.714 740H126.562L129.586 731.684H130.846L133.858 740H132.706L132.034 738.14ZM131.722 737.252L130.21 733.028L128.698 737.252H131.722ZM136.268 731.12V740H135.176V731.12H136.268ZM139.221 734.492C139.413 734.116 139.685 733.824 140.037 733.616C140.397 733.408 140.833 733.304 141.345 733.304V734.432H141.057C139.833 734.432 139.221 735.096 139.221 736.424V740H138.129V733.424H139.221V734.492ZM148.606 736.46C148.606 736.668 148.594 736.888 148.57 737.12H143.314C143.354 737.768 143.574 738.276 143.974 738.644C144.382 739.004 144.874 739.184 145.45 739.184C145.922 739.184 146.314 739.076 146.626 738.86C146.946 738.636 147.17 738.34 147.298 737.972H148.474C148.298 738.604 147.946 739.12 147.418 739.52C146.89 739.912 146.234 740.108 145.45 740.108C144.826 740.108 144.266 739.968 143.77 739.688C143.282 739.408 142.898 739.012 142.618 738.5C142.338 737.98 142.198 737.38 142.198 736.7C142.198 736.02 142.334 735.424 142.606 734.912C142.878 734.4 143.258 734.008 143.746 733.736C144.242 733.456 144.81 733.316 145.45 733.316C146.074 733.316 146.626 733.452 147.106 733.724C147.586 733.996 147.954 734.372 148.21 734.852C148.474 735.324 148.606 735.86 148.606 736.46ZM147.478 736.232C147.478 735.816 147.386 735.46 147.202 735.164C147.018 734.86 146.766 734.632 146.446 734.48C146.134 734.32 145.786 734.24 145.402 734.24C144.85 734.24 144.378 734.416 143.986 734.768C143.602 735.12 143.382 735.608 143.326 736.232H147.478ZM149.639 736.688C149.639 736.016 149.775 735.428 150.047 734.924C150.319 734.412 150.691 734.016 151.163 733.736C151.643 733.456 152.175 733.316 152.759 733.316C153.335 733.316 153.835 733.44 154.259 733.688C154.683 733.936 154.999 734.248 155.207 734.624V733.424H156.311V740H155.207V738.776C154.991 739.16 154.667 739.48 154.235 739.736C153.811 739.984 153.315 740.108 152.747 740.108C152.163 740.108 151.635 739.964 151.163 739.676C150.691 739.388 150.319 738.984 150.047 738.464C149.775 737.944 149.639 737.352 149.639 736.688ZM155.207 736.7C155.207 736.204 155.107 735.772 154.907 735.404C154.707 735.036 154.435 734.756 154.091 734.564C153.755 734.364 153.383 734.264 152.975 734.264C152.567 734.264 152.195 734.36 151.859 734.552C151.523 734.744 151.255 735.024 151.055 735.392C150.855 735.76 150.755 736.192 150.755 736.688C150.755 737.192 150.855 737.632 151.055 738.008C151.255 738.376 151.523 738.66 151.859 738.86C152.195 739.052 152.567 739.148 152.975 739.148C153.383 739.148 153.755 739.052 154.091 738.86C154.435 738.66 154.707 738.376 154.907 738.008C155.107 737.632 155.207 737.196 155.207 736.7ZM157.748 736.688C157.748 736.016 157.884 735.428 158.156 734.924C158.428 734.412 158.8 734.016 159.272 733.736C159.752 733.456 160.288 733.316 160.88 733.316C161.392 733.316 161.868 733.436 162.308 733.676C162.748 733.908 163.084 734.216 163.316 734.6V731.12H164.42V740H163.316V738.764C163.1 739.156 162.78 739.48 162.356 739.736C161.932 739.984 161.436 740.108 160.868 740.108C160.284 740.108 159.752 739.964 159.272 739.676C158.8 739.388 158.428 738.984 158.156 738.464C157.884 737.944 157.748 737.352 157.748 736.688ZM163.316 736.7C163.316 736.204 163.216 735.772 163.016 735.404C162.816 735.036 162.544 734.756 162.2 734.564C161.864 734.364 161.492 734.264 161.084 734.264C160.676 734.264 160.304 734.36 159.968 734.552C159.632 734.744 159.364 735.024 159.164 735.392C158.964 735.76 158.864 736.192 158.864 736.688C158.864 737.192 158.964 737.632 159.164 738.008C159.364 738.376 159.632 738.66 159.968 738.86C160.304 739.052 160.676 739.148 161.084 739.148C161.492 739.148 161.864 739.052 162.2 738.86C162.544 738.66 162.816 738.376 163.016 738.008C163.216 737.632 163.316 737.196 163.316 736.7ZM171.93 733.424L167.97 743.096H166.842L168.138 739.928L165.486 733.424H166.698L168.762 738.752L170.802 733.424H171.93ZM179.491 733.304C179.987 733.304 180.435 733.412 180.835 733.628C181.235 733.836 181.547 734.152 181.771 734.576C182.003 735 182.119 735.516 182.119 736.124V740H181.039V736.28C181.039 735.624 180.875 735.124 180.547 734.78C180.219 734.428 179.771 734.252 179.203 734.252C178.627 734.252 178.167 734.432 177.823 734.792C177.487 735.152 177.319 735.676 177.319 736.364V740H176.227V731.12H177.319V734.36C177.535 734.024 177.831 733.764 178.207 733.58C178.591 733.396 179.019 733.304 179.491 733.304ZM183.495 736.688C183.495 736.016 183.631 735.428 183.903 734.924C184.175 734.412 184.547 734.016 185.019 733.736C185.499 733.456 186.031 733.316 186.615 733.316C187.191 733.316 187.691 733.44 188.115 733.688C188.539 733.936 188.855 734.248 189.063 734.624V733.424H190.167V740H189.063V738.776C188.847 739.16 188.523 739.48 188.091 739.736C187.667 739.984 187.171 740.108 186.603 740.108C186.019 740.108 185.491 739.964 185.019 739.676C184.547 739.388 184.175 738.984 183.903 738.464C183.631 737.944 183.495 737.352 183.495 736.688ZM189.063 736.7C189.063 736.204 188.963 735.772 188.763 735.404C188.563 735.036 188.291 734.756 187.947 734.564C187.611 734.364 187.239 734.264 186.831 734.264C186.423 734.264 186.051 734.36 185.715 734.552C185.379 734.744 185.111 735.024 184.911 735.392C184.711 735.76 184.611 736.192 184.611 736.688C184.611 737.192 184.711 737.632 184.911 738.008C185.111 738.376 185.379 738.66 185.715 738.86C186.051 739.052 186.423 739.148 186.831 739.148C187.239 739.148 187.611 739.052 187.947 738.86C188.291 738.66 188.563 738.376 188.763 738.008C188.963 737.632 189.063 737.196 189.063 736.7ZM194.46 738.992L196.5 733.424H197.664L195.084 740H193.812L191.232 733.424H192.408L194.46 738.992ZM204.738 736.46C204.738 736.668 204.726 736.888 204.702 737.12H199.446C199.486 737.768 199.706 738.276 200.106 738.644C200.514 739.004 201.006 739.184 201.582 739.184C202.054 739.184 202.446 739.076 202.758 738.86C203.078 738.636 203.302 738.34 203.43 737.972H204.606C204.43 738.604 204.078 739.12 203.55 739.52C203.022 739.912 202.366 740.108 201.582 740.108C200.958 740.108 200.398 739.968 199.902 739.688C199.414 739.408 199.03 739.012 198.75 738.5C198.47 737.98 198.33 737.38 198.33 736.7C198.33 736.02 198.466 735.424 198.738 734.912C199.01 734.4 199.39 734.008 199.878 733.736C200.374 733.456 200.942 733.316 201.582 733.316C202.206 733.316 202.758 733.452 203.238 733.724C203.718 733.996 204.086 734.372 204.342 734.852C204.606 735.324 204.738 735.86 204.738 736.46ZM203.61 736.232C203.61 735.816 203.518 735.46 203.334 735.164C203.15 734.86 202.898 734.632 202.578 734.48C202.266 734.32 201.918 734.24 201.534 734.24C200.982 734.24 200.51 734.416 200.118 734.768C199.734 735.12 199.514 735.608 199.458 736.232H203.61ZM208.971 736.688C208.971 736.016 209.107 735.428 209.379 734.924C209.651 734.412 210.023 734.016 210.495 733.736C210.975 733.456 211.507 733.316 212.091 733.316C212.667 733.316 213.167 733.44 213.591 733.688C214.015 733.936 214.331 734.248 214.539 734.624V733.424H215.643V740H214.539V738.776C214.323 739.16 213.999 739.48 213.567 739.736C213.143 739.984 212.647 740.108 212.079 740.108C211.495 740.108 210.967 739.964 210.495 739.676C210.023 739.388 209.651 738.984 209.379 738.464C209.107 737.944 208.971 737.352 208.971 736.688ZM214.539 736.7C214.539 736.204 214.439 735.772 214.239 735.404C214.039 735.036 213.767 734.756 213.423 734.564C213.087 734.364 212.715 734.264 212.307 734.264C211.899 734.264 211.527 734.36 211.191 734.552C210.855 734.744 210.587 735.024 210.387 735.392C210.187 735.76 210.087 736.192 210.087 736.688C210.087 737.192 210.187 737.632 210.387 738.008C210.587 738.376 210.855 738.66 211.191 738.86C211.527 739.052 211.899 739.148 212.307 739.148C212.715 739.148 213.087 739.052 213.423 738.86C213.767 738.66 214.039 738.376 214.239 738.008C214.439 737.632 214.539 737.196 214.539 736.7ZM217.08 736.7C217.08 736.02 217.216 735.428 217.488 734.924C217.76 734.412 218.136 734.016 218.616 733.736C219.104 733.456 219.66 733.316 220.284 733.316C221.092 733.316 221.756 733.512 222.276 733.904C222.804 734.296 223.152 734.84 223.32 735.536H222.144C222.032 735.136 221.812 734.82 221.484 734.588C221.164 734.356 220.764 734.24 220.284 734.24C219.66 734.24 219.156 734.456 218.772 734.888C218.388 735.312 218.196 735.916 218.196 736.7C218.196 737.492 218.388 738.104 218.772 738.536C219.156 738.968 219.66 739.184 220.284 739.184C220.764 739.184 221.164 739.072 221.484 738.848C221.804 738.624 222.024 738.304 222.144 737.888H223.32C223.144 738.56 222.792 739.1 222.264 739.508C221.736 739.908 221.076 740.108 220.284 740.108C219.66 740.108 219.104 739.968 218.616 739.688C218.136 739.408 217.76 739.012 217.488 738.5C217.216 737.988 217.08 737.388 217.08 736.7ZM224.37 736.7C224.37 736.02 224.506 735.428 224.778 734.924C225.05 734.412 225.426 734.016 225.906 733.736C226.394 733.456 226.95 733.316 227.574 733.316C228.382 733.316 229.046 733.512 229.566 733.904C230.094 734.296 230.442 734.84 230.61 735.536H229.434C229.322 735.136 229.102 734.82 228.774 734.588C228.454 734.356 228.054 734.24 227.574 734.24C226.95 734.24 226.446 734.456 226.062 734.888C225.678 735.312 225.486 735.916 225.486 736.7C225.486 737.492 225.678 738.104 226.062 738.536C226.446 738.968 226.95 739.184 227.574 739.184C228.054 739.184 228.454 739.072 228.774 738.848C229.094 738.624 229.314 738.304 229.434 737.888H230.61C230.434 738.56 230.082 739.1 229.554 739.508C229.026 739.908 228.366 740.108 227.574 740.108C226.95 740.108 226.394 739.968 225.906 739.688C225.426 739.408 225.05 739.012 224.778 738.5C224.506 737.988 224.37 737.388 224.37 736.7ZM234.935 740.108C234.319 740.108 233.759 739.968 233.255 739.688C232.759 739.408 232.367 739.012 232.079 738.5C231.799 737.98 231.659 737.38 231.659 736.7C231.659 736.028 231.803 735.436 232.091 734.924C232.387 734.404 232.787 734.008 233.291 733.736C233.795 733.456 234.359 733.316 234.983 733.316C235.607 733.316 236.171 733.456 236.675 733.736C237.179 734.008 237.575 734.4 237.863 734.912C238.159 735.424 238.307 736.02 238.307 736.7C238.307 737.38 238.155 737.98 237.851 738.5C237.555 739.012 237.151 739.408 236.639 739.688C236.127 739.968 235.559 740.108 234.935 740.108ZM234.935 739.148C235.327 739.148 235.695 739.056 236.039 738.872C236.383 738.688 236.659 738.412 236.867 738.044C237.083 737.676 237.191 737.228 237.191 736.7C237.191 736.172 237.087 735.724 236.879 735.356C236.671 734.988 236.399 734.716 236.063 734.54C235.727 734.356 235.363 734.264 234.971 734.264C234.571 734.264 234.203 734.356 233.867 734.54C233.539 734.716 233.275 734.988 233.075 735.356C232.875 735.724 232.775 736.172 232.775 736.7C232.775 737.236 232.871 737.688 233.063 738.056C233.263 738.424 233.527 738.7 233.855 738.884C234.183 739.06 234.543 739.148 234.935 739.148ZM245.574 733.424V740H244.482V739.028C244.274 739.364 243.982 739.628 243.606 739.82C243.238 740.004 242.83 740.096 242.382 740.096C241.87 740.096 241.41 739.992 241.002 739.784C240.594 739.568 240.27 739.248 240.03 738.824C239.798 738.4 239.682 737.884 239.682 737.276V733.424H240.762V737.132C240.762 737.78 240.926 738.28 241.254 738.632C241.582 738.976 242.03 739.148 242.598 739.148C243.182 739.148 243.642 738.968 243.978 738.608C244.314 738.248 244.482 737.724 244.482 737.036V733.424H245.574ZM250.622 733.304C251.422 733.304 252.07 733.548 252.566 734.036C253.062 734.516 253.31 735.212 253.31 736.124V740H252.23V736.28C252.23 735.624 252.066 735.124 251.738 734.78C251.41 734.428 250.962 734.252 250.394 734.252C249.818 734.252 249.358 734.432 249.014 734.792C248.678 735.152 248.51 735.676 248.51 736.364V740H247.418V733.424H248.51V734.36C248.726 734.024 249.018 733.764 249.386 733.58C249.762 733.396 250.174 733.304 250.622 733.304ZM256.426 734.324V738.2C256.426 738.52 256.494 738.748 256.63 738.884C256.766 739.012 257.002 739.076 257.338 739.076H258.142V740H257.158C256.55 740 256.094 739.86 255.79 739.58C255.486 739.3 255.334 738.84 255.334 738.2V734.324H254.482V733.424H255.334V731.768H256.426V733.424H258.142V734.324H256.426ZM261.601 731.528C262.393 731.528 263.033 731.752 263.521 732.2C264.009 732.648 264.253 733.248 264.253 734C264.253 734.84 263.993 735.464 263.473 735.872C262.953 736.272 262.249 736.472 261.361 736.472L261.325 737.612H260.377L260.329 735.716H260.677C261.469 735.716 262.089 735.596 262.537 735.356C262.985 735.116 263.209 734.664 263.209 734C263.209 733.52 263.065 733.14 262.777 732.86C262.489 732.58 262.101 732.44 261.613 732.44C261.117 732.44 260.725 732.576 260.437 732.848C260.157 733.112 260.017 733.476 260.017 733.94H258.985C258.985 733.46 259.093 733.04 259.309 732.68C259.525 732.312 259.829 732.028 260.221 731.828C260.621 731.628 261.081 731.528 261.601 731.528ZM260.845 740.072C260.637 740.072 260.461 740 260.317 739.856C260.173 739.712 260.101 739.536 260.101 739.328C260.101 739.12 260.173 738.944 260.317 738.8C260.461 738.656 260.637 738.584 260.845 738.584C261.045 738.584 261.213 738.656 261.349 738.8C261.493 738.944 261.565 739.12 261.565 739.328C261.565 739.536 261.493 739.712 261.349 739.856C261.213 740 261.045 740.072 260.845 740.072ZM181.732 756.416H184.42V758H179.68V749.576H181.732V756.416ZM188.446 758.096C187.79 758.096 187.198 757.956 186.67 757.676C186.15 757.396 185.738 756.996 185.434 756.476C185.138 755.956 184.99 755.348 184.99 754.652C184.99 753.964 185.142 753.36 185.446 752.84C185.75 752.312 186.166 751.908 186.694 751.628C187.222 751.348 187.814 751.208 188.47 751.208C189.126 751.208 189.718 751.348 190.246 751.628C190.774 751.908 191.19 752.312 191.494 752.84C191.798 753.36 191.95 753.964 191.95 754.652C191.95 755.34 191.794 755.948 191.482 756.476C191.178 756.996 190.758 757.396 190.222 757.676C189.694 757.956 189.102 758.096 188.446 758.096ZM188.446 756.32C188.838 756.32 189.17 756.176 189.442 755.888C189.722 755.6 189.862 755.188 189.862 754.652C189.862 754.116 189.726 753.704 189.454 753.416C189.19 753.128 188.862 752.984 188.47 752.984C188.07 752.984 187.738 753.128 187.474 753.416C187.21 753.696 187.078 754.108 187.078 754.652C187.078 755.188 187.206 755.6 187.462 755.888C187.726 756.176 188.054 756.32 188.446 756.32ZM195.583 751.208C196.055 751.208 196.467 751.304 196.819 751.496C197.179 751.688 197.455 751.94 197.647 752.252V751.304H199.699V757.988C199.699 758.604 199.575 759.16 199.327 759.656C199.087 760.16 198.715 760.56 198.211 760.856C197.715 761.152 197.095 761.3 196.351 761.3C195.359 761.3 194.555 761.064 193.939 760.592C193.323 760.128 192.971 759.496 192.883 758.696H194.911C194.975 758.952 195.127 759.152 195.367 759.296C195.607 759.448 195.903 759.524 196.255 759.524C196.679 759.524 197.015 759.4 197.263 759.152C197.519 758.912 197.647 758.524 197.647 757.988V757.04C197.447 757.352 197.171 757.608 196.819 757.808C196.467 758 196.055 758.096 195.583 758.096C195.031 758.096 194.531 757.956 194.083 757.676C193.635 757.388 193.279 756.984 193.015 756.464C192.759 755.936 192.631 755.328 192.631 754.64C192.631 753.952 192.759 753.348 193.015 752.828C193.279 752.308 193.635 751.908 194.083 751.628C194.531 751.348 195.031 751.208 195.583 751.208ZM197.647 754.652C197.647 754.14 197.503 753.736 197.215 753.44C196.935 753.144 196.591 752.996 196.183 752.996C195.775 752.996 195.427 753.144 195.139 753.44C194.859 753.728 194.719 754.128 194.719 754.64C194.719 755.152 194.859 755.56 195.139 755.864C195.427 756.16 195.775 756.308 196.183 756.308C196.591 756.308 196.935 756.16 197.215 755.864C197.503 755.568 197.647 755.164 197.647 754.652ZM202.215 750.608C201.855 750.608 201.559 750.504 201.327 750.296C201.103 750.08 200.991 749.816 200.991 749.504C200.991 749.184 201.103 748.92 201.327 748.712C201.559 748.496 201.855 748.388 202.215 748.388C202.567 748.388 202.855 748.496 203.079 748.712C203.311 748.92 203.427 749.184 203.427 749.504C203.427 749.816 203.311 750.08 203.079 750.296C202.855 750.504 202.567 750.608 202.215 750.608ZM203.235 751.304V758H201.183V751.304H203.235ZM208.803 751.232C209.587 751.232 210.211 751.488 210.675 752C211.147 752.504 211.383 753.2 211.383 754.088V758H209.343V754.364C209.343 753.916 209.227 753.568 208.995 753.32C208.763 753.072 208.451 752.948 208.059 752.948C207.667 752.948 207.355 753.072 207.123 753.32C206.891 753.568 206.775 753.916 206.775 754.364V758H204.723V751.304H206.775V752.192C206.983 751.896 207.263 751.664 207.615 751.496C207.967 751.32 208.363 751.232 208.803 751.232Z" fill="white"/>
<path d="M178.936 759.2H212.067V759.8H178.936V759.2Z" fill="white"/>
<path d="M192.812 602.098C191.907 602.098 191.072 601.888 190.306 601.468C189.55 601.039 188.948 600.446 188.5 599.69C188.062 598.925 187.842 598.066 187.842 597.114C187.842 596.162 188.062 595.308 188.5 594.552C188.948 593.796 189.55 593.208 190.306 592.788C191.072 592.359 191.907 592.144 192.812 592.144C193.727 592.144 194.562 592.359 195.318 592.788C196.084 593.208 196.686 593.796 197.124 594.552C197.563 595.308 197.782 596.162 197.782 597.114C197.782 598.066 197.563 598.925 197.124 599.69C196.686 600.446 196.084 601.039 195.318 601.468C194.562 601.888 193.727 602.098 192.812 602.098ZM192.812 600.712C193.456 600.712 194.03 600.567 194.534 600.278C195.038 599.979 195.43 599.559 195.71 599.018C196 598.467 196.144 597.833 196.144 597.114C196.144 596.395 196 595.765 195.71 595.224C195.43 594.683 195.038 594.267 194.534 593.978C194.03 593.689 193.456 593.544 192.812 593.544C192.168 593.544 191.594 593.689 191.09 593.978C190.586 594.267 190.19 594.683 189.9 595.224C189.62 595.765 189.48 596.395 189.48 597.114C189.48 597.833 189.62 598.467 189.9 599.018C190.19 599.559 190.586 599.979 191.09 600.278C191.594 600.567 192.168 600.712 192.812 600.712ZM200.949 595.406C201.182 595.014 201.49 594.711 201.873 594.496C202.265 594.272 202.727 594.16 203.259 594.16V595.812H202.853C202.227 595.812 201.751 595.971 201.425 596.288C201.107 596.605 200.949 597.156 200.949 597.94V602H199.353V594.286H200.949V595.406Z" fill="#E6E6E6"/>
<rect x="92" y="529" width="206" height="43" rx="21.5" fill="#FFF02C"/>
<path d="M169.02 557L166.556 552.648H165.5V557H163.26V545.832H167.452C168.316 545.832 169.052 545.987 169.66 546.296C170.268 546.595 170.722 547.005 171.02 547.528C171.33 548.04 171.484 548.616 171.484 549.256C171.484 549.992 171.271 550.659 170.844 551.256C170.418 551.843 169.783 552.248 168.94 552.472L171.612 557H169.02ZM165.5 550.968H167.372C167.98 550.968 168.434 550.824 168.732 550.536C169.031 550.237 169.18 549.827 169.18 549.304C169.18 548.792 169.031 548.397 168.732 548.12C168.434 547.832 167.98 547.688 167.372 547.688H165.5V550.968ZM181.75 552.376C181.75 552.696 181.729 552.984 181.686 553.24H175.206C175.26 553.88 175.484 554.381 175.878 554.744C176.273 555.107 176.758 555.288 177.334 555.288C178.166 555.288 178.758 554.931 179.11 554.216H181.526C181.27 555.069 180.78 555.773 180.054 556.328C179.329 556.872 178.438 557.144 177.382 557.144C176.529 557.144 175.761 556.957 175.078 556.584C174.406 556.2 173.878 555.661 173.494 554.968C173.121 554.275 172.934 553.475 172.934 552.568C172.934 551.651 173.121 550.845 173.494 550.152C173.868 549.459 174.39 548.925 175.062 548.552C175.734 548.179 176.508 547.992 177.382 547.992C178.225 547.992 178.977 548.173 179.638 548.536C180.31 548.899 180.828 549.416 181.19 550.088C181.564 550.749 181.75 551.512 181.75 552.376ZM179.43 551.736C179.42 551.16 179.212 550.701 178.806 550.36C178.401 550.008 177.905 549.832 177.318 549.832C176.764 549.832 176.294 550.003 175.91 550.344C175.537 550.675 175.308 551.139 175.222 551.736H179.43ZM186.857 547.992C187.519 547.992 188.1 548.125 188.601 548.392C189.103 548.648 189.497 548.984 189.785 549.4V548.136H192.041V557.064C192.041 557.885 191.876 558.616 191.545 559.256C191.215 559.907 190.719 560.419 190.057 560.792C189.396 561.176 188.596 561.368 187.657 561.368C186.399 561.368 185.364 561.075 184.553 560.488C183.753 559.901 183.3 559.101 183.193 558.088H185.417C185.535 558.493 185.785 558.813 186.169 559.048C186.564 559.293 187.039 559.416 187.593 559.416C188.244 559.416 188.772 559.219 189.177 558.824C189.583 558.44 189.785 557.853 189.785 557.064V555.688C189.497 556.104 189.097 556.451 188.585 556.728C188.084 557.005 187.508 557.144 186.857 557.144C186.111 557.144 185.428 556.952 184.809 556.568C184.191 556.184 183.7 555.645 183.337 554.952C182.985 554.248 182.809 553.443 182.809 552.536C182.809 551.64 182.985 550.845 183.337 550.152C183.7 549.459 184.185 548.925 184.793 548.552C185.412 548.179 186.1 547.992 186.857 547.992ZM189.785 552.568C189.785 552.024 189.679 551.56 189.465 551.176C189.252 550.781 188.964 550.483 188.601 550.28C188.239 550.067 187.849 549.96 187.433 549.96C187.017 549.96 186.633 550.061 186.281 550.264C185.929 550.467 185.641 550.765 185.417 551.16C185.204 551.544 185.097 552.003 185.097 552.536C185.097 553.069 185.204 553.539 185.417 553.944C185.641 554.339 185.929 554.643 186.281 554.856C186.644 555.069 187.028 555.176 187.433 555.176C187.849 555.176 188.239 555.075 188.601 554.872C188.964 554.659 189.252 554.36 189.465 553.976C189.679 553.581 189.785 553.112 189.785 552.568ZM195.365 547.08C194.97 547.08 194.64 546.957 194.373 546.712C194.117 546.456 193.989 546.141 193.989 545.768C193.989 545.395 194.117 545.085 194.373 544.84C194.64 544.584 194.97 544.456 195.365 544.456C195.76 544.456 196.085 544.584 196.341 544.84C196.608 545.085 196.741 545.395 196.741 545.768C196.741 546.141 196.608 546.456 196.341 546.712C196.085 546.957 195.76 547.08 195.365 547.08ZM196.469 548.136V557H194.229V548.136H196.469ZM202.074 557.144C201.349 557.144 200.698 557.016 200.122 556.76C199.546 556.493 199.087 556.136 198.746 555.688C198.415 555.24 198.234 554.744 198.202 554.2H200.458C200.501 554.541 200.666 554.824 200.954 555.048C201.253 555.272 201.621 555.384 202.058 555.384C202.485 555.384 202.815 555.299 203.05 555.128C203.295 554.957 203.418 554.739 203.418 554.472C203.418 554.184 203.269 553.971 202.97 553.832C202.682 553.683 202.218 553.523 201.578 553.352C200.917 553.192 200.373 553.027 199.946 552.856C199.53 552.685 199.167 552.424 198.858 552.072C198.559 551.72 198.41 551.245 198.41 550.648C198.41 550.157 198.549 549.709 198.826 549.304C199.114 548.899 199.519 548.579 200.042 548.344C200.575 548.109 201.199 547.992 201.914 547.992C202.97 547.992 203.813 548.259 204.442 548.792C205.071 549.315 205.418 550.024 205.482 550.92H203.338C203.306 550.568 203.157 550.291 202.89 550.088C202.634 549.875 202.287 549.768 201.85 549.768C201.445 549.768 201.13 549.843 200.906 549.992C200.693 550.141 200.586 550.349 200.586 550.616C200.586 550.915 200.735 551.144 201.034 551.304C201.333 551.453 201.797 551.608 202.426 551.768C203.066 551.928 203.594 552.093 204.01 552.264C204.426 552.435 204.783 552.701 205.082 553.064C205.391 553.416 205.551 553.885 205.562 554.472C205.562 554.984 205.418 555.443 205.13 555.848C204.853 556.253 204.447 556.573 203.914 556.808C203.391 557.032 202.778 557.144 202.074 557.144ZM210.009 549.976V554.264C210.009 554.563 210.078 554.781 210.217 554.92C210.366 555.048 210.612 555.112 210.953 555.112H211.993V557H210.585C208.697 557 207.753 556.083 207.753 554.248V549.976H206.697V548.136H207.753V545.944H210.009V548.136H211.993V549.976H210.009ZM221.844 552.376C221.844 552.696 221.823 552.984 221.78 553.24H215.3C215.353 553.88 215.577 554.381 215.972 554.744C216.367 555.107 216.852 555.288 217.428 555.288C218.26 555.288 218.852 554.931 219.204 554.216H221.62C221.364 555.069 220.873 555.773 220.148 556.328C219.423 556.872 218.532 557.144 217.476 557.144C216.623 557.144 215.855 556.957 215.172 556.584C214.5 556.2 213.972 555.661 213.588 554.968C213.215 554.275 213.028 553.475 213.028 552.568C213.028 551.651 213.215 550.845 213.588 550.152C213.961 549.459 214.484 548.925 215.156 548.552C215.828 548.179 216.601 547.992 217.476 547.992C218.319 547.992 219.071 548.173 219.732 548.536C220.404 548.899 220.921 549.416 221.284 550.088C221.657 550.749 221.844 551.512 221.844 552.376ZM219.524 551.736C219.513 551.16 219.305 550.701 218.9 550.36C218.495 550.008 217.999 549.832 217.412 549.832C216.857 549.832 216.388 550.003 216.004 550.344C215.631 550.675 215.401 551.139 215.316 551.736H219.524ZM225.719 549.512C226.007 549.043 226.38 548.675 226.839 548.408C227.308 548.141 227.842 548.008 228.439 548.008V550.36H227.847C227.143 550.36 226.61 550.525 226.247 550.856C225.895 551.187 225.719 551.763 225.719 552.584V557H223.479V548.136H225.719V549.512Z" fill="white"/>
<rect x="43" y="618" width="304" height="43" rx="21.5" fill="white"/>
<path d="M108.891 645.098C108.247 645.098 107.668 644.986 107.155 644.762C106.651 644.529 106.254 644.211 105.965 643.81C105.675 643.399 105.526 642.928 105.517 642.396H106.875C106.921 642.853 107.108 643.241 107.435 643.558C107.771 643.866 108.256 644.02 108.891 644.02C109.497 644.02 109.973 643.871 110.319 643.572C110.673 643.264 110.851 642.872 110.851 642.396C110.851 642.023 110.748 641.719 110.543 641.486C110.337 641.253 110.081 641.075 109.773 640.954C109.465 640.833 109.049 640.702 108.527 640.562C107.883 640.394 107.365 640.226 106.973 640.058C106.59 639.89 106.259 639.629 105.979 639.274C105.708 638.91 105.573 638.425 105.573 637.818C105.573 637.286 105.708 636.815 105.979 636.404C106.249 635.993 106.627 635.676 107.113 635.452C107.607 635.228 108.172 635.116 108.807 635.116C109.721 635.116 110.468 635.345 111.047 635.802C111.635 636.259 111.966 636.866 112.041 637.622H110.641C110.594 637.249 110.398 636.922 110.053 636.642C109.707 636.353 109.25 636.208 108.681 636.208C108.149 636.208 107.715 636.348 107.379 636.628C107.043 636.899 106.875 637.281 106.875 637.776C106.875 638.131 106.973 638.42 107.169 638.644C107.374 638.868 107.621 639.041 107.911 639.162C108.209 639.274 108.625 639.405 109.157 639.554C109.801 639.731 110.319 639.909 110.711 640.086C111.103 640.254 111.439 640.52 111.719 640.884C111.999 641.239 112.139 641.724 112.139 642.34C112.139 642.816 112.013 643.264 111.761 643.684C111.509 644.104 111.135 644.445 110.641 644.706C110.146 644.967 109.563 645.098 108.891 645.098ZM114.672 636.082C114.429 636.082 114.224 635.998 114.056 635.83C113.888 635.662 113.804 635.457 113.804 635.214C113.804 634.971 113.888 634.766 114.056 634.598C114.224 634.43 114.429 634.346 114.672 634.346C114.905 634.346 115.101 634.43 115.26 634.598C115.428 634.766 115.512 634.971 115.512 635.214C115.512 635.457 115.428 635.662 115.26 635.83C115.101 635.998 114.905 636.082 114.672 636.082ZM115.288 637.328V645H114.014V637.328H115.288ZM120.623 637.202C121.286 637.202 121.864 637.347 122.359 637.636C122.863 637.925 123.236 638.289 123.479 638.728V637.328H124.767V645.168C124.767 645.868 124.618 646.489 124.319 647.03C124.02 647.581 123.591 648.01 123.031 648.318C122.48 648.626 121.836 648.78 121.099 648.78C120.091 648.78 119.251 648.542 118.579 648.066C117.907 647.59 117.51 646.941 117.389 646.12H118.649C118.789 646.587 119.078 646.96 119.517 647.24C119.956 647.529 120.483 647.674 121.099 647.674C121.799 647.674 122.368 647.455 122.807 647.016C123.255 646.577 123.479 645.961 123.479 645.168V643.558C123.227 644.006 122.854 644.379 122.359 644.678C121.864 644.977 121.286 645.126 120.623 645.126C119.942 645.126 119.321 644.958 118.761 644.622C118.21 644.286 117.776 643.815 117.459 643.208C117.142 642.601 116.983 641.911 116.983 641.136C116.983 640.352 117.142 639.666 117.459 639.078C117.776 638.481 118.21 638.019 118.761 637.692C119.321 637.365 119.942 637.202 120.623 637.202ZM123.479 641.15C123.479 640.571 123.362 640.067 123.129 639.638C122.896 639.209 122.578 638.882 122.177 638.658C121.785 638.425 121.351 638.308 120.875 638.308C120.399 638.308 119.965 638.42 119.573 638.644C119.181 638.868 118.868 639.195 118.635 639.624C118.402 640.053 118.285 640.557 118.285 641.136C118.285 641.724 118.402 642.237 118.635 642.676C118.868 643.105 119.181 643.437 119.573 643.67C119.965 643.894 120.399 644.006 120.875 644.006C121.351 644.006 121.785 643.894 122.177 643.67C122.578 643.437 122.896 643.105 123.129 642.676C123.362 642.237 123.479 641.729 123.479 641.15ZM130.658 637.188C131.591 637.188 132.347 637.473 132.926 638.042C133.504 638.602 133.794 639.414 133.794 640.478V645H132.534V640.66C132.534 639.895 132.342 639.311 131.96 638.91C131.577 638.499 131.054 638.294 130.392 638.294C129.72 638.294 129.183 638.504 128.782 638.924C128.39 639.344 128.194 639.955 128.194 640.758V645H126.92V637.328H128.194V638.42C128.446 638.028 128.786 637.725 129.216 637.51C129.654 637.295 130.135 637.188 130.658 637.188ZM140.853 635.242V641.416C140.853 642.284 141.063 642.928 141.483 643.348C141.913 643.768 142.505 643.978 143.261 643.978C144.008 643.978 144.591 643.768 145.011 643.348C145.441 642.928 145.655 642.284 145.655 641.416V635.242H146.929V641.402C146.929 642.214 146.766 642.9 146.439 643.46C146.113 644.011 145.669 644.421 145.109 644.692C144.559 644.963 143.938 645.098 143.247 645.098C142.557 645.098 141.931 644.963 141.371 644.692C140.821 644.421 140.382 644.011 140.055 643.46C139.738 642.9 139.579 642.214 139.579 641.402V635.242H140.853ZM150.329 638.742C150.581 638.303 150.954 637.939 151.449 637.65C151.953 637.351 152.536 637.202 153.199 637.202C153.88 637.202 154.496 637.365 155.047 637.692C155.607 638.019 156.045 638.481 156.363 639.078C156.68 639.666 156.839 640.352 156.839 641.136C156.839 641.911 156.68 642.601 156.363 643.208C156.045 643.815 155.607 644.286 155.047 644.622C154.496 644.958 153.88 645.126 153.199 645.126C152.545 645.126 151.967 644.981 151.463 644.692C150.968 644.393 150.59 644.025 150.329 643.586V648.64H149.055V637.328H150.329V638.742ZM155.537 641.136C155.537 640.557 155.42 640.053 155.187 639.624C154.953 639.195 154.636 638.868 154.235 638.644C153.843 638.42 153.409 638.308 152.933 638.308C152.466 638.308 152.032 638.425 151.631 638.658C151.239 638.882 150.921 639.213 150.679 639.652C150.445 640.081 150.329 640.581 150.329 641.15C150.329 641.729 150.445 642.237 150.679 642.676C150.921 643.105 151.239 643.437 151.631 643.67C152.032 643.894 152.466 644.006 152.933 644.006C153.409 644.006 153.843 643.894 154.235 643.67C154.636 643.437 154.953 643.105 155.187 642.676C155.42 642.237 155.537 641.724 155.537 641.136ZM172.468 637.328L170.074 645H168.758L166.91 638.91L165.062 645H163.746L161.338 637.328H162.64L164.404 643.768L166.308 637.328H167.61L169.472 643.782L171.208 637.328H172.468ZM174.39 636.082C174.148 636.082 173.942 635.998 173.774 635.83C173.606 635.662 173.522 635.457 173.522 635.214C173.522 634.971 173.606 634.766 173.774 634.598C173.942 634.43 174.148 634.346 174.39 634.346C174.624 634.346 174.82 634.43 174.978 634.598C175.146 634.766 175.23 634.971 175.23 635.214C175.23 635.457 175.146 635.662 174.978 635.83C174.82 635.998 174.624 636.082 174.39 636.082ZM175.006 637.328V645H173.732V637.328H175.006ZM178.732 638.378V642.9C178.732 643.273 178.811 643.539 178.97 643.698C179.128 643.847 179.404 643.922 179.796 643.922H180.734V645H179.586C178.876 645 178.344 644.837 177.99 644.51C177.635 644.183 177.458 643.647 177.458 642.9V638.378H176.464V637.328H177.458V635.396H178.732V637.328H180.734V638.378H178.732ZM186.085 637.188C186.664 637.188 187.187 637.314 187.653 637.566C188.12 637.809 188.484 638.177 188.745 638.672C189.016 639.167 189.151 639.769 189.151 640.478V645H187.891V640.66C187.891 639.895 187.7 639.311 187.317 638.91C186.935 638.499 186.412 638.294 185.749 638.294C185.077 638.294 184.541 638.504 184.139 638.924C183.747 639.344 183.551 639.955 183.551 640.758V645H182.277V634.64H183.551V638.42C183.803 638.028 184.149 637.725 184.587 637.51C185.035 637.295 185.535 637.188 186.085 637.188ZM202.357 638.07C202.086 637.501 201.694 637.062 201.181 636.754C200.667 636.437 200.07 636.278 199.389 636.278C198.707 636.278 198.091 636.437 197.541 636.754C196.999 637.062 196.57 637.51 196.253 638.098C195.945 638.677 195.791 639.349 195.791 640.114C195.791 640.879 195.945 641.551 196.253 642.13C196.57 642.709 196.999 643.157 197.541 643.474C198.091 643.782 198.707 643.936 199.389 643.936C200.341 643.936 201.125 643.651 201.741 643.082C202.357 642.513 202.716 641.743 202.819 640.772H198.927V639.736H204.177V640.716C204.102 641.519 203.85 642.256 203.421 642.928C202.991 643.591 202.427 644.118 201.727 644.51C201.027 644.893 200.247 645.084 199.389 645.084C198.483 645.084 197.657 644.874 196.911 644.454C196.164 644.025 195.571 643.432 195.133 642.676C194.703 641.92 194.489 641.066 194.489 640.114C194.489 639.162 194.703 638.308 195.133 637.552C195.571 636.787 196.164 636.194 196.911 635.774C197.657 635.345 198.483 635.13 199.389 635.13C200.425 635.13 201.339 635.387 202.133 635.9C202.935 636.413 203.519 637.137 203.883 638.07H202.357ZM209.207 645.126C208.489 645.126 207.835 644.963 207.247 644.636C206.669 644.309 206.211 643.847 205.875 643.25C205.549 642.643 205.385 641.943 205.385 641.15C205.385 640.366 205.553 639.675 205.889 639.078C206.235 638.471 206.701 638.009 207.289 637.692C207.877 637.365 208.535 637.202 209.263 637.202C209.991 637.202 210.649 637.365 211.237 637.692C211.825 638.009 212.287 638.467 212.623 639.064C212.969 639.661 213.141 640.357 213.141 641.15C213.141 641.943 212.964 642.643 212.609 643.25C212.264 643.847 211.793 644.309 211.195 644.636C210.598 644.963 209.935 645.126 209.207 645.126ZM209.207 644.006C209.665 644.006 210.094 643.899 210.495 643.684C210.897 643.469 211.219 643.147 211.461 642.718C211.713 642.289 211.839 641.766 211.839 641.15C211.839 640.534 211.718 640.011 211.475 639.582C211.233 639.153 210.915 638.835 210.523 638.63C210.131 638.415 209.707 638.308 209.249 638.308C208.783 638.308 208.353 638.415 207.961 638.63C207.579 638.835 207.271 639.153 207.037 639.582C206.804 640.011 206.687 640.534 206.687 641.15C206.687 641.775 206.799 642.303 207.023 642.732C207.257 643.161 207.565 643.483 207.947 643.698C208.33 643.903 208.75 644.006 209.207 644.006ZM218.162 645.126C217.444 645.126 216.79 644.963 216.202 644.636C215.624 644.309 215.166 643.847 214.83 643.25C214.504 642.643 214.34 641.943 214.34 641.15C214.34 640.366 214.508 639.675 214.844 639.078C215.19 638.471 215.656 638.009 216.244 637.692C216.832 637.365 217.49 637.202 218.218 637.202C218.946 637.202 219.604 637.365 220.192 637.692C220.78 638.009 221.242 638.467 221.578 639.064C221.924 639.661 222.096 640.357 222.096 641.15C222.096 641.943 221.919 642.643 221.564 643.25C221.219 643.847 220.748 644.309 220.15 644.636C219.553 644.963 218.89 645.126 218.162 645.126ZM218.162 644.006C218.62 644.006 219.049 643.899 219.45 643.684C219.852 643.469 220.174 643.147 220.416 642.718C220.668 642.289 220.794 641.766 220.794 641.15C220.794 640.534 220.673 640.011 220.43 639.582C220.188 639.153 219.87 638.835 219.478 638.63C219.086 638.415 218.662 638.308 218.204 638.308C217.738 638.308 217.308 638.415 216.916 638.63C216.534 638.835 216.226 639.153 215.992 639.582C215.759 640.011 215.642 640.534 215.642 641.15C215.642 641.775 215.754 642.303 215.978 642.732C216.212 643.161 216.52 643.483 216.902 643.698C217.285 643.903 217.705 644.006 218.162 644.006ZM226.935 637.202C227.598 637.202 228.177 637.347 228.671 637.636C229.175 637.925 229.549 638.289 229.791 638.728V637.328H231.079V645.168C231.079 645.868 230.93 646.489 230.631 647.03C230.333 647.581 229.903 648.01 229.343 648.318C228.793 648.626 228.149 648.78 227.411 648.78C226.403 648.78 225.563 648.542 224.891 648.066C224.219 647.59 223.823 646.941 223.701 646.12H224.961C225.101 646.587 225.391 646.96 225.829 647.24C226.268 647.529 226.795 647.674 227.411 647.674C228.111 647.674 228.681 647.455 229.119 647.016C229.567 646.577 229.791 645.961 229.791 645.168V643.558C229.539 644.006 229.166 644.379 228.671 644.678C228.177 644.977 227.598 645.126 226.935 645.126C226.254 645.126 225.633 644.958 225.073 644.622C224.523 644.286 224.089 643.815 223.771 643.208C223.454 642.601 223.295 641.911 223.295 641.136C223.295 640.352 223.454 639.666 223.771 639.078C224.089 638.481 224.523 638.019 225.073 637.692C225.633 637.365 226.254 637.202 226.935 637.202ZM229.791 641.15C229.791 640.571 229.675 640.067 229.441 639.638C229.208 639.209 228.891 638.882 228.489 638.658C228.097 638.425 227.663 638.308 227.187 638.308C226.711 638.308 226.277 638.42 225.885 638.644C225.493 638.868 225.181 639.195 224.947 639.624C224.714 640.053 224.597 640.557 224.597 641.136C224.597 641.724 224.714 642.237 224.947 642.676C225.181 643.105 225.493 643.437 225.885 643.67C226.277 643.894 226.711 644.006 227.187 644.006C227.663 644.006 228.097 643.894 228.489 643.67C228.891 643.437 229.208 643.105 229.441 642.676C229.675 642.237 229.791 641.729 229.791 641.15ZM234.506 634.64V645H233.232V634.64H234.506ZM243.678 640.87C243.678 641.113 243.664 641.369 243.636 641.64H237.504C237.55 642.396 237.807 642.989 238.274 643.418C238.75 643.838 239.324 644.048 239.996 644.048C240.546 644.048 241.004 643.922 241.368 643.67C241.741 643.409 242.002 643.063 242.152 642.634H243.524C243.318 643.371 242.908 643.973 242.292 644.44C241.676 644.897 240.91 645.126 239.996 645.126C239.268 645.126 238.614 644.963 238.036 644.636C237.466 644.309 237.018 643.847 236.692 643.25C236.365 642.643 236.202 641.943 236.202 641.15C236.202 640.357 236.36 639.661 236.678 639.064C236.995 638.467 237.438 638.009 238.008 637.692C238.586 637.365 239.249 637.202 239.996 637.202C240.724 637.202 241.368 637.361 241.928 637.678C242.488 637.995 242.917 638.434 243.216 638.994C243.524 639.545 243.678 640.17 243.678 640.87ZM242.362 640.604C242.362 640.119 242.254 639.703 242.04 639.358C241.825 639.003 241.531 638.737 241.158 638.56C240.794 638.373 240.388 638.28 239.94 638.28C239.296 638.28 238.745 638.485 238.288 638.896C237.84 639.307 237.583 639.876 237.518 640.604H242.362Z" fill="#00C6E8"/>
<g clip-path="url(#clip0_10_643)">
<path d="M288.99 640.206C288.99 639.305 288.915 638.647 288.753 637.965H278.219V642.033H284.402C284.278 643.044 283.604 644.567 282.109 645.59L282.088 645.726L285.418 648.247L285.649 648.269C287.768 646.357 288.99 643.543 288.99 640.206Z" fill="#4285F4"/>
<path d="M278.219 650.924C281.248 650.924 283.791 649.95 285.649 648.269L282.109 645.589C281.161 646.235 279.89 646.686 278.219 646.686C275.252 646.686 272.734 644.773 271.837 642.13L271.705 642.141L268.242 644.76L268.197 644.883C270.042 648.464 273.831 650.924 278.219 650.924Z" fill="#34A853"/>
<path d="M271.837 642.13C271.6 641.448 271.463 640.717 271.463 639.962C271.463 639.207 271.6 638.476 271.824 637.794L271.818 637.649L268.311 634.988L268.197 635.041C267.436 636.527 267 638.196 267 639.962C267 641.728 267.436 643.397 268.197 644.883L271.837 642.13Z" fill="#FBBC05"/>
<path d="M278.219 633.239C280.326 633.239 281.747 634.128 282.557 634.871L285.724 631.85C283.779 630.084 281.248 629 278.219 629C273.831 629 270.042 631.46 268.197 635.041L271.824 637.794C272.734 635.151 275.252 633.239 278.219 633.239Z" fill="#EB4335"/>
</g>
<path opacity="0.5" d="M370.24 35.2861V39.3406C371.077 38.9972 371.621 38.1984 371.621 37.3134C371.621 36.4283 371.077 35.6295 370.24 35.2861Z" fill="black"/>
<path d="M351.52 34.93C351.52 34.1936 352.117 33.5967 352.853 33.5967H368.907C369.643 33.5967 370.24 34.1936 370.24 34.93V39.6965C370.24 40.4329 369.643 41.0298 368.907 41.0298H352.853C352.117 41.0298 351.52 40.4329 351.52 39.6965V34.93Z" fill="black"/>
<path fill-rule="evenodd" clip-rule="evenodd" d="M336.264 33.8747C338.568 33.8748 340.785 34.7379 342.455 36.2854C342.58 36.4049 342.782 36.4034 342.905 36.2821L344.108 35.0995C344.17 35.038 344.205 34.9546 344.205 34.8679C344.204 34.7811 344.168 34.6981 344.105 34.6373C339.721 30.5428 332.805 30.5428 328.422 34.6373C328.358 34.6981 328.322 34.781 328.322 34.8678C328.321 34.9545 328.356 35.0379 328.419 35.0995L329.621 36.2821C329.745 36.4036 329.946 36.4051 330.072 36.2854C331.742 34.7378 333.959 33.8747 336.264 33.8747ZM336.264 37.7221C337.53 37.722 338.751 38.1807 339.689 39.009C339.816 39.1266 340.016 39.124 340.14 39.0033L341.341 37.8207C341.404 37.7587 341.439 37.6746 341.438 37.5871C341.437 37.4997 341.401 37.4162 341.336 37.3555C338.478 34.7643 334.052 34.7643 331.194 37.3555C331.129 37.4162 331.092 37.4997 331.091 37.5872C331.091 37.6747 331.126 37.7588 331.189 37.8207L332.39 39.0033C332.513 39.124 332.713 39.1266 332.84 39.009C333.778 38.1812 334.998 37.7226 336.264 37.7221ZM338.669 40.3107C338.671 40.3983 338.636 40.4829 338.571 40.5443L336.494 42.5874C336.433 42.6475 336.35 42.6813 336.264 42.6813C336.177 42.6813 336.094 42.6475 336.033 42.5874L333.956 40.5443C333.891 40.4828 333.856 40.3983 333.858 40.3106C333.86 40.2229 333.899 40.1399 333.966 40.0811C335.292 38.9875 337.235 38.9875 338.562 40.0811C338.628 40.1399 338.667 40.223 338.669 40.3107Z" fill="black"/>
<path fill-rule="evenodd" clip-rule="evenodd" d="M322.053 31.9072H321.013C320.439 31.9072 319.973 32.361 319.973 32.9208V41.7055C319.973 42.2653 320.439 42.7191 321.013 42.7191H322.053C322.628 42.7191 323.093 42.2653 323.093 41.7055V32.9208C323.093 32.361 322.628 31.9072 322.053 31.9072ZM316.16 34.2723H317.2C317.774 34.2723 318.24 34.7261 318.24 35.2859V41.7055C318.24 42.2653 317.774 42.7191 317.2 42.7191H316.16C315.586 42.7191 315.12 42.2653 315.12 41.7055V35.2859C315.12 34.7261 315.586 34.2723 316.16 34.2723ZM312.347 36.6374H311.307C310.732 36.6374 310.267 37.0912 310.267 37.651V41.7055C310.267 42.2653 310.732 42.7191 311.307 42.7191H312.347C312.921 42.7191 313.387 42.2653 313.387 41.7055V37.651C313.387 37.0912 312.921 36.6374 312.347 36.6374ZM307.493 38.6647H306.453C305.879 38.6647 305.413 39.1185 305.413 39.6783V41.7055C305.413 42.2653 305.879 42.7191 306.453 42.7191H307.493C308.068 42.7191 308.533 42.2653 308.533 41.7055V39.6783C308.533 39.1185 308.068 38.6647 307.493 38.6647Z" fill="black"/>
<path d="M39.314 35.9809C39.464 36.7709 39.924 37.1659 40.694 37.1659C41.224 37.1659 41.599 36.9309 41.819 36.4609C42.039 35.9909 42.149 35.2259 42.149 34.1659C41.929 34.4759 41.629 34.7159 41.249 34.8859C40.869 35.0559 40.444 35.1409 39.974 35.1409C39.334 35.1409 38.764 35.0109 38.264 34.7509C37.764 34.4809 37.369 34.0859 37.079 33.5659C36.799 33.0359 36.659 32.3959 36.659 31.6459C36.659 30.9059 36.809 30.2609 37.109 29.7109C37.419 29.1609 37.854 28.7359 38.414 28.4359C38.984 28.1359 39.654 27.9859 40.424 27.9859C41.904 27.9859 42.939 28.4459 43.529 29.3659C44.119 30.2859 44.414 31.6409 44.414 33.4309C44.414 34.7309 44.294 35.8059 44.054 36.6559C43.824 37.4959 43.429 38.1359 42.869 38.5759C42.319 39.0159 41.564 39.2359 40.604 39.2359C39.844 39.2359 39.194 39.0859 38.654 38.7859C38.124 38.4859 37.714 38.0909 37.424 37.6009C37.144 37.1109 36.984 36.5709 36.944 35.9809H39.314ZM40.559 33.1159C40.979 33.1159 41.314 32.9909 41.564 32.7409C41.814 32.4809 41.939 32.1309 41.939 31.6909C41.939 31.2109 41.809 30.8409 41.549 30.5809C41.289 30.3209 40.939 30.1909 40.499 30.1909C40.059 30.1909 39.709 30.3259 39.449 30.5959C39.199 30.8559 39.074 31.2159 39.074 31.6759C39.074 32.1059 39.199 32.4559 39.449 32.7259C39.709 32.9859 40.079 33.1159 40.559 33.1159ZM46.9375 39.3109C46.4875 39.3109 46.1175 39.1809 45.8275 38.9209C45.5475 38.6509 45.4075 38.3209 45.4075 37.9309C45.4075 37.5309 45.5475 37.1959 45.8275 36.9259C46.1175 36.6559 46.4875 36.5209 46.9375 36.5209C47.3775 36.5209 47.7375 36.6559 48.0175 36.9259C48.3075 37.1959 48.4525 37.5309 48.4525 37.9309C48.4525 38.3209 48.3075 38.6509 48.0175 38.9209C47.7375 39.1809 47.3775 39.3109 46.9375 39.3109ZM46.9375 33.2059C46.4875 33.2059 46.1175 33.0759 45.8275 32.8159C45.5475 32.5459 45.4075 32.2159 45.4075 31.8259C45.4075 31.4259 45.5475 31.0909 45.8275 30.8209C46.1175 30.5509 46.4875 30.4159 46.9375 30.4159C47.3775 30.4159 47.7375 30.5509 48.0175 30.8209C48.3075 31.0909 48.4525 31.4259 48.4525 31.8259C48.4525 32.2159 48.3075 32.5459 48.0175 32.8159C47.7375 33.0759 47.3775 33.2059 46.9375 33.2059ZM49.5052 37.2409V35.1709L54.2452 28.3909H57.1102V35.0209H58.3402V37.2409H57.1102V39.1909H54.5452V37.2409H49.5052ZM54.7252 31.2109L52.2052 35.0209H54.7252V31.2109ZM59.0266 30.6259V28.2409H63.1816V39.1909H60.5116V30.6259H59.0266Z" fill="black"/>
<line x1="128.5" y1="824.5" x2="261.5" y2="824.5" stroke="black" stroke-width="5" stroke-linecap="round"/>
<path opacity="0.5" d="M370.24 35.2861V39.3406C371.077 38.9972 371.621 38.1984 371.621 37.3134C371.621 36.4283 371.077 35.6295 370.24 35.2861Z" fill="black"/>
<path d="M351.52 34.93C351.52 34.1936 352.117 33.5967 352.853 33.5967H368.907C369.643 33.5967 370.24 34.1936 370.24 34.93V39.6965C370.24 40.4329 369.643 41.0298 368.907 41.0298H352.853C352.117 41.0298 351.52 40.4329 351.52 39.6965V34.93Z" fill="black"/>
<path fill-rule="evenodd" clip-rule="evenodd" d="M336.264 33.8747C338.568 33.8748 340.785 34.7379 342.455 36.2854C342.58 36.4049 342.782 36.4034 342.905 36.2821L344.108 35.0995C344.17 35.038 344.205 34.9546 344.205 34.8679C344.204 34.7811 344.168 34.6981 344.105 34.6373C339.721 30.5428 332.805 30.5428 328.422 34.6373C328.358 34.6981 328.322 34.781 328.322 34.8678C328.321 34.9545 328.356 35.0379 328.419 35.0995L329.621 36.2821C329.745 36.4036 329.946 36.4051 330.072 36.2854C331.742 34.7378 333.959 33.8747 336.264 33.8747ZM336.264 37.7221C337.53 37.722 338.751 38.1807 339.689 39.009C339.816 39.1266 340.016 39.124 340.14 39.0033L341.341 37.8207C341.404 37.7587 341.439 37.6746 341.438 37.5871C341.437 37.4997 341.401 37.4162 341.336 37.3555C338.478 34.7643 334.052 34.7643 331.194 37.3555C331.129 37.4162 331.092 37.4997 331.091 37.5872C331.091 37.6747 331.126 37.7588 331.189 37.8207L332.39 39.0033C332.513 39.124 332.713 39.1266 332.84 39.009C333.778 38.1812 334.998 37.7226 336.264 37.7221ZM338.669 40.3107C338.671 40.3983 338.636 40.4829 338.571 40.5443L336.494 42.5874C336.433 42.6475 336.35 42.6813 336.264 42.6813C336.177 42.6813 336.094 42.6475 336.033 42.5874L333.956 40.5443C333.891 40.4828 333.856 40.3983 333.858 40.3106C333.86 40.2229 333.899 40.1399 333.966 40.0811C335.292 38.9875 337.235 38.9875 338.562 40.0811C338.628 40.1399 338.667 40.223 338.669 40.3107Z" fill="black"/>
<path fill-rule="evenodd" clip-rule="evenodd" d="M322.053 31.9072H321.013C320.439 31.9072 319.973 32.361 319.973 32.9208V41.7055C319.973 42.2653 320.439 42.7191 321.013 42.7191H322.053C322.628 42.7191 323.093 42.2653 323.093 41.7055V32.9208C323.093 32.361 322.628 31.9072 322.053 31.9072ZM316.16 34.2723H317.2C317.774 34.2723 318.24 34.7261 318.24 35.2859V41.7055C318.24 42.2653 317.774 42.7191 317.2 42.7191H316.16C315.586 42.7191 315.12 42.2653 315.12 41.7055V35.2859C315.12 34.7261 315.586 34.2723 316.16 34.2723ZM312.347 36.6374H311.307C310.732 36.6374 310.267 37.0912 310.267 37.651V41.7055C310.267 42.2653 310.732 42.7191 311.307 42.7191H312.347C312.921 42.7191 313.387 42.2653 313.387 41.7055V37.651C313.387 37.0912 312.921 36.6374 312.347 36.6374ZM307.493 38.6647H306.453C305.879 38.6647 305.413 39.1185 305.413 39.6783V41.7055C305.413 42.2653 305.879 42.7191 306.453 42.7191H307.493C308.068 42.7191 308.533 42.2653 308.533 41.7055V39.6783C308.533 39.1185 308.068 38.6647 307.493 38.6647Z" fill="black"/>
<path d="M39.314 35.9809C39.464 36.7709 39.924 37.1659 40.694 37.1659C41.224 37.1659 41.599 36.9309 41.819 36.4609C42.039 35.9909 42.149 35.2259 42.149 34.1659C41.929 34.4759 41.629 34.7159 41.249 34.8859C40.869 35.0559 40.444 35.1409 39.974 35.1409C39.334 35.1409 38.764 35.0109 38.264 34.7509C37.764 34.4809 37.369 34.0859 37.079 33.5659C36.799 33.0359 36.659 32.3959 36.659 31.6459C36.659 30.9059 36.809 30.2609 37.109 29.7109C37.419 29.1609 37.854 28.7359 38.414 28.4359C38.984 28.1359 39.654 27.9859 40.424 27.9859C41.904 27.9859 42.939 28.4459 43.529 29.3659C44.119 30.2859 44.414 31.6409 44.414 33.4309C44.414 34.7309 44.294 35.8059 44.054 36.6559C43.824 37.4959 43.429 38.1359 42.869 38.5759C42.319 39.0159 41.564 39.2359 40.604 39.2359C39.844 39.2359 39.194 39.0859 38.654 38.7859C38.124 38.4859 37.714 38.0909 37.424 37.6009C37.144 37.1109 36.984 36.5709 36.944 35.9809H39.314ZM40.559 33.1159C40.979 33.1159 41.314 32.9909 41.564 32.7409C41.814 32.4809 41.939 32.1309 41.939 31.6909C41.939 31.2109 41.809 30.8409 41.549 30.5809C41.289 30.3209 40.939 30.1909 40.499 30.1909C40.059 30.1909 39.709 30.3259 39.449 30.5959C39.199 30.8559 39.074 31.2159 39.074 31.6759C39.074 32.1059 39.199 32.4559 39.449 32.7259C39.709 32.9859 40.079 33.1159 40.559 33.1159ZM46.9375 39.3109C46.4875 39.3109 46.1175 39.1809 45.8275 38.9209C45.5475 38.6509 45.4075 38.3209 45.4075 37.9309C45.4075 37.5309 45.5475 37.1959 45.8275 36.9259C46.1175 36.6559 46.4875 36.5209 46.9375 36.5209C47.3775 36.5209 47.7375 36.6559 48.0175 36.9259C48.3075 37.1959 48.4525 37.5309 48.4525 37.9309C48.4525 38.3209 48.3075 38.6509 48.0175 38.9209C47.7375 39.1809 47.3775 39.3109 46.9375 39.3109ZM46.9375 33.2059C46.4875 33.2059 46.1175 33.0759 45.8275 32.8159C45.5475 32.5459 45.4075 32.2159 45.4075 31.8259C45.4075 31.4259 45.5475 31.0909 45.8275 30.8209C46.1175 30.5509 46.4875 30.4159 46.9375 30.4159C47.3775 30.4159 47.7375 30.5509 48.0175 30.8209C48.3075 31.0909 48.4525 31.4259 48.4525 31.8259C48.4525 32.2159 48.3075 32.5459 48.0175 32.8159C47.7375 33.0759 47.3775 33.2059 46.9375 33.2059ZM49.5052 37.2409V35.1709L54.2452 28.3909H57.1102V35.0209H58.3402V37.2409H57.1102V39.1909H54.5452V37.2409H49.5052ZM54.7252 31.2109L52.2052 35.0209H54.7252V31.2109ZM59.0266 30.6259V28.2409H63.1816V39.1909H60.5116V30.6259H59.0266Z" fill="black"/>
<line x1="128.5" y1="824.5" x2="261.5" y2="824.5" stroke="black" stroke-width="5" stroke-linecap="round"/>
<rect x="50" y="129" width="305" height="55" rx="10" fill="white"/>
<path d="M72.324 151.242V157.416C72.324 158.284 72.534 158.928 72.954 159.348C73.3833 159.768 73.976 159.978 74.732 159.978C75.4787 159.978 76.062 159.768 76.482 159.348C76.9113 158.928 77.126 158.284 77.126 157.416V151.242H78.4V157.402C78.4 158.214 78.2367 158.9 77.91 159.46C77.5833 160.011 77.14 160.421 76.58 160.692C76.0293 160.963 75.4087 161.098 74.718 161.098C74.0273 161.098 73.402 160.963 72.842 160.692C72.2913 160.421 71.8527 160.011 71.526 159.46C71.2087 158.9 71.05 158.214 71.05 157.402V151.242H72.324ZM83.2413 161.126C82.6533 161.126 82.1259 161.028 81.6593 160.832C81.1926 160.627 80.8239 160.347 80.5533 159.992C80.2826 159.628 80.1333 159.213 80.1053 158.746H81.4213C81.4586 159.129 81.6359 159.441 81.9533 159.684C82.2799 159.927 82.7046 160.048 83.2273 160.048C83.7126 160.048 84.0953 159.941 84.3753 159.726C84.6553 159.511 84.7953 159.241 84.7953 158.914C84.7953 158.578 84.6459 158.331 84.3473 158.172C84.0486 158.004 83.5866 157.841 82.9613 157.682C82.3919 157.533 81.9253 157.383 81.5613 157.234C81.2066 157.075 80.8986 156.847 80.6373 156.548C80.3853 156.24 80.2593 155.839 80.2593 155.344C80.2593 154.952 80.3759 154.593 80.6093 154.266C80.8426 153.939 81.1739 153.683 81.6033 153.496C82.0326 153.3 82.5226 153.202 83.0733 153.202C83.9226 153.202 84.6086 153.417 85.1313 153.846C85.6539 154.275 85.9339 154.863 85.9713 155.61H84.6973C84.6693 155.209 84.5059 154.887 84.2073 154.644C83.9179 154.401 83.5259 154.28 83.0313 154.28C82.5739 154.28 82.2099 154.378 81.9393 154.574C81.6686 154.77 81.5333 155.027 81.5333 155.344C81.5333 155.596 81.6126 155.806 81.7713 155.974C81.9393 156.133 82.1446 156.263 82.3873 156.366C82.6393 156.459 82.9846 156.567 83.4233 156.688C83.9739 156.837 84.4219 156.987 84.7673 157.136C85.1126 157.276 85.4066 157.491 85.6493 157.78C85.9013 158.069 86.0319 158.447 86.0413 158.914C86.0413 159.334 85.9246 159.712 85.6913 160.048C85.4579 160.384 85.1266 160.65 84.6973 160.846C84.2773 161.033 83.7919 161.126 83.2413 161.126ZM94.8397 156.87C94.8397 157.113 94.8257 157.369 94.7977 157.64H88.6657C88.7124 158.396 88.9691 158.989 89.4357 159.418C89.9117 159.838 90.4857 160.048 91.1577 160.048C91.7084 160.048 92.1657 159.922 92.5297 159.67C92.9031 159.409 93.1644 159.063 93.3137 158.634H94.6857C94.4804 159.371 94.0697 159.973 93.4537 160.44C92.8377 160.897 92.0724 161.126 91.1577 161.126C90.4297 161.126 89.7764 160.963 89.1977 160.636C88.6284 160.309 88.1804 159.847 87.8537 159.25C87.5271 158.643 87.3637 157.943 87.3637 157.15C87.3637 156.357 87.5224 155.661 87.8397 155.064C88.1571 154.467 88.6004 154.009 89.1697 153.692C89.7484 153.365 90.4111 153.202 91.1577 153.202C91.8857 153.202 92.5297 153.361 93.0897 153.678C93.6497 153.995 94.0791 154.434 94.3777 154.994C94.6857 155.545 94.8397 156.17 94.8397 156.87ZM93.5237 156.604C93.5237 156.119 93.4164 155.703 93.2017 155.358C92.9871 155.003 92.6931 154.737 92.3197 154.56C91.9557 154.373 91.5497 154.28 91.1017 154.28C90.4577 154.28 89.9071 154.485 89.4497 154.896C89.0017 155.307 88.7451 155.876 88.6797 156.604H93.5237ZM97.7954 154.574C98.0194 154.135 98.3367 153.795 98.7474 153.552C99.1674 153.309 99.676 153.188 100.273 153.188V154.504H99.9374C98.5094 154.504 97.7954 155.279 97.7954 156.828V161H96.5214V153.328H97.7954V154.574ZM105.482 153.188C106.415 153.188 107.171 153.473 107.75 154.042C108.329 154.602 108.618 155.414 108.618 156.478V161H107.358V156.66C107.358 155.895 107.167 155.311 106.784 154.91C106.401 154.499 105.879 154.294 105.216 154.294C104.544 154.294 104.007 154.504 103.606 154.924C103.214 155.344 103.018 155.955 103.018 156.758V161H101.744V153.328H103.018V154.42C103.27 154.028 103.611 153.725 104.04 153.51C104.479 153.295 104.959 153.188 105.482 153.188ZM110.223 157.136C110.223 156.352 110.382 155.666 110.699 155.078C111.016 154.481 111.45 154.019 112.001 153.692C112.561 153.365 113.182 153.202 113.863 153.202C114.535 153.202 115.118 153.347 115.613 153.636C116.108 153.925 116.476 154.289 116.719 154.728V153.328H118.007V161H116.719V159.572C116.467 160.02 116.089 160.393 115.585 160.692C115.09 160.981 114.512 161.126 113.849 161.126C113.168 161.126 112.552 160.958 112.001 160.622C111.45 160.286 111.016 159.815 110.699 159.208C110.382 158.601 110.223 157.911 110.223 157.136ZM116.719 157.15C116.719 156.571 116.602 156.067 116.369 155.638C116.136 155.209 115.818 154.882 115.417 154.658C115.025 154.425 114.591 154.308 114.115 154.308C113.639 154.308 113.205 154.42 112.813 154.644C112.421 154.868 112.108 155.195 111.875 155.624C111.642 156.053 111.525 156.557 111.525 157.136C111.525 157.724 111.642 158.237 111.875 158.676C112.108 159.105 112.421 159.437 112.813 159.67C113.205 159.894 113.639 160.006 114.115 160.006C114.591 160.006 115.025 159.894 115.417 159.67C115.818 159.437 116.136 159.105 116.369 158.676C116.602 158.237 116.719 157.729 116.719 157.15ZM129.386 153.188C129.983 153.188 130.515 153.314 130.982 153.566C131.449 153.809 131.817 154.177 132.088 154.672C132.359 155.167 132.494 155.769 132.494 156.478V161H131.234V156.66C131.234 155.895 131.043 155.311 130.66 154.91C130.287 154.499 129.778 154.294 129.134 154.294C128.471 154.294 127.944 154.509 127.552 154.938C127.16 155.358 126.964 155.969 126.964 156.772V161H125.704V156.66C125.704 155.895 125.513 155.311 125.13 154.91C124.757 154.499 124.248 154.294 123.604 154.294C122.941 154.294 122.414 154.509 122.022 154.938C121.63 155.358 121.434 155.969 121.434 156.772V161H120.16V153.328H121.434V154.434C121.686 154.033 122.022 153.725 122.442 153.51C122.871 153.295 123.343 153.188 123.856 153.188C124.5 153.188 125.069 153.333 125.564 153.622C126.059 153.911 126.427 154.336 126.67 154.896C126.885 154.355 127.239 153.935 127.734 153.636C128.229 153.337 128.779 153.188 129.386 153.188ZM141.584 156.87C141.584 157.113 141.57 157.369 141.542 157.64H135.41C135.457 158.396 135.713 158.989 136.18 159.418C136.656 159.838 137.23 160.048 137.902 160.048C138.453 160.048 138.91 159.922 139.274 159.67C139.647 159.409 139.909 159.063 140.058 158.634H141.43C141.225 159.371 140.814 159.973 140.198 160.44C139.582 160.897 138.817 161.126 137.902 161.126C137.174 161.126 136.521 160.963 135.942 160.636C135.373 160.309 134.925 159.847 134.598 159.25C134.271 158.643 134.108 157.943 134.108 157.15C134.108 156.357 134.267 155.661 134.584 155.064C134.901 154.467 135.345 154.009 135.914 153.692C136.493 153.365 137.155 153.202 137.902 153.202C138.63 153.202 139.274 153.361 139.834 153.678C140.394 153.995 140.823 154.434 141.122 154.994C141.43 155.545 141.584 156.17 141.584 156.87ZM140.268 156.604C140.268 156.119 140.161 155.703 139.946 155.358C139.731 155.003 139.437 154.737 139.064 154.56C138.7 154.373 138.294 154.28 137.846 154.28C137.202 154.28 136.651 154.485 136.194 154.896C135.746 155.307 135.489 155.876 135.424 156.604H140.268Z" fill="#00A6C2"/>
<rect x="49" y="204" width="305" height="55" rx="10" fill="white"/>
<path d="M71.352 227.278V230.54H74.908V231.59H71.352V234.95H75.328V236H70.078V226.228H75.328V227.278H71.352ZM86.4817 228.188C87.0791 228.188 87.6111 228.314 88.0777 228.566C88.5444 228.809 88.9131 229.177 89.1837 229.672C89.4544 230.167 89.5897 230.769 89.5897 231.478V236H88.3297V231.66C88.3297 230.895 88.1384 230.311 87.7557 229.91C87.3824 229.499 86.8737 229.294 86.2297 229.294C85.5671 229.294 85.0397 229.509 84.6477 229.938C84.2557 230.358 84.0597 230.969 84.0597 231.772V236H82.7997V231.66C82.7997 230.895 82.6084 230.311 82.2257 229.91C81.8524 229.499 81.3437 229.294 80.6997 229.294C80.0371 229.294 79.5097 229.509 79.1177 229.938C78.7257 230.358 78.5297 230.969 78.5297 231.772V236H77.2557V228.328H78.5297V229.434C78.7817 229.033 79.1177 228.725 79.5377 228.51C79.9671 228.295 80.4384 228.188 80.9517 228.188C81.5957 228.188 82.1651 228.333 82.6597 228.622C83.1544 228.911 83.5231 229.336 83.7657 229.896C83.9804 229.355 84.3351 228.935 84.8297 228.636C85.3244 228.337 85.8751 228.188 86.4817 228.188ZM91.2036 232.136C91.2036 231.352 91.3622 230.666 91.6796 230.078C91.9969 229.481 92.4309 229.019 92.9816 228.692C93.5416 228.365 94.1622 228.202 94.8436 228.202C95.5156 228.202 96.0989 228.347 96.5936 228.636C97.0882 228.925 97.4569 229.289 97.6996 229.728V228.328H98.9876V236H97.6996V234.572C97.4476 235.02 97.0696 235.393 96.5656 235.692C96.0709 235.981 95.4922 236.126 94.8296 236.126C94.1482 236.126 93.5322 235.958 92.9816 235.622C92.4309 235.286 91.9969 234.815 91.6796 234.208C91.3622 233.601 91.2036 232.911 91.2036 232.136ZM97.6996 232.15C97.6996 231.571 97.5829 231.067 97.3496 230.638C97.1162 230.209 96.7989 229.882 96.3976 229.658C96.0056 229.425 95.5716 229.308 95.0956 229.308C94.6196 229.308 94.1856 229.42 93.7936 229.644C93.4016 229.868 93.0889 230.195 92.8556 230.624C92.6222 231.053 92.5056 231.557 92.5056 232.136C92.5056 232.724 92.6222 233.237 92.8556 233.676C93.0889 234.105 93.4016 234.437 93.7936 234.67C94.1856 234.894 94.6196 235.006 95.0956 235.006C95.5716 235.006 96.0056 234.894 96.3976 234.67C96.7989 234.437 97.1162 234.105 97.3496 233.676C97.5829 233.237 97.6996 232.729 97.6996 232.15ZM101.799 227.082C101.556 227.082 101.351 226.998 101.183 226.83C101.015 226.662 100.931 226.457 100.931 226.214C100.931 225.971 101.015 225.766 101.183 225.598C101.351 225.43 101.556 225.346 101.799 225.346C102.032 225.346 102.228 225.43 102.387 225.598C102.555 225.766 102.639 225.971 102.639 226.214C102.639 226.457 102.555 226.662 102.387 226.83C102.228 226.998 102.032 227.082 101.799 227.082ZM102.415 228.328V236H101.141V228.328H102.415ZM105.86 225.64V236H104.586V225.64H105.86Z" fill="#00A6C2"/>
<rect x="49" y="279" width="305" height="55" rx="10" fill="white"/>
<path d="M76.602 304.098C76.602 304.91 76.322 305.587 75.762 306.128C75.2113 306.66 74.3667 306.926 73.228 306.926H71.352V311H70.078V301.242H73.228C74.3293 301.242 75.1647 301.508 75.734 302.04C76.3127 302.572 76.602 303.258 76.602 304.098ZM73.228 305.876C73.9373 305.876 74.46 305.722 74.796 305.414C75.132 305.106 75.3 304.667 75.3 304.098C75.3 302.894 74.6093 302.292 73.228 302.292H71.352V305.876H73.228ZM81.9934 303.188C82.5721 303.188 83.0948 303.314 83.5614 303.566C84.0281 303.809 84.3921 304.177 84.6534 304.672C84.9241 305.167 85.0594 305.769 85.0594 306.478V311H83.7994V306.66C83.7994 305.895 83.6081 305.311 83.2254 304.91C82.8428 304.499 82.3201 304.294 81.6574 304.294C80.9854 304.294 80.4488 304.504 80.0474 304.924C79.6554 305.344 79.4594 305.955 79.4594 306.758V311H78.1854V300.64H79.4594V304.42C79.7114 304.028 80.0568 303.725 80.4954 303.51C80.9434 303.295 81.4428 303.188 81.9934 303.188ZM90.4865 311.126C89.7678 311.126 89.1145 310.963 88.5265 310.636C87.9478 310.309 87.4905 309.847 87.1545 309.25C86.8278 308.643 86.6645 307.943 86.6645 307.15C86.6645 306.366 86.8325 305.675 87.1685 305.078C87.5138 304.471 87.9805 304.009 88.5685 303.692C89.1565 303.365 89.8145 303.202 90.5425 303.202C91.2705 303.202 91.9285 303.365 92.5165 303.692C93.1045 304.009 93.5665 304.467 93.9025 305.064C94.2478 305.661 94.4205 306.357 94.4205 307.15C94.4205 307.943 94.2432 308.643 93.8885 309.25C93.5432 309.847 93.0718 310.309 92.4745 310.636C91.8772 310.963 91.2145 311.126 90.4865 311.126ZM90.4865 310.006C90.9438 310.006 91.3732 309.899 91.7745 309.684C92.1758 309.469 92.4978 309.147 92.7405 308.718C92.9925 308.289 93.1185 307.766 93.1185 307.15C93.1185 306.534 92.9972 306.011 92.7545 305.582C92.5118 305.153 92.1945 304.835 91.8025 304.63C91.4105 304.415 90.9858 304.308 90.5285 304.308C90.0618 304.308 89.6325 304.415 89.2405 304.63C88.8578 304.835 88.5498 305.153 88.3165 305.582C88.0832 306.011 87.9665 306.534 87.9665 307.15C87.9665 307.775 88.0785 308.303 88.3025 308.732C88.5358 309.161 88.8438 309.483 89.2265 309.698C89.6092 309.903 90.0292 310.006 90.4865 310.006ZM99.8336 303.188C100.767 303.188 101.523 303.473 102.102 304.042C102.68 304.602 102.97 305.414 102.97 306.478V311H101.71V306.66C101.71 305.895 101.518 305.311 101.136 304.91C100.753 304.499 100.23 304.294 99.5676 304.294C98.8956 304.294 98.3589 304.504 97.9576 304.924C97.5656 305.344 97.3696 305.955 97.3696 306.758V311H96.0956V303.328H97.3696V304.42C97.6216 304.028 97.9622 303.725 98.3916 303.51C98.8302 303.295 99.3109 303.188 99.8336 303.188ZM112.051 306.87C112.051 307.113 112.037 307.369 112.009 307.64H105.877C105.923 308.396 106.18 308.989 106.647 309.418C107.123 309.838 107.697 310.048 108.369 310.048C108.919 310.048 109.377 309.922 109.741 309.67C110.114 309.409 110.375 309.063 110.525 308.634H111.897C111.691 309.371 111.281 309.973 110.665 310.44C110.049 310.897 109.283 311.126 108.369 311.126C107.641 311.126 106.987 310.963 106.409 310.636C105.839 310.309 105.391 309.847 105.065 309.25C104.738 308.643 104.575 307.943 104.575 307.15C104.575 306.357 104.733 305.661 105.051 305.064C105.368 304.467 105.811 304.009 106.381 303.692C106.959 303.365 107.622 303.202 108.369 303.202C109.097 303.202 109.741 303.361 110.301 303.678C110.861 303.995 111.29 304.434 111.589 304.994C111.897 305.545 112.051 306.17 112.051 306.87ZM110.735 306.604C110.735 306.119 110.627 305.703 110.413 305.358C110.198 305.003 109.904 304.737 109.531 304.56C109.167 304.373 108.761 304.28 108.313 304.28C107.669 304.28 107.118 304.485 106.661 304.896C106.213 305.307 105.956 305.876 105.891 306.604H110.735ZM125.137 311H123.863L118.739 303.23V311H117.465V301.228H118.739L123.863 308.984V301.228H125.137V311ZM134.112 303.328V311H132.838V309.866C132.596 310.258 132.255 310.566 131.816 310.79C131.387 311.005 130.911 311.112 130.388 311.112C129.791 311.112 129.254 310.991 128.778 310.748C128.302 310.496 127.924 310.123 127.644 309.628C127.374 309.133 127.238 308.531 127.238 307.822V303.328H128.498V307.654C128.498 308.41 128.69 308.993 129.072 309.404C129.455 309.805 129.978 310.006 130.64 310.006C131.322 310.006 131.858 309.796 132.25 309.376C132.642 308.956 132.838 308.345 132.838 307.542V303.328H134.112ZM145.49 303.188C146.087 303.188 146.619 303.314 147.086 303.566C147.552 303.809 147.921 304.177 148.192 304.672C148.462 305.167 148.598 305.769 148.598 306.478V311H147.338V306.66C147.338 305.895 147.146 305.311 146.764 304.91C146.39 304.499 145.882 304.294 145.238 304.294C144.575 304.294 144.048 304.509 143.656 304.938C143.264 305.358 143.068 305.969 143.068 306.772V311H141.808V306.66C141.808 305.895 141.616 305.311 141.234 304.91C140.86 304.499 140.352 304.294 139.708 304.294C139.045 304.294 138.518 304.509 138.126 304.938C137.734 305.358 137.538 305.969 137.538 306.772V311H136.264V303.328H137.538V304.434C137.79 304.033 138.126 303.725 138.546 303.51C138.975 303.295 139.446 303.188 139.96 303.188C140.604 303.188 141.173 303.333 141.668 303.622C142.162 303.911 142.531 304.336 142.774 304.896C142.988 304.355 143.343 303.935 143.838 303.636C144.332 303.337 144.883 303.188 145.49 303.188ZM151.961 304.756C152.223 304.299 152.605 303.925 153.109 303.636C153.613 303.347 154.187 303.202 154.831 303.202C155.522 303.202 156.143 303.365 156.693 303.692C157.244 304.019 157.678 304.481 157.995 305.078C158.313 305.666 158.471 306.352 158.471 307.136C158.471 307.911 158.313 308.601 157.995 309.208C157.678 309.815 157.239 310.286 156.679 310.622C156.129 310.958 155.513 311.126 154.831 311.126C154.169 311.126 153.585 310.981 153.081 310.692C152.587 310.403 152.213 310.034 151.961 309.586V311H150.687V300.64H151.961V304.756ZM157.169 307.136C157.169 306.557 157.053 306.053 156.819 305.624C156.586 305.195 156.269 304.868 155.867 304.644C155.475 304.42 155.041 304.308 154.565 304.308C154.099 304.308 153.665 304.425 153.263 304.658C152.871 304.882 152.554 305.213 152.311 305.652C152.078 306.081 151.961 306.581 151.961 307.15C151.961 307.729 152.078 308.237 152.311 308.676C152.554 309.105 152.871 309.437 153.263 309.67C153.665 309.894 154.099 310.006 154.565 310.006C155.041 310.006 155.475 309.894 155.867 309.67C156.269 309.437 156.586 309.105 156.819 308.676C157.053 308.237 157.169 307.724 157.169 307.136ZM167.148 306.87C167.148 307.113 167.134 307.369 167.106 307.64H160.974C161.021 308.396 161.278 308.989 161.744 309.418C162.22 309.838 162.794 310.048 163.466 310.048C164.017 310.048 164.474 309.922 164.838 309.67C165.212 309.409 165.473 309.063 165.622 308.634H166.994C166.789 309.371 166.378 309.973 165.762 310.44C165.146 310.897 164.381 311.126 163.466 311.126C162.738 311.126 162.085 310.963 161.506 310.636C160.937 310.309 160.489 309.847 160.162 309.25C159.836 308.643 159.672 307.943 159.672 307.15C159.672 306.357 159.831 305.661 160.148 305.064C160.466 304.467 160.909 304.009 161.478 303.692C162.057 303.365 162.72 303.202 163.466 303.202C164.194 303.202 164.838 303.361 165.398 303.678C165.958 303.995 166.388 304.434 166.686 304.994C166.994 305.545 167.148 306.17 167.148 306.87ZM165.832 306.604C165.832 306.119 165.725 305.703 165.51 305.358C165.296 305.003 165.002 304.737 164.628 304.56C164.264 304.373 163.858 304.28 163.41 304.28C162.766 304.28 162.216 304.485 161.758 304.896C161.31 305.307 161.054 305.876 160.988 306.604H165.832ZM170.104 304.574C170.328 304.135 170.645 303.795 171.056 303.552C171.476 303.309 171.985 303.188 172.582 303.188V304.504H172.246C170.818 304.504 170.104 305.279 170.104 306.828V311H168.83V303.328H170.104V304.574Z" fill="#00A6C2"/>
<rect x="50" y="354" width="304" height="55" rx="10" fill="white"/>
<path d="M77.602 379.098C77.602 379.91 77.322 380.587 76.762 381.128C76.2113 381.66 75.3667 381.926 74.228 381.926H72.352V386H71.078V376.242H74.228C75.3293 376.242 76.1647 376.508 76.734 377.04C77.3127 377.572 77.602 378.258 77.602 379.098ZM74.228 380.876C74.9373 380.876 75.46 380.722 75.796 380.414C76.132 380.106 76.3 379.667 76.3 379.098C76.3 377.894 75.6093 377.292 74.228 377.292H72.352V380.876H74.228ZM78.7094 382.136C78.7094 381.352 78.8681 380.666 79.1854 380.078C79.5028 379.481 79.9368 379.019 80.4874 378.692C81.0474 378.365 81.6681 378.202 82.3494 378.202C83.0214 378.202 83.6048 378.347 84.0994 378.636C84.5941 378.925 84.9628 379.289 85.2054 379.728V378.328H86.4934V386H85.2054V384.572C84.9534 385.02 84.5754 385.393 84.0714 385.692C83.5768 385.981 82.9981 386.126 82.3354 386.126C81.6541 386.126 81.0381 385.958 80.4874 385.622C79.9368 385.286 79.5028 384.815 79.1854 384.208C78.8681 383.601 78.7094 382.911 78.7094 382.136ZM85.2054 382.15C85.2054 381.571 85.0888 381.067 84.8554 380.638C84.6221 380.209 84.3048 379.882 83.9034 379.658C83.5114 379.425 83.0774 379.308 82.6014 379.308C82.1254 379.308 81.6914 379.42 81.2994 379.644C80.9074 379.868 80.5948 380.195 80.3614 380.624C80.1281 381.053 80.0114 381.557 80.0114 382.136C80.0114 382.724 80.1281 383.237 80.3614 383.676C80.5948 384.105 80.9074 384.437 81.2994 384.67C81.6914 384.894 82.1254 385.006 82.6014 385.006C83.0774 385.006 83.5114 384.894 83.9034 384.67C84.3048 384.437 84.6221 384.105 84.8554 383.676C85.0888 383.237 85.2054 382.729 85.2054 382.15ZM91.3624 386.126C90.7744 386.126 90.247 386.028 89.7804 385.832C89.3137 385.627 88.945 385.347 88.6744 384.992C88.4037 384.628 88.2544 384.213 88.2264 383.746H89.5424C89.5797 384.129 89.757 384.441 90.0744 384.684C90.401 384.927 90.8257 385.048 91.3484 385.048C91.8337 385.048 92.2164 384.941 92.4964 384.726C92.7764 384.511 92.9164 384.241 92.9164 383.914C92.9164 383.578 92.767 383.331 92.4684 383.172C92.1697 383.004 91.7077 382.841 91.0824 382.682C90.513 382.533 90.0464 382.383 89.6824 382.234C89.3277 382.075 89.0197 381.847 88.7584 381.548C88.5064 381.24 88.3804 380.839 88.3804 380.344C88.3804 379.952 88.497 379.593 88.7304 379.266C88.9637 378.939 89.295 378.683 89.7244 378.496C90.1537 378.3 90.6437 378.202 91.1944 378.202C92.0437 378.202 92.7297 378.417 93.2524 378.846C93.775 379.275 94.055 379.863 94.0924 380.61H92.8184C92.7904 380.209 92.627 379.887 92.3284 379.644C92.039 379.401 91.647 379.28 91.1524 379.28C90.695 379.28 90.331 379.378 90.0604 379.574C89.7897 379.77 89.6544 380.027 89.6544 380.344C89.6544 380.596 89.7337 380.806 89.8924 380.974C90.0604 381.133 90.2657 381.263 90.5084 381.366C90.7604 381.459 91.1057 381.567 91.5444 381.688C92.095 381.837 92.543 381.987 92.8884 382.136C93.2337 382.276 93.5277 382.491 93.7704 382.78C94.0224 383.069 94.153 383.447 94.1624 383.914C94.1624 384.334 94.0457 384.712 93.8124 385.048C93.579 385.384 93.2477 385.65 92.8184 385.846C92.3984 386.033 91.913 386.126 91.3624 386.126ZM98.6768 386.126C98.0888 386.126 97.5615 386.028 97.0948 385.832C96.6281 385.627 96.2595 385.347 95.9888 384.992C95.7181 384.628 95.5688 384.213 95.5408 383.746H96.8568C96.8941 384.129 97.0715 384.441 97.3888 384.684C97.7155 384.927 98.1401 385.048 98.6628 385.048C99.1481 385.048 99.5308 384.941 99.8108 384.726C100.091 384.511 100.231 384.241 100.231 383.914C100.231 383.578 100.081 383.331 99.7828 383.172C99.4841 383.004 99.0221 382.841 98.3968 382.682C97.8275 382.533 97.3608 382.383 96.9968 382.234C96.6421 382.075 96.3341 381.847 96.0728 381.548C95.8208 381.24 95.6948 380.839 95.6948 380.344C95.6948 379.952 95.8115 379.593 96.0448 379.266C96.2781 378.939 96.6095 378.683 97.0388 378.496C97.4681 378.3 97.9581 378.202 98.5088 378.202C99.3581 378.202 100.044 378.417 100.567 378.846C101.089 379.275 101.369 379.863 101.407 380.61H100.133C100.105 380.209 99.9415 379.887 99.6428 379.644C99.3535 379.401 98.9615 379.28 98.4668 379.28C98.0095 379.28 97.6455 379.378 97.3748 379.574C97.1041 379.77 96.9688 380.027 96.9688 380.344C96.9688 380.596 97.0481 380.806 97.2068 380.974C97.3748 381.133 97.5801 381.263 97.8228 381.366C98.0748 381.459 98.4201 381.567 98.8588 381.688C99.4095 381.837 99.8575 381.987 100.203 382.136C100.548 382.276 100.842 382.491 101.085 382.78C101.337 383.069 101.467 383.447 101.477 383.914C101.477 384.334 101.36 384.712 101.127 385.048C100.893 385.384 100.562 385.65 100.133 385.846C99.7128 386.033 99.2275 386.126 98.6768 386.126ZM113.495 378.328L111.101 386H109.785L107.937 379.91L106.089 386H104.773L102.365 378.328H103.667L105.431 384.768L107.335 378.328H108.637L110.499 384.782L112.235 378.328H113.495ZM118.106 386.126C117.387 386.126 116.734 385.963 116.146 385.636C115.567 385.309 115.11 384.847 114.774 384.25C114.447 383.643 114.284 382.943 114.284 382.15C114.284 381.366 114.452 380.675 114.788 380.078C115.133 379.471 115.6 379.009 116.188 378.692C116.776 378.365 117.434 378.202 118.162 378.202C118.89 378.202 119.548 378.365 120.136 378.692C120.724 379.009 121.186 379.467 121.522 380.064C121.867 380.661 122.04 381.357 122.04 382.15C122.04 382.943 121.862 383.643 121.508 384.25C121.162 384.847 120.691 385.309 120.094 385.636C119.496 385.963 118.834 386.126 118.106 386.126ZM118.106 385.006C118.563 385.006 118.992 384.899 119.394 384.684C119.795 384.469 120.117 384.147 120.36 383.718C120.612 383.289 120.738 382.766 120.738 382.15C120.738 381.534 120.616 381.011 120.374 380.582C120.131 380.153 119.814 379.835 119.422 379.63C119.03 379.415 118.605 379.308 118.148 379.308C117.681 379.308 117.252 379.415 116.86 379.63C116.477 379.835 116.169 380.153 115.936 380.582C115.702 381.011 115.586 381.534 115.586 382.15C115.586 382.775 115.698 383.303 115.922 383.732C116.155 384.161 116.463 384.483 116.846 384.698C117.228 384.903 117.648 385.006 118.106 385.006ZM124.989 379.574C125.213 379.135 125.53 378.795 125.941 378.552C126.361 378.309 126.869 378.188 127.467 378.188V379.504H127.131C125.703 379.504 124.989 380.279 124.989 381.828V386H123.715V378.328H124.989V379.574ZM128.461 382.136C128.461 381.352 128.62 380.666 128.937 380.078C129.255 379.481 129.689 379.019 130.239 378.692C130.799 378.365 131.425 378.202 132.115 378.202C132.713 378.202 133.268 378.342 133.781 378.622C134.295 378.893 134.687 379.252 134.957 379.7V375.64H136.245V386H134.957V384.558C134.705 385.015 134.332 385.393 133.837 385.692C133.343 385.981 132.764 386.126 132.101 386.126C131.42 386.126 130.799 385.958 130.239 385.622C129.689 385.286 129.255 384.815 128.937 384.208C128.62 383.601 128.461 382.911 128.461 382.136ZM134.957 382.15C134.957 381.571 134.841 381.067 134.607 380.638C134.374 380.209 134.057 379.882 133.655 379.658C133.263 379.425 132.829 379.308 132.353 379.308C131.877 379.308 131.443 379.42 131.051 379.644C130.659 379.868 130.347 380.195 130.113 380.624C129.88 381.053 129.763 381.557 129.763 382.136C129.763 382.724 129.88 383.237 130.113 383.676C130.347 384.105 130.659 384.437 131.051 384.67C131.443 384.894 131.877 385.006 132.353 385.006C132.829 385.006 133.263 384.894 133.655 384.67C134.057 384.437 134.374 384.105 134.607 383.676C134.841 383.237 134.957 382.729 134.957 382.15Z" fill="#00A6C2"/>
<g clip-path="url(#clip1_10_643)">
<path d="M313.75 382C313.75 382 316.75 376 322 376C327.25 376 330.25 382 330.25 382C330.25 382 327.25 388 322 388C316.75 388 313.75 382 313.75 382Z" stroke="#00C6E8" stroke-width="2" stroke-linecap="round" stroke-linejoin="round"/>
<path d="M322 384.25C323.243 384.25 324.25 383.243 324.25 382C324.25 380.757 323.243 379.75 322 379.75C320.757 379.75 319.75 380.757 319.75 382C319.75 383.243 320.757 384.25 322 384.25Z" stroke="#00C6E8" stroke-width="2" stroke-linecap="round" stroke-linejoin="round"/>
</g>
<rect x="50" y="429" width="304" height="55" rx="10" fill="white"/>
<path d="M70.602 456.114C70.602 455.162 70.8167 454.308 71.246 453.552C71.6753 452.787 72.2587 452.189 72.996 451.76C73.7427 451.331 74.5687 451.116 75.474 451.116C76.538 451.116 77.4667 451.373 78.26 451.886C79.0533 452.399 79.632 453.127 79.996 454.07H78.47C78.1993 453.482 77.8073 453.029 77.294 452.712C76.79 452.395 76.1833 452.236 75.474 452.236C74.7927 452.236 74.1813 452.395 73.64 452.712C73.0987 453.029 72.674 453.482 72.366 454.07C72.058 454.649 71.904 455.33 71.904 456.114C71.904 456.889 72.058 457.57 72.366 458.158C72.674 458.737 73.0987 459.185 73.64 459.502C74.1813 459.819 74.7927 459.978 75.474 459.978C76.1833 459.978 76.79 459.824 77.294 459.516C77.8073 459.199 78.1993 458.746 78.47 458.158H79.996C79.632 459.091 79.0533 459.815 78.26 460.328C77.4667 460.832 76.538 461.084 75.474 461.084C74.5687 461.084 73.7427 460.874 72.996 460.454C72.2587 460.025 71.6753 459.432 71.246 458.676C70.8167 457.92 70.602 457.066 70.602 456.114ZM85.2385 461.126C84.5198 461.126 83.8665 460.963 83.2785 460.636C82.6998 460.309 82.2425 459.847 81.9065 459.25C81.5798 458.643 81.4165 457.943 81.4165 457.15C81.4165 456.366 81.5845 455.675 81.9205 455.078C82.2658 454.471 82.7325 454.009 83.3205 453.692C83.9085 453.365 84.5665 453.202 85.2945 453.202C86.0225 453.202 86.6805 453.365 87.2685 453.692C87.8565 454.009 88.3185 454.467 88.6545 455.064C88.9998 455.661 89.1725 456.357 89.1725 457.15C89.1725 457.943 88.9951 458.643 88.6405 459.25C88.2951 459.847 87.8238 460.309 87.2265 460.636C86.6291 460.963 85.9665 461.126 85.2385 461.126ZM85.2385 460.006C85.6958 460.006 86.1251 459.899 86.5265 459.684C86.9278 459.469 87.2498 459.147 87.4925 458.718C87.7445 458.289 87.8705 457.766 87.8705 457.15C87.8705 456.534 87.7491 456.011 87.5065 455.582C87.2638 455.153 86.9465 454.835 86.5545 454.63C86.1625 454.415 85.7378 454.308 85.2805 454.308C84.8138 454.308 84.3845 454.415 83.9925 454.63C83.6098 454.835 83.3018 455.153 83.0685 455.582C82.8351 456.011 82.7185 456.534 82.7185 457.15C82.7185 457.775 82.8305 458.303 83.0545 458.732C83.2878 459.161 83.5958 459.483 83.9785 459.698C84.3611 459.903 84.7811 460.006 85.2385 460.006ZM94.5855 453.188C95.5189 453.188 96.2749 453.473 96.8535 454.042C97.4322 454.602 97.7215 455.414 97.7215 456.478V461H96.4615V456.66C96.4615 455.895 96.2702 455.311 95.8875 454.91C95.5049 454.499 94.9822 454.294 94.3195 454.294C93.6475 454.294 93.1109 454.504 92.7095 454.924C92.3175 455.344 92.1215 455.955 92.1215 456.758V461H90.8475V453.328H92.1215V454.42C92.3735 454.028 92.7142 453.725 93.1435 453.51C93.5822 453.295 94.0629 453.188 94.5855 453.188ZM102.925 454.378H101.315V461H100.041V454.378H99.0466V453.328H100.041V452.782C100.041 451.923 100.26 451.298 100.699 450.906C101.147 450.505 101.861 450.304 102.841 450.304V451.368C102.281 451.368 101.884 451.48 101.651 451.704C101.427 451.919 101.315 452.278 101.315 452.782V453.328H102.925V454.378ZM105.068 452.082C104.825 452.082 104.62 451.998 104.452 451.83C104.284 451.662 104.2 451.457 104.2 451.214C104.2 450.971 104.284 450.766 104.452 450.598C104.62 450.43 104.825 450.346 105.068 450.346C105.301 450.346 105.497 450.43 105.656 450.598C105.824 450.766 105.908 450.971 105.908 451.214C105.908 451.457 105.824 451.662 105.656 451.83C105.497 451.998 105.301 452.082 105.068 452.082ZM105.684 453.328V461H104.41V453.328H105.684ZM109.129 454.574C109.353 454.135 109.671 453.795 110.081 453.552C110.501 453.309 111.01 453.188 111.607 453.188V454.504H111.271C109.843 454.504 109.129 455.279 109.129 456.828V461H107.855V453.328H109.129V454.574ZM122.304 453.188C122.901 453.188 123.433 453.314 123.9 453.566C124.367 453.809 124.735 454.177 125.006 454.672C125.277 455.167 125.412 455.769 125.412 456.478V461H124.152V456.66C124.152 455.895 123.961 455.311 123.578 454.91C123.205 454.499 122.696 454.294 122.052 454.294C121.389 454.294 120.862 454.509 120.47 454.938C120.078 455.358 119.882 455.969 119.882 456.772V461H118.622V456.66C118.622 455.895 118.431 455.311 118.048 454.91C117.675 454.499 117.166 454.294 116.522 454.294C115.859 454.294 115.332 454.509 114.94 454.938C114.548 455.358 114.352 455.969 114.352 456.772V461H113.078V453.328H114.352V454.434C114.604 454.033 114.94 453.725 115.36 453.51C115.789 453.295 116.261 453.188 116.774 453.188C117.418 453.188 117.987 453.333 118.482 453.622C118.977 453.911 119.345 454.336 119.588 454.896C119.803 454.355 120.157 453.935 120.652 453.636C121.147 453.337 121.697 453.188 122.304 453.188ZM137.758 454.098C137.758 454.91 137.478 455.587 136.918 456.128C136.368 456.66 135.523 456.926 134.384 456.926H132.508V461H131.234V451.242H134.384C135.486 451.242 136.321 451.508 136.89 452.04C137.469 452.572 137.758 453.258 137.758 454.098ZM134.384 455.876C135.094 455.876 135.616 455.722 135.952 455.414C136.288 455.106 136.456 454.667 136.456 454.098C136.456 452.894 135.766 452.292 134.384 452.292H132.508V455.876H134.384ZM138.866 457.136C138.866 456.352 139.024 455.666 139.342 455.078C139.659 454.481 140.093 454.019 140.644 453.692C141.204 453.365 141.824 453.202 142.506 453.202C143.178 453.202 143.761 453.347 144.256 453.636C144.75 453.925 145.119 454.289 145.362 454.728V453.328H146.65V461H145.362V459.572C145.11 460.02 144.732 460.393 144.228 460.692C143.733 460.981 143.154 461.126 142.492 461.126C141.81 461.126 141.194 460.958 140.644 460.622C140.093 460.286 139.659 459.815 139.342 459.208C139.024 458.601 138.866 457.911 138.866 457.136ZM145.362 457.15C145.362 456.571 145.245 456.067 145.012 455.638C144.778 455.209 144.461 454.882 144.06 454.658C143.668 454.425 143.234 454.308 142.758 454.308C142.282 454.308 141.848 454.42 141.456 454.644C141.064 454.868 140.751 455.195 140.518 455.624C140.284 456.053 140.168 456.557 140.168 457.136C140.168 457.724 140.284 458.237 140.518 458.676C140.751 459.105 141.064 459.437 141.456 459.67C141.848 459.894 142.282 460.006 142.758 460.006C143.234 460.006 143.668 459.894 144.06 459.67C144.461 459.437 144.778 459.105 145.012 458.676C145.245 458.237 145.362 457.729 145.362 457.15ZM151.519 461.126C150.931 461.126 150.403 461.028 149.937 460.832C149.47 460.627 149.101 460.347 148.831 459.992C148.56 459.628 148.411 459.213 148.383 458.746H149.699C149.736 459.129 149.913 459.441 150.231 459.684C150.557 459.927 150.982 460.048 151.505 460.048C151.99 460.048 152.373 459.941 152.653 459.726C152.933 459.511 153.073 459.241 153.073 458.914C153.073 458.578 152.923 458.331 152.625 458.172C152.326 458.004 151.864 457.841 151.239 457.682C150.669 457.533 150.203 457.383 149.839 457.234C149.484 457.075 149.176 456.847 148.915 456.548C148.663 456.24 148.537 455.839 148.537 455.344C148.537 454.952 148.653 454.593 148.887 454.266C149.12 453.939 149.451 453.683 149.881 453.496C150.31 453.3 150.8 453.202 151.351 453.202C152.2 453.202 152.886 453.417 153.409 453.846C153.931 454.275 154.211 454.863 154.249 455.61H152.975C152.947 455.209 152.783 454.887 152.485 454.644C152.195 454.401 151.803 454.28 151.309 454.28C150.851 454.28 150.487 454.378 150.217 454.574C149.946 454.77 149.811 455.027 149.811 455.344C149.811 455.596 149.89 455.806 150.049 455.974C150.217 456.133 150.422 456.263 150.665 456.366C150.917 456.459 151.262 456.567 151.701 456.688C152.251 456.837 152.699 456.987 153.045 457.136C153.39 457.276 153.684 457.491 153.927 457.78C154.179 458.069 154.309 458.447 154.319 458.914C154.319 459.334 154.202 459.712 153.969 460.048C153.735 460.384 153.404 460.65 152.975 460.846C152.555 461.033 152.069 461.126 151.519 461.126ZM158.833 461.126C158.245 461.126 157.718 461.028 157.251 460.832C156.784 460.627 156.416 460.347 156.145 459.992C155.874 459.628 155.725 459.213 155.697 458.746H157.013C157.05 459.129 157.228 459.441 157.545 459.684C157.872 459.927 158.296 460.048 158.819 460.048C159.304 460.048 159.687 459.941 159.967 459.726C160.247 459.511 160.387 459.241 160.387 458.914C160.387 458.578 160.238 458.331 159.939 458.172C159.64 458.004 159.178 457.841 158.553 457.682C157.984 457.533 157.517 457.383 157.153 457.234C156.798 457.075 156.49 456.847 156.229 456.548C155.977 456.24 155.851 455.839 155.851 455.344C155.851 454.952 155.968 454.593 156.201 454.266C156.434 453.939 156.766 453.683 157.195 453.496C157.624 453.3 158.114 453.202 158.665 453.202C159.514 453.202 160.2 453.417 160.723 453.846C161.246 454.275 161.526 454.863 161.563 455.61H160.289C160.261 455.209 160.098 454.887 159.799 454.644C159.51 454.401 159.118 454.28 158.623 454.28C158.166 454.28 157.802 454.378 157.531 454.574C157.26 454.77 157.125 455.027 157.125 455.344C157.125 455.596 157.204 455.806 157.363 455.974C157.531 456.133 157.736 456.263 157.979 456.366C158.231 456.459 158.576 456.567 159.015 456.688C159.566 456.837 160.014 456.987 160.359 457.136C160.704 457.276 160.998 457.491 161.241 457.78C161.493 458.069 161.624 458.447 161.633 458.914C161.633 459.334 161.516 459.712 161.283 460.048C161.05 460.384 160.718 460.65 160.289 460.846C159.869 461.033 159.384 461.126 158.833 461.126ZM173.652 453.328L171.258 461H169.942L168.094 454.91L166.246 461H164.93L162.522 453.328H163.824L165.588 459.768L167.492 453.328H168.794L170.656 459.782L172.392 453.328H173.652ZM178.262 461.126C177.543 461.126 176.89 460.963 176.302 460.636C175.723 460.309 175.266 459.847 174.93 459.25C174.603 458.643 174.44 457.943 174.44 457.15C174.44 456.366 174.608 455.675 174.944 455.078C175.289 454.471 175.756 454.009 176.344 453.692C176.932 453.365 177.59 453.202 178.318 453.202C179.046 453.202 179.704 453.365 180.292 453.692C180.88 454.009 181.342 454.467 181.678 455.064C182.023 455.661 182.196 456.357 182.196 457.15C182.196 457.943 182.019 458.643 181.664 459.25C181.319 459.847 180.847 460.309 180.25 460.636C179.653 460.963 178.99 461.126 178.262 461.126ZM178.262 460.006C178.719 460.006 179.149 459.899 179.55 459.684C179.951 459.469 180.273 459.147 180.516 458.718C180.768 458.289 180.894 457.766 180.894 457.15C180.894 456.534 180.773 456.011 180.53 455.582C180.287 455.153 179.97 454.835 179.578 454.63C179.186 454.415 178.761 454.308 178.304 454.308C177.837 454.308 177.408 454.415 177.016 454.63C176.633 454.835 176.325 455.153 176.092 455.582C175.859 456.011 175.742 456.534 175.742 457.15C175.742 457.775 175.854 458.303 176.078 458.732C176.311 459.161 176.619 459.483 177.002 459.698C177.385 459.903 177.805 460.006 178.262 460.006ZM185.145 454.574C185.369 454.135 185.686 453.795 186.097 453.552C186.517 453.309 187.026 453.188 187.623 453.188V454.504H187.287C185.859 454.504 185.145 455.279 185.145 456.828V461H183.871V453.328H185.145V454.574ZM188.618 457.136C188.618 456.352 188.776 455.666 189.094 455.078C189.411 454.481 189.845 454.019 190.396 453.692C190.956 453.365 191.581 453.202 192.272 453.202C192.869 453.202 193.424 453.342 193.938 453.622C194.451 453.893 194.843 454.252 195.114 454.7V450.64H196.402V461H195.114V459.558C194.862 460.015 194.488 460.393 193.994 460.692C193.499 460.981 192.92 461.126 192.258 461.126C191.576 461.126 190.956 460.958 190.396 460.622C189.845 460.286 189.411 459.815 189.094 459.208C188.776 458.601 188.618 457.911 188.618 457.136ZM195.114 457.15C195.114 456.571 194.997 456.067 194.764 455.638C194.53 455.209 194.213 454.882 193.812 454.658C193.42 454.425 192.986 454.308 192.51 454.308C192.034 454.308 191.6 454.42 191.208 454.644C190.816 454.868 190.503 455.195 190.27 455.624C190.036 456.053 189.92 456.557 189.92 457.136C189.92 457.724 190.036 458.237 190.27 458.676C190.503 459.105 190.816 459.437 191.208 459.67C191.6 459.894 192.034 460.006 192.51 460.006C192.986 460.006 193.42 459.894 193.812 459.67C194.213 459.437 194.53 459.105 194.764 458.676C194.997 458.237 195.114 457.729 195.114 457.15Z" fill="#00A6C2"/>
<g clip-path="url(#clip2_10_643)">
<path d="M313.75 457C313.75 457 316.75 451 322 451C327.25 451 330.25 457 330.25 457C330.25 457 327.25 463 322 463C316.75 463 313.75 457 313.75 457Z" stroke="#00C6E8" stroke-width="2" stroke-linecap="round" stroke-linejoin="round"/>
<path d="M322 459.25C323.243 459.25 324.25 458.243 324.25 457C324.25 455.757 323.243 454.75 322 454.75C320.757 454.75 319.75 455.757 319.75 457C319.75 458.243 320.757 459.25 322 459.25Z" stroke="#00C6E8" stroke-width="2" stroke-linecap="round" stroke-linejoin="round"/>
</g>
<defs>
<clipPath id="clip0_10_643">
<rect width="22" height="22" fill="white" transform="translate(267 629)"/>
</clipPath>
<clipPath id="clip1_10_643">
<rect width="18" height="18" fill="white" transform="translate(313 373)"/>
</clipPath>
<clipPath id="clip2_10_643">
<rect width="18" height="18" fill="white" transform="translate(313 448)"/>
</clipPath>
</defs>
</svg>
